<svg width="118" height="24" viewBox="0 0 118 24" fill="none" xmlns="http://www.w3.org/2000/svg">
<path d="M0.592 12.416C0.592 11.328 0.842667 10.352 1.344 9.488C1.856 8.624 2.544 7.952 3.408 7.472C4.28267 6.98133 5.23733 6.736 6.272 6.736C7.456 6.736 8.50667 7.02933 9.424 7.616C10.352 8.192 11.024 9.01333 11.44 10.08H9.248C8.96 9.49333 8.56 9.056 8.048 8.768C7.536 8.48 6.944 8.336 6.272 8.336C5.536 8.336 4.88 8.50133 4.304 8.832C3.728 9.16267 3.27467 9.63733 2.944 10.256C2.624 10.8747 2.464 11.5947 2.464 12.416C2.464 13.2373 2.624 13.9573 2.944 14.576C3.27467 15.1947 3.728 15.6747 4.304 16.016C4.88 16.3467 5.536 16.512 6.272 16.512C6.944 16.512 7.536 16.368 8.048 16.08C8.56 15.792 8.96 15.3547 9.248 14.768H11.44C11.024 15.8347 10.352 16.656 9.424 17.232C8.50667 17.808 7.456 18.096 6.272 18.096C5.22667 18.096 4.272 17.856 3.408 17.376C2.544 16.8853 1.856 16.208 1.344 15.344C0.842667 14.48 0.592 13.504 0.592 12.416ZM17.399 18.144C16.567 18.144 15.815 17.9573 15.143 17.584C14.471 17.2 13.943 16.6667 13.559 15.984C13.175 15.2907 12.983 14.4907 12.983 13.584C12.983 12.688 13.1803 11.8933 13.575 11.2C13.9697 10.5067 14.5083 9.97333 15.191 9.6C15.8737 9.22667 16.6363 9.04 17.479 9.04C18.3217 9.04 19.0843 9.22667 19.767 9.6C20.4497 9.97333 20.9883 10.5067 21.383 11.2C21.7777 11.8933 21.975 12.688 21.975 13.584C21.975 14.48 21.7723 15.2747 21.367 15.968C20.9617 16.6613 20.407 17.2 19.703 17.584C19.0097 17.9573 18.2417 18.144 17.399 18.144ZM17.399 16.56C17.8683 16.56 18.3057 16.448 18.711 16.224C19.127 16 19.463 15.664 19.719 15.216C19.975 14.768 20.103 14.224 20.103 13.584C20.103 12.944 19.9803 12.4053 19.735 11.968C19.4897 11.52 19.1643 11.184 18.759 10.96C18.3537 10.736 17.9163 10.624 17.447 10.624C16.9777 10.624 16.5403 10.736 16.135 10.96C15.7403 11.184 15.4257 11.52 15.191 11.968C14.9563 12.4053 14.839 12.944 14.839 13.584C14.839 14.5333 15.079 15.2693 15.559 15.792C16.0497 16.304 16.663 16.56 17.399 16.56ZM28.2261 9.04C28.9195 9.04 29.5381 9.184 30.0821 9.472C30.6368 9.76 31.0688 10.1867 31.3781 10.752C31.6875 11.3173 31.8421 12 31.8421 12.8V18H30.0341V13.072C30.0341 12.2827 29.8368 11.68 29.4421 11.264C29.0475 10.8373 28.5088 10.624 27.8261 10.624C27.1435 10.624 26.5995 10.8373 26.1941 11.264C25.7995 11.68 25.6021 12.2827 25.6021 13.072V18H23.7781V9.184H25.6021V10.192C25.9008 9.82933 26.2795 9.54667 26.7381 9.344C27.2075 9.14133 27.7035 9.04 28.2261 9.04ZM36.2968 10.672V15.552C36.2968 15.8827 36.3714 16.1227 36.5208 16.272C36.6808 16.4107 36.9474 16.48 37.3208 16.48H38.4408V18H37.0008C36.1794 18 35.5501 17.808 35.1128 17.424C34.6754 17.04 34.4568 16.416 34.4568 15.552V10.672H33.4168V9.184H34.4568V6.992H36.2968V9.184H38.4408V10.672H36.2968ZM39.5139 13.552C39.5139 12.6667 39.6952 11.8827 40.0579 11.2C40.4312 10.5173 40.9325 9.98933 41.5619 9.616C42.2019 9.232 42.9059 9.04 43.6739 9.04C44.3672 9.04 44.9699 9.17867 45.4819 9.456C46.0045 9.72267 46.4205 10.0587 46.7299 10.464V9.184H48.5699V18H46.7299V16.688C46.4205 17.104 45.9992 17.4507 45.4659 17.728C44.9325 18.0053 44.3245 18.144 43.6419 18.144C42.8845 18.144 42.1912 17.952 41.5619 17.568C40.9325 17.1733 40.4312 16.6293 40.0579 15.936C39.6952 15.232 39.5139 14.4373 39.5139 13.552ZM46.7299 13.584C46.7299 12.976 46.6019 12.448 46.3459 12C46.1005 11.552 45.7752 11.2107 45.3699 10.976C44.9645 10.7413 44.5272 10.624 44.0579 10.624C43.5885 10.624 43.1512 10.7413 42.7459 10.976C42.3405 11.2 42.0099 11.536 41.7539 11.984C41.5085 12.4213 41.3859 12.944 41.3859 13.552C41.3859 14.16 41.5085 14.6933 41.7539 15.152C42.0099 15.6107 42.3405 15.9627 42.7459 16.208C43.1619 16.4427 43.5992 16.56 44.0579 16.56C44.5272 16.56 44.9645 16.4427 45.3699 16.208C45.7752 15.9733 46.1005 15.632 46.3459 15.184C46.6019 14.7253 46.7299 14.192 46.7299 13.584ZM50.3576 13.584C50.3576 12.6773 50.539 11.8827 50.9016 11.2C51.275 10.5067 51.787 9.97333 52.4376 9.6C53.0883 9.22667 53.835 9.04 54.6776 9.04C55.7443 9.04 56.6243 9.296 57.3176 9.808C58.0216 10.3093 58.4963 11.0293 58.7416 11.968H56.7736C56.6136 11.5307 56.3576 11.1893 56.0056 10.944C55.6536 10.6987 55.211 10.576 54.6776 10.576C53.931 10.576 53.3336 10.8427 52.8856 11.376C52.4483 11.8987 52.2296 12.6347 52.2296 13.584C52.2296 14.5333 52.4483 15.2747 52.8856 15.808C53.3336 16.3413 53.931 16.608 54.6776 16.608C55.7336 16.608 56.4323 16.144 56.7736 15.216H58.7416C58.4856 16.112 58.0056 16.8267 57.3016 17.36C56.5976 17.8827 55.723 18.144 54.6776 18.144C53.835 18.144 53.0883 17.9573 52.4376 17.584C51.787 17.2 51.275 16.6667 50.9016 15.984C50.539 15.2907 50.3576 14.4907 50.3576 13.584ZM62.6874 10.672V15.552C62.6874 15.8827 62.762 16.1227 62.9114 16.272C63.0714 16.4107 63.338 16.48 63.7114 16.48H64.8314V18H63.3914C62.57 18 61.9407 17.808 61.5034 17.424C61.066 17.04 60.8474 16.416 60.8474 15.552V10.672H59.8074V9.184H60.8474V6.992H62.6874V9.184H64.8314V10.672H62.6874ZM72.4768 6.88V13.968C72.4768 14.8107 72.6954 15.4453 73.1328 15.872C73.5808 16.2987 74.1994 16.512 74.9888 16.512C75.7888 16.512 76.4074 16.2987 76.8448 15.872C77.2928 15.4453 77.5168 14.8107 77.5168 13.968V6.88H79.3408V13.936C79.3408 14.8427 79.1434 15.6107 78.7488 16.24C78.3541 16.8693 77.8261 17.3387 77.1648 17.648C76.5034 17.9573 75.7728 18.112 74.9728 18.112C74.1728 18.112 73.4421 17.9573 72.7808 17.648C72.1301 17.3387 71.6128 16.8693 71.2288 16.24C70.8448 15.6107 70.6528 14.8427 70.6528 13.936V6.88H72.4768ZM84.9156 18.144C84.2223 18.144 83.5983 18.0213 83.0436 17.776C82.4996 17.52 82.0676 17.1787 81.7476 16.752C81.4276 16.3147 81.257 15.8293 81.2356 15.296H83.1236C83.1556 15.6693 83.3316 15.984 83.6516 16.24C83.9823 16.4853 84.393 16.608 84.8836 16.608C85.3956 16.608 85.7903 16.512 86.0676 16.32C86.3556 16.1173 86.4996 15.8613 86.4996 15.552C86.4996 15.2213 86.3396 14.976 86.0196 14.816C85.7103 14.656 85.2143 14.48 84.5316 14.288C83.8703 14.1067 83.3316 13.9307 82.9156 13.76C82.4996 13.5893 82.137 13.328 81.8276 12.976C81.529 12.624 81.3796 12.16 81.3796 11.584C81.3796 11.1147 81.5183 10.688 81.7956 10.304C82.073 9.90933 82.4676 9.6 82.9796 9.376C83.5023 9.152 84.0996 9.04 84.7716 9.04C85.7743 9.04 86.5796 9.296 87.1876 9.808C87.8063 10.3093 88.137 10.9973 88.1796 11.872H86.3556C86.3236 11.4773 86.1636 11.1627 85.8756 10.928C85.5876 10.6933 85.1983 10.576 84.7076 10.576C84.2276 10.576 83.8596 10.6667 83.6036 10.848C83.3476 11.0293 83.2196 11.2693 83.2196 11.568C83.2196 11.8027 83.305 12 83.4756 12.16C83.6463 12.32 83.8543 12.448 84.0996 12.544C84.345 12.6293 84.7076 12.7413 85.1876 12.88C85.8276 13.0507 86.3503 13.2267 86.7556 13.408C87.1716 13.5787 87.529 13.8347 87.8276 14.176C88.1263 14.5173 88.281 14.9707 88.2916 15.536C88.2916 16.0373 88.153 16.4853 87.8756 16.88C87.5983 17.2747 87.2036 17.584 86.6916 17.808C86.1903 18.032 85.5983 18.144 84.9156 18.144Z" fill="#232536"/>
<path d="M117.354 12.3536C117.549 12.1583 117.549 11.8417 117.354 11.6464L114.172 8.46447C113.976 8.2692 113.66 8.2692 113.464 8.46447C113.269 8.65973 113.269 8.97631 113.464 9.17157L116.293 12L113.464 14.8284C113.269 15.0237 113.269 15.3403 113.464 15.5355C113.66 15.7308 113.976 15.7308 114.172 15.5355L117.354 12.3536ZM97 12.5L117 12.5V11.5L97 11.5V12.5Z" fill="#232536"/>
</svg>
