<svg width="157" height="24" viewBox="0 0 157 24" fill="none" xmlns="http://www.w3.org/2000/svg">
<path opacity="0.87" d="M7.04 18L4.224 13.488H2.928V18H1.104V6.704H5.088C6.37867 6.704 7.35467 7.01867 8.016 7.648C8.688 8.27733 9.024 9.10933 9.024 10.144C9.024 11.0293 8.77333 11.7547 8.272 12.32C7.78133 12.8853 7.06667 13.248 6.128 13.408L9.088 18H7.04ZM2.928 12.192H4.944C6.416 12.192 7.152 11.5413 7.152 10.24C7.152 9.62133 6.97067 9.14133 6.608 8.8C6.256 8.448 5.70133 8.272 4.944 8.272H2.928V12.192ZM18.8585 13.168C18.8585 13.4667 18.8372 13.728 18.7945 13.952H12.0105C12.0425 14.8587 12.2932 15.5307 12.7625 15.968C13.2318 16.4053 13.8132 16.624 14.5065 16.624C15.1145 16.624 15.6265 16.4693 16.0425 16.16C16.4692 15.8507 16.7305 15.44 16.8265 14.928H18.7785C18.6612 15.5467 18.4158 16.096 18.0425 16.576C17.6692 17.056 17.1838 17.4347 16.5865 17.712C15.9892 17.9787 15.3225 18.112 14.5865 18.112C13.7332 18.112 12.9758 17.9307 12.3145 17.568C11.6638 17.2053 11.1518 16.6827 10.7785 16C10.4052 15.3173 10.2185 14.512 10.2185 13.584C10.2185 12.6667 10.4052 11.8667 10.7785 11.184C11.1518 10.5013 11.6638 9.97867 12.3145 9.616C12.9758 9.25333 13.7332 9.072 14.5865 9.072C15.4505 9.072 16.2025 9.25333 16.8425 9.616C17.4932 9.968 17.9892 10.4587 18.3305 11.088C18.6825 11.7067 18.8585 12.4 18.8585 13.168ZM17.0185 13.12C17.0398 12.544 16.9385 12.064 16.7145 11.68C16.5012 11.2853 16.2025 10.9973 15.8185 10.816C15.4452 10.624 15.0345 10.528 14.5865 10.528C13.8718 10.528 13.2745 10.7467 12.7945 11.184C12.3145 11.6213 12.0532 12.2667 12.0105 13.12H17.0185ZM24.1556 9.072C24.9556 9.072 25.6383 9.26933 26.2036 9.664C26.769 10.0587 27.169 10.5813 27.4036 11.232V9.184H29.2276V18H27.4036V15.952C27.169 16.6027 26.769 17.1253 26.2036 17.52C25.6383 17.9147 24.9556 18.112 24.1556 18.112C23.3876 18.112 22.6996 17.9307 22.0916 17.568C21.4943 17.2053 21.025 16.6827 20.6836 16C20.3423 15.3173 20.1716 14.512 20.1716 13.584C20.1716 12.6667 20.3423 11.8667 20.6836 11.184C21.025 10.5013 21.4943 9.97867 22.0916 9.616C22.6996 9.25333 23.3876 9.072 24.1556 9.072ZM24.7156 10.672C23.905 10.672 23.2543 10.9333 22.7636 11.456C22.2836 11.968 22.0436 12.6773 22.0436 13.584C22.0436 14.4907 22.2836 15.2053 22.7636 15.728C23.2543 16.24 23.905 16.496 24.7156 16.496C25.2276 16.496 25.6863 16.3787 26.0916 16.144C26.497 15.8987 26.817 15.5573 27.0516 15.12C27.2863 14.6827 27.4036 14.1707 27.4036 13.584C27.4036 13.008 27.2863 12.5013 27.0516 12.064C26.817 11.616 26.497 11.2747 26.0916 11.04C25.6863 10.7947 25.2276 10.672 24.7156 10.672ZM34.9525 9.072C35.7525 9.072 36.4352 9.26933 37.0005 9.664C37.5658 10.0587 37.9605 10.5813 38.1845 11.232V6.16H40.0245V18H38.1845V15.952C37.9605 16.6027 37.5658 17.1253 37.0005 17.52C36.4352 17.9147 35.7525 18.112 34.9525 18.112C34.1845 18.112 33.4965 17.9307 32.8885 17.568C32.2912 17.2053 31.8218 16.6827 31.4805 16C31.1392 15.3173 30.9685 14.512 30.9685 13.584C30.9685 12.6667 31.1392 11.8667 31.4805 11.184C31.8218 10.5013 32.2912 9.97867 32.8885 9.616C33.4965 9.25333 34.1845 9.072 34.9525 9.072ZM35.5125 10.672C34.7018 10.672 34.0512 10.9333 33.5605 11.456C33.0805 11.968 32.8405 12.6773 32.8405 13.584C32.8405 14.4907 33.0805 15.2053 33.5605 15.728C34.0512 16.24 34.7018 16.496 35.5125 16.496C36.0245 16.496 36.4832 16.3787 36.8885 16.144C37.2938 15.8987 37.6138 15.5573 37.8485 15.12C38.0832 14.6827 38.2005 14.1707 38.2005 13.584C38.2005 13.008 38.0832 12.5013 37.8485 12.064C37.6138 11.616 37.2938 11.2747 36.8885 11.04C36.4832 10.7947 36.0245 10.672 35.5125 10.672ZM49.4994 9.072C50.2994 9.072 50.982 9.26933 51.5474 9.664C52.1127 10.0587 52.5127 10.5813 52.7474 11.232V9.184H54.5714V18H52.7474V15.952C52.5127 16.6027 52.1127 17.1253 51.5474 17.52C50.982 17.9147 50.2994 18.112 49.4994 18.112C48.7314 18.112 48.0434 17.9307 47.4354 17.568C46.838 17.2053 46.3687 16.6827 46.0274 16C45.686 15.3173 45.5154 14.512 45.5154 13.584C45.5154 12.6667 45.686 11.8667 46.0274 11.184C46.3687 10.5013 46.838 9.97867 47.4354 9.616C48.0434 9.25333 48.7314 9.072 49.4994 9.072ZM50.0594 10.672C49.2487 10.672 48.598 10.9333 48.1074 11.456C47.6274 11.968 47.3874 12.6773 47.3874 13.584C47.3874 14.4907 47.6274 15.2053 48.1074 15.728C48.598 16.24 49.2487 16.496 50.0594 16.496C50.5714 16.496 51.03 16.3787 51.4354 16.144C51.8407 15.8987 52.1607 15.5573 52.3954 15.12C52.63 14.6827 52.7474 14.1707 52.7474 13.584C52.7474 13.008 52.63 12.5013 52.3954 12.064C52.1607 11.616 51.8407 11.2747 51.4354 11.04C51.03 10.7947 50.5714 10.672 50.0594 10.672ZM61.8163 9.072C62.5843 9.072 63.2669 9.25333 63.8643 9.616C64.4723 9.97867 64.9469 10.5013 65.2883 11.184C65.6296 11.8667 65.8003 12.6667 65.8003 13.584C65.8003 14.512 65.6296 15.3173 65.2883 16C64.9469 16.6827 64.4723 17.2053 63.8643 17.568C63.2669 17.9307 62.5843 18.112 61.8163 18.112C61.0163 18.112 60.3336 17.9147 59.7682 17.52C59.2029 17.1253 58.8083 16.6027 58.5843 15.952V18H56.7603V6.16H58.5843V11.232C58.8083 10.5813 59.2029 10.0587 59.7682 9.664C60.3336 9.26933 61.0163 9.072 61.8163 9.072ZM61.2563 10.672C60.7443 10.672 60.2856 10.7947 59.8802 11.04C59.4749 11.2747 59.1549 11.616 58.9203 12.064C58.6856 12.5013 58.5683 13.008 58.5683 13.584C58.5683 14.1707 58.6856 14.6827 58.9203 15.12C59.1549 15.5573 59.4749 15.8987 59.8802 16.144C60.2856 16.3787 60.7443 16.496 61.2563 16.496C62.0669 16.496 62.7176 16.24 63.2083 15.728C63.6989 15.2053 63.9443 14.4907 63.9443 13.584C63.9443 12.688 63.6989 11.9787 63.2083 11.456C62.7176 10.9333 62.0669 10.672 61.2563 10.672ZM71.5891 9.072C72.4425 9.072 73.2105 9.25333 73.8931 9.616C74.5758 9.97867 75.1091 10.5013 75.4931 11.184C75.8771 11.8667 76.0691 12.6667 76.0691 13.584C76.0691 14.512 75.8771 15.3173 75.4931 16C75.1091 16.6827 74.5758 17.2053 73.8931 17.568C73.2105 17.9307 72.4425 18.112 71.5891 18.112C70.7358 18.112 69.9678 17.9307 69.2851 17.568C68.6131 17.2053 68.0798 16.6827 67.6851 16C67.3011 15.3067 67.1091 14.5013 67.1091 13.584C67.1091 12.6667 67.3011 11.8667 67.6851 11.184C68.0798 10.5013 68.6131 9.97867 69.2851 9.616C69.9678 9.25333 70.7358 9.072 71.5891 9.072ZM71.5891 10.656C71.1198 10.656 70.6878 10.7627 70.2931 10.976C69.8985 11.1893 69.5785 11.52 69.3331 11.968C69.0985 12.4053 68.9811 12.944 68.9811 13.584C68.9811 14.2347 69.0985 14.7787 69.3331 15.216C69.5785 15.6533 69.8985 15.9787 70.2931 16.192C70.6878 16.4053 71.1198 16.512 71.5891 16.512C72.0585 16.512 72.4905 16.4053 72.8851 16.192C73.2798 15.9787 73.5945 15.6533 73.8291 15.216C74.0745 14.7787 74.1971 14.2347 74.1971 13.584C74.1971 12.944 74.0745 12.4053 73.8291 11.968C73.5945 11.52 73.2798 11.1893 72.8851 10.976C72.4905 10.7627 72.0585 10.656 71.5891 10.656ZM85.9508 9.184V18H84.1108V16.08C83.8868 16.7307 83.4974 17.2373 82.9428 17.6C82.3881 17.952 81.7428 18.128 81.0068 18.128C79.9828 18.128 79.1614 17.7973 78.5428 17.136C77.9241 16.4747 77.6148 15.5307 77.6148 14.304V9.184H79.4388V14.112C79.4388 14.912 79.6414 15.5307 80.0468 15.968C80.4521 16.3947 81.0068 16.608 81.7108 16.608C82.4361 16.608 83.0174 16.3733 83.4548 15.904C83.8921 15.4347 84.1108 14.752 84.1108 13.856V9.184H85.9508ZM92.5673 16.416V18H91.4473C90.5086 18 89.7939 17.776 89.3033 17.328C88.8233 16.8693 88.5833 16.112 88.5833 15.056V10.736H87.3193V9.184H88.5833V6.992H90.4233V9.184H92.5513V10.736H90.4233V15.088C90.4233 15.5893 90.5139 15.936 90.6953 16.128C90.8873 16.32 91.2179 16.416 91.6873 16.416H92.5673ZM106.154 9.184V18H104.314V16.08C104.09 16.7307 103.701 17.2373 103.146 17.6C102.591 17.952 101.946 18.128 101.21 18.128C100.186 18.128 99.3645 17.7973 98.7459 17.136C98.1272 16.4747 97.8179 15.5307 97.8179 14.304V9.184H99.6419V14.112C99.6419 14.912 99.8445 15.5307 100.25 15.968C100.655 16.3947 101.21 16.608 101.914 16.608C102.639 16.608 103.221 16.3733 103.658 15.904C104.095 15.4347 104.314 14.752 104.314 13.856V9.184H106.154ZM111.234 9.072C112.269 9.072 113.096 9.33867 113.714 9.872C114.344 10.3947 114.728 11.0987 114.866 11.984H113.138C113.064 11.504 112.856 11.12 112.514 10.832C112.184 10.5333 111.741 10.384 111.186 10.384C110.728 10.384 110.37 10.496 110.114 10.72C109.869 10.9333 109.746 11.2267 109.746 11.6C109.746 11.8773 109.837 12.1013 110.018 12.272C110.2 12.4427 110.424 12.576 110.69 12.672C110.968 12.768 111.357 12.8747 111.858 12.992C112.52 13.1413 113.053 13.296 113.458 13.456C113.874 13.616 114.226 13.872 114.514 14.224C114.813 14.5653 114.962 15.0347 114.962 15.632C114.962 16.368 114.68 16.9653 114.114 17.424C113.56 17.8827 112.808 18.112 111.858 18.112C110.76 18.112 109.869 17.856 109.186 17.344C108.514 16.832 108.109 16.1173 107.97 15.2H109.746C109.8 15.68 110.013 16.0693 110.386 16.368C110.76 16.6667 111.25 16.816 111.858 16.816C112.296 16.816 112.637 16.704 112.882 16.48C113.138 16.2453 113.266 15.952 113.266 15.6C113.266 15.2907 113.17 15.0453 112.978 14.864C112.786 14.6827 112.546 14.544 112.258 14.448C111.97 14.3413 111.576 14.2347 111.074 14.128C110.434 13.9787 109.912 13.8293 109.506 13.68C109.112 13.5307 108.77 13.2907 108.482 12.96C108.205 12.6187 108.066 12.16 108.066 11.584C108.066 10.8373 108.344 10.2347 108.898 9.776C109.464 9.30667 110.242 9.072 111.234 9.072Z" fill="#444CFC"/>
<path d="M156.354 13.3536C156.549 13.1583 156.549 12.8417 156.354 12.6464L153.172 9.46447C152.976 9.26921 152.66 9.26921 152.464 9.46447C152.269 9.65973 152.269 9.97631 152.464 10.1716L155.293 13L152.464 15.8284C152.269 16.0237 152.269 16.3403 152.464 16.5355C152.66 16.7308 152.976 16.7308 153.172 16.5355L156.354 13.3536ZM132 13.5L156 13.5L156 12.5L132 12.5L132 13.5Z" fill="black"/>
</svg>
