<svg width="777" height="310" viewBox="0 0 777 310" fill="none" xmlns="http://www.w3.org/2000/svg">
<rect y="246" width="214" height="64" fill="url(#paint0_linear_1_2045)"/>
<path opacity="0.87" d="M40.528 280.992C40.528 281.547 40.3947 282.064 40.128 282.544C39.8613 283.013 39.456 283.392 38.912 283.68C38.368 283.968 37.7013 284.112 36.912 284.112C36.144 284.112 35.456 283.979 34.848 283.712C34.24 283.435 33.7547 283.051 33.392 282.56C33.0293 282.069 32.8213 281.504 32.768 280.864H34.72C34.7733 281.355 34.9813 281.776 35.344 282.128C35.7173 282.48 36.2133 282.656 36.832 282.656C37.3867 282.656 37.8133 282.507 38.112 282.208C38.4213 281.909 38.576 281.525 38.576 281.056C38.576 280.651 38.464 280.32 38.24 280.064C38.016 279.797 37.7387 279.589 37.408 279.44C37.0773 279.291 36.624 279.12 36.048 278.928C35.344 278.704 34.768 278.48 34.32 278.256C33.8827 278.032 33.5093 277.707 33.2 277.28C32.8907 276.853 32.736 276.293 32.736 275.6C32.736 274.992 32.8853 274.459 33.184 274C33.4827 273.541 33.9093 273.189 34.464 272.944C35.0187 272.688 35.6587 272.56 36.384 272.56C37.536 272.56 38.448 272.837 39.12 273.392C39.8027 273.947 40.192 274.672 40.288 275.568H38.32C38.2453 275.141 38.0427 274.779 37.712 274.48C37.392 274.171 36.9493 274.016 36.384 274.016C35.872 274.016 35.4613 274.149 35.152 274.416C34.8427 274.672 34.688 275.045 34.688 275.536C34.688 275.92 34.7947 276.24 35.008 276.496C35.2213 276.741 35.488 276.939 35.808 277.088C36.1387 277.227 36.5867 277.392 37.152 277.584C37.8667 277.808 38.448 278.037 38.896 278.272C39.3547 278.496 39.7387 278.827 40.048 279.264C40.368 279.701 40.528 280.277 40.528 280.992ZM46.786 282.416V284H45.666C44.7273 284 44.0127 283.776 43.522 283.328C43.042 282.869 42.802 282.112 42.802 281.056V276.736H41.538V275.184H42.802V272.992H44.642V275.184H46.77V276.736H44.642V281.088C44.642 281.589 44.7327 281.936 44.914 282.128C45.106 282.32 45.4367 282.416 45.906 282.416H46.786ZM52.0306 275.072C52.8306 275.072 53.5133 275.269 54.0786 275.664C54.644 276.059 55.044 276.581 55.2786 277.232V275.184H57.1026V284H55.2786V281.952C55.044 282.603 54.644 283.125 54.0786 283.52C53.5133 283.915 52.8306 284.112 52.0306 284.112C51.2626 284.112 50.5746 283.931 49.9666 283.568C49.3693 283.205 48.9 282.683 48.5586 282C48.2173 281.317 48.0466 280.512 48.0466 279.584C48.0466 278.667 48.2173 277.867 48.5586 277.184C48.9 276.501 49.3693 275.979 49.9666 275.616C50.5746 275.253 51.2626 275.072 52.0306 275.072ZM52.5906 276.672C51.78 276.672 51.1293 276.933 50.6386 277.456C50.1586 277.968 49.9186 278.677 49.9186 279.584C49.9186 280.491 50.1586 281.205 50.6386 281.728C51.1293 282.24 51.78 282.496 52.5906 282.496C53.1026 282.496 53.5613 282.379 53.9666 282.144C54.372 281.899 54.692 281.557 54.9266 281.12C55.1613 280.683 55.2786 280.171 55.2786 279.584C55.2786 279.008 55.1613 278.501 54.9266 278.064C54.692 277.616 54.372 277.275 53.9666 277.04C53.5613 276.795 53.1026 276.672 52.5906 276.672ZM61.1155 276.912C61.4142 276.336 61.8408 275.883 62.3955 275.552C62.9502 275.211 63.5902 275.04 64.3155 275.04V277.024H63.7715C62.9715 277.024 62.3262 277.221 61.8355 277.616C61.3555 278 61.1155 278.64 61.1155 279.536V284H59.2915V275.184H61.1155V276.912ZM70.1141 282.416V284H68.9941C68.0555 284 67.3408 283.776 66.8501 283.328C66.3701 282.869 66.1301 282.112 66.1301 281.056V276.736H64.8661V275.184H66.1301V272.992H67.9701V275.184H70.0981V276.736H67.9701V281.088C67.9701 281.589 68.0608 281.936 68.2421 282.128C68.4341 282.32 68.7648 282.416 69.2341 282.416H70.1141ZM79.1088 275.072C79.9088 275.072 80.5914 275.269 81.1568 275.664C81.7221 276.059 82.1221 276.581 82.3568 277.232V275.184H84.1808V284H82.3568V281.952C82.1221 282.603 81.7221 283.125 81.1568 283.52C80.5914 283.915 79.9088 284.112 79.1088 284.112C78.3408 284.112 77.6528 283.931 77.0448 283.568C76.4474 283.205 75.9781 282.683 75.6368 282C75.2954 281.317 75.1248 280.512 75.1248 279.584C75.1248 278.667 75.2954 277.867 75.6368 277.184C75.9781 276.501 76.4474 275.979 77.0448 275.616C77.6528 275.253 78.3408 275.072 79.1088 275.072ZM79.6688 276.672C78.8581 276.672 78.2074 276.933 77.7168 277.456C77.2368 277.968 76.9968 278.677 76.9968 279.584C76.9968 280.491 77.2368 281.205 77.7168 281.728C78.2074 282.24 78.8581 282.496 79.6688 282.496C80.1808 282.496 80.6394 282.379 81.0448 282.144C81.4501 281.899 81.7701 281.557 82.0048 281.12C82.2394 280.683 82.3568 280.171 82.3568 279.584C82.3568 279.008 82.2394 278.501 82.0048 278.064C81.7701 277.616 81.4501 277.275 81.0448 277.04C80.6394 276.795 80.1808 276.672 79.6688 276.672ZM91.9436 279.616V284H90.1196V272.704H93.9596C95.261 272.704 96.237 273.013 96.8876 273.632C97.549 274.251 97.8796 275.099 97.8796 276.176C97.8796 277.243 97.5436 278.085 96.8716 278.704C96.1996 279.312 95.229 279.616 93.9596 279.616H91.9436ZM93.7676 278.128C95.2716 278.128 96.0236 277.477 96.0236 276.176C96.0236 275.536 95.8423 275.051 95.4796 274.72C95.1276 274.379 94.557 274.208 93.7676 274.208H91.9436V278.128H93.7676ZM101.303 276.912C101.602 276.336 102.028 275.883 102.583 275.552C103.138 275.211 103.778 275.04 104.503 275.04V277.024H103.959C103.159 277.024 102.514 277.221 102.023 277.616C101.543 278 101.303 278.64 101.303 279.536V284H99.479V275.184H101.303V276.912ZM109.902 275.072C110.755 275.072 111.523 275.253 112.206 275.616C112.888 275.979 113.422 276.501 113.806 277.184C114.19 277.867 114.382 278.667 114.382 279.584C114.382 280.512 114.19 281.317 113.806 282C113.422 282.683 112.888 283.205 112.206 283.568C111.523 283.931 110.755 284.112 109.902 284.112C109.048 284.112 108.28 283.931 107.598 283.568C106.926 283.205 106.392 282.683 105.998 282C105.614 281.307 105.422 280.501 105.422 279.584C105.422 278.667 105.614 277.867 105.998 277.184C106.392 276.501 106.926 275.979 107.598 275.616C108.28 275.253 109.048 275.072 109.902 275.072ZM109.902 276.656C109.432 276.656 109 276.763 108.606 276.976C108.211 277.189 107.891 277.52 107.646 277.968C107.411 278.405 107.294 278.944 107.294 279.584C107.294 280.235 107.411 280.779 107.646 281.216C107.891 281.653 108.211 281.979 108.606 282.192C109 282.405 109.432 282.512 109.902 282.512C110.371 282.512 110.803 282.405 111.198 282.192C111.592 281.979 111.907 281.653 112.142 281.216C112.387 280.779 112.51 280.235 112.51 279.584C112.51 278.944 112.387 278.405 112.142 277.968C111.907 277.52 111.592 277.189 111.198 276.976C110.803 276.763 110.371 276.656 109.902 276.656ZM117.127 273.664C116.775 273.664 116.487 273.568 116.263 273.376C116.05 273.184 115.943 272.933 115.943 272.624C115.943 272.315 116.05 272.059 116.263 271.856C116.487 271.653 116.775 271.552 117.127 271.552C117.479 271.552 117.762 271.653 117.975 271.856C118.189 272.059 118.295 272.315 118.295 272.624C118.295 272.933 118.189 273.184 117.975 273.376C117.762 273.568 117.479 273.664 117.127 273.664ZM114.567 286.592H115.191C115.543 286.592 115.799 286.512 115.959 286.352C116.13 286.203 116.215 285.941 116.215 285.568V275.184H118.055V285.584C118.055 287.323 117.181 288.192 115.431 288.192H114.567V286.592ZM128.421 279.168C128.421 279.467 128.4 279.728 128.357 279.952H121.573C121.605 280.859 121.856 281.531 122.325 281.968C122.794 282.405 123.376 282.624 124.069 282.624C124.677 282.624 125.189 282.469 125.605 282.16C126.032 281.851 126.293 281.44 126.389 280.928H128.341C128.224 281.547 127.978 282.096 127.605 282.576C127.232 283.056 126.746 283.435 126.149 283.712C125.552 283.979 124.885 284.112 124.149 284.112C123.296 284.112 122.538 283.931 121.877 283.568C121.226 283.205 120.714 282.683 120.341 282C119.968 281.317 119.781 280.512 119.781 279.584C119.781 278.667 119.968 277.867 120.341 277.184C120.714 276.501 121.226 275.979 121.877 275.616C122.538 275.253 123.296 275.072 124.149 275.072C125.013 275.072 125.765 275.253 126.405 275.616C127.056 275.968 127.552 276.459 127.893 277.088C128.245 277.707 128.421 278.4 128.421 279.168ZM126.581 279.12C126.602 278.544 126.501 278.064 126.277 277.68C126.064 277.285 125.765 276.997 125.381 276.816C125.008 276.624 124.597 276.528 124.149 276.528C123.434 276.528 122.837 276.747 122.357 277.184C121.877 277.621 121.616 278.267 121.573 279.12H126.581ZM134.102 275.072C135.243 275.072 136.187 275.376 136.934 275.984C137.681 276.581 138.145 277.397 138.326 278.432H136.39C136.283 277.877 136.022 277.445 135.606 277.136C135.201 276.816 134.689 276.656 134.07 276.656C133.366 276.656 132.779 276.907 132.31 277.408C131.841 277.899 131.606 278.624 131.606 279.584C131.606 280.544 131.841 281.275 132.31 281.776C132.779 282.277 133.366 282.528 134.07 282.528C134.689 282.528 135.201 282.368 135.606 282.048C136.022 281.728 136.283 281.291 136.39 280.736H138.326C138.145 281.771 137.681 282.592 136.934 283.2C136.187 283.808 135.243 284.112 134.102 284.112C133.249 284.112 132.491 283.931 131.83 283.568C131.179 283.205 130.667 282.683 130.294 282C129.921 281.317 129.734 280.512 129.734 279.584C129.734 278.667 129.921 277.867 130.294 277.184C130.667 276.501 131.179 275.979 131.83 275.616C132.491 275.253 133.249 275.072 134.102 275.072ZM144.52 282.416V284H143.4C142.462 284 141.747 283.776 141.256 283.328C140.776 282.869 140.536 282.112 140.536 281.056V276.736H139.272V275.184H140.536V272.992H142.376V275.184H144.504V276.736H142.376V281.088C142.376 281.589 142.467 281.936 142.648 282.128C142.84 282.32 143.171 282.416 143.64 282.416H144.52Z" fill="white"/>
<path d="M182.707 278.707C183.098 278.317 183.098 277.683 182.707 277.293L176.343 270.929C175.953 270.538 175.319 270.538 174.929 270.929C174.538 271.319 174.538 271.953 174.929 272.343L180.586 278L174.929 283.657C174.538 284.047 174.538 284.681 174.929 285.071C175.319 285.462 175.953 285.462 176.343 285.071L182.707 278.707ZM162 279H182V277H162V279Z" fill="white"/>
<path d="M0 257V246H29V257H0Z" fill="#666DFF"/>
<path d="M0 273V265H8V273H0Z" fill="#666DFF"/>
<path d="M0 265V246H19V265H0Z" fill="#FFA155"/>
<path d="M8 257V246H19V257H8Z" fill="#FFD3AF"/>
<path d="M47.52 44.112L39.216 78H30.864L24.528 53.424L18.144 78H9.84L1.536 44.112H8.88L14.064 70.368L20.784 44.112H28.224L34.992 70.368L40.176 44.112H47.52ZM77.1581 63.696C77.1581 64.368 77.0781 65.136 76.9181 66H57.4301C57.5261 68.368 58.1661 70.112 59.3501 71.232C60.5341 72.352 62.0061 72.912 63.7661 72.912C65.3341 72.912 66.6301 72.528 67.6541 71.76C68.7101 70.992 69.3821 69.952 69.6701 68.64H76.8221C76.4701 70.496 75.7181 72.16 74.5661 73.632C73.4141 75.104 71.9261 76.256 70.1021 77.088C68.3101 77.92 66.3101 78.336 64.1021 78.336C61.5101 78.336 59.2061 77.792 57.1901 76.704C55.1741 75.584 53.6061 74 52.4861 71.952C51.3661 69.904 50.8061 67.488 50.8061 64.704C50.8061 61.92 51.3661 59.504 52.4861 57.456C53.6061 55.376 55.1741 53.792 57.1901 52.704C59.2061 51.616 61.5101 51.072 64.1021 51.072C66.7261 51.072 69.0141 51.616 70.9661 52.704C72.9501 53.792 74.4701 55.296 75.5261 57.216C76.6141 59.104 77.1581 61.264 77.1581 63.696ZM70.3421 63.024C70.4381 60.848 69.8621 59.2 68.6141 58.08C67.3981 56.96 65.8941 56.4 64.1021 56.4C62.2781 56.4 60.7421 56.96 59.4941 58.08C58.2461 59.2 57.5581 60.848 57.4301 63.024H70.3421ZM108.304 51.072C110.544 51.072 112.56 51.616 114.352 52.704C116.144 53.792 117.536 55.376 118.528 57.456C119.552 59.504 120.064 61.92 120.064 64.704C120.064 67.488 119.552 69.92 118.528 72C117.536 74.048 116.144 75.616 114.352 76.704C112.56 77.792 110.544 78.336 108.304 78.336C106.064 78.336 104.144 77.808 102.544 76.752C100.976 75.664 99.8558 74.224 99.1838 72.432V78H92.4158V42.48H99.1838V56.928C99.8558 55.136 100.976 53.712 102.544 52.656C104.144 51.6 106.064 51.072 108.304 51.072ZM106.192 56.976C104.144 56.976 102.448 57.68 101.104 59.088C99.7918 60.464 99.1358 62.336 99.1358 64.704C99.1358 67.04 99.7918 68.912 101.104 70.32C102.448 71.696 104.144 72.384 106.192 72.384C108.304 72.384 110 71.712 111.28 70.368C112.56 68.992 113.2 67.104 113.2 64.704C113.2 62.304 112.56 60.416 111.28 59.04C110 57.664 108.304 56.976 106.192 56.976ZM150.293 51.408V78H143.525V72.624C142.821 74.416 141.653 75.824 140.021 76.848C138.421 77.84 136.565 78.336 134.453 78.336C131.381 78.336 128.933 77.328 127.109 75.312C125.285 73.296 124.373 70.48 124.373 66.864V51.408H131.093V66.096C131.093 68.208 131.637 69.856 132.725 71.04C133.813 72.192 135.285 72.768 137.141 72.768C139.093 72.768 140.645 72.144 141.797 70.896C142.949 69.648 143.525 67.856 143.525 65.52V51.408H150.293ZM155.679 43.776C155.679 42.688 156.063 41.808 156.831 41.136C157.599 40.432 158.607 40.08 159.855 40.08C161.103 40.08 162.111 40.432 162.879 41.136C163.647 41.808 164.031 42.688 164.031 43.776C164.031 44.832 163.647 45.712 162.879 46.416C162.111 47.088 161.103 47.424 159.855 47.424C158.607 47.424 157.599 47.088 156.831 46.416C156.063 45.712 155.679 44.832 155.679 43.776ZM163.215 51.408V78H156.447V51.408H163.215ZM176.106 42.48V78H169.338V42.48H176.106ZM192.644 51.072C194.884 51.072 196.788 51.6 198.356 52.656C199.956 53.712 201.108 55.136 201.812 56.928V42.48H208.532V78H201.812V72.432C201.108 74.224 199.956 75.664 198.356 76.752C196.788 77.808 194.884 78.336 192.644 78.336C190.404 78.336 188.388 77.792 186.596 76.704C184.804 75.616 183.396 74.048 182.372 72C181.38 69.92 180.884 67.488 180.884 64.704C180.884 61.92 181.38 59.504 182.372 57.456C183.396 55.376 184.804 53.792 186.596 52.704C188.388 51.616 190.404 51.072 192.644 51.072ZM194.756 56.976C192.644 56.976 190.948 57.664 189.668 59.04C188.388 60.416 187.748 62.304 187.748 64.704C187.748 67.104 188.388 68.992 189.668 70.368C190.948 71.712 192.644 72.384 194.756 72.384C196.804 72.384 198.484 71.696 199.796 70.32C201.14 68.912 201.812 67.04 201.812 64.704C201.812 62.336 201.14 60.464 199.796 59.088C198.484 57.68 196.804 56.976 194.756 56.976ZM234.287 51.072C237.519 51.072 240.111 51.888 242.063 53.52C244.015 55.152 245.231 57.328 245.711 60.048H239.375C239.119 58.768 238.543 57.744 237.647 56.976C236.751 56.208 235.583 55.824 234.143 55.824C232.991 55.824 232.095 56.096 231.455 56.64C230.815 57.184 230.495 57.92 230.495 58.848C230.495 59.584 230.751 60.176 231.263 60.624C231.775 61.072 232.415 61.424 233.183 61.68C233.951 61.936 235.055 62.24 236.495 62.592C238.511 63.04 240.143 63.52 241.391 64.032C242.671 64.512 243.759 65.296 244.655 66.384C245.583 67.44 246.047 68.88 246.047 70.704C246.047 72.976 245.151 74.816 243.359 76.224C241.599 77.632 239.215 78.336 236.207 78.336C232.751 78.336 229.983 77.568 227.903 76.032C225.823 74.464 224.559 72.24 224.111 69.36H230.591C230.751 70.672 231.327 71.712 232.319 72.48C233.311 73.216 234.607 73.584 236.207 73.584C237.359 73.584 238.239 73.312 238.847 72.768C239.455 72.192 239.759 71.456 239.759 70.56C239.759 69.792 239.487 69.168 238.943 68.688C238.431 68.208 237.775 67.84 236.975 67.584C236.207 67.328 235.103 67.024 233.663 66.672C231.679 66.224 230.063 65.776 228.815 65.328C227.599 64.848 226.543 64.096 225.647 63.072C224.783 62.048 224.351 60.64 224.351 58.848C224.351 56.544 225.231 54.672 226.991 53.232C228.751 51.792 231.183 51.072 234.287 51.072ZM263.376 51.072C265.968 51.072 268.288 51.616 270.336 52.704C272.416 53.792 274.048 55.376 275.232 57.456C276.416 59.504 277.008 61.92 277.008 64.704C277.008 67.488 276.416 69.904 275.232 71.952C274.048 74 272.416 75.584 270.336 76.704C268.288 77.792 265.968 78.336 263.376 78.336C260.784 78.336 258.448 77.792 256.368 76.704C254.32 75.584 252.704 74 251.52 71.952C250.336 69.904 249.744 67.488 249.744 64.704C249.744 61.92 250.336 59.504 251.52 57.456C252.704 55.376 254.32 53.792 256.368 52.704C258.448 51.616 260.784 51.072 263.376 51.072ZM263.376 56.928C261.488 56.928 259.888 57.6 258.576 58.944C257.264 60.256 256.608 62.176 256.608 64.704C256.608 67.232 257.264 69.168 258.576 70.512C259.888 71.824 261.488 72.48 263.376 72.48C265.264 72.48 266.864 71.824 268.176 70.512C269.488 69.168 270.144 67.232 270.144 64.704C270.144 62.176 269.488 60.256 268.176 58.944C266.864 57.6 265.264 56.928 263.376 56.928ZM294.943 46.8C292.959 46.672 291.567 46.96 290.767 47.664C289.967 48.368 289.567 49.6 289.567 51.36V51.408H294.943V57.12H289.567V78H282.799V57.12H279.391V51.408H282.799V50.784C282.799 47.616 283.695 45.184 285.487 43.488C287.311 41.76 289.999 40.896 293.551 40.896C294.159 40.896 294.623 40.912 294.943 40.944V46.8ZM313.202 72.192V78H309.65C306.674 78 304.386 77.28 302.786 75.84C301.218 74.4 300.434 72 300.434 68.64V57.12H296.738V51.408H300.434V44.832H307.202V51.408H313.154V57.12H307.202V68.736C307.202 70.016 307.458 70.912 307.97 71.424C308.482 71.936 309.346 72.192 310.562 72.192H313.202ZM356.136 51.408L348.984 78H341.496L335.784 58.656L329.928 78H322.44L315.336 51.408H322.104L326.424 71.952L332.328 51.408H339.48L345.432 71.952L349.8 51.408H356.136ZM369.926 51.072C372.166 51.072 374.086 51.6 375.686 52.656C377.286 53.712 378.422 55.136 379.094 56.928V51.408H385.814V78H379.094V72.432C378.422 74.224 377.286 75.664 375.686 76.752C374.086 77.808 372.166 78.336 369.926 78.336C367.686 78.336 365.67 77.792 363.878 76.704C362.086 75.616 360.678 74.048 359.654 72C358.662 69.92 358.166 67.488 358.166 64.704C358.166 61.92 358.662 59.504 359.654 57.456C360.678 55.376 362.086 53.792 363.878 52.704C365.67 51.616 367.686 51.072 369.926 51.072ZM372.038 56.976C369.926 56.976 368.23 57.664 366.95 59.04C365.67 60.416 365.03 62.304 365.03 64.704C365.03 67.104 365.67 68.992 366.95 70.368C368.23 71.712 369.926 72.384 372.038 72.384C374.086 72.384 375.766 71.696 377.078 70.32C378.422 68.912 379.094 67.04 379.094 64.704C379.094 62.336 378.422 60.464 377.078 59.088C375.766 57.68 374.086 56.976 372.038 56.976ZM398.715 56.496C399.707 54.8 401.019 53.472 402.651 52.512C404.283 51.52 406.107 51.024 408.123 51.024V58.272H406.155C401.195 58.272 398.715 60.576 398.715 65.184V78H391.947V51.408H398.715V56.496ZM436.877 63.696C436.877 64.368 436.797 65.136 436.637 66H417.149C417.245 68.368 417.885 70.112 419.069 71.232C420.253 72.352 421.725 72.912 423.485 72.912C425.053 72.912 426.349 72.528 427.373 71.76C428.429 70.992 429.101 69.952 429.389 68.64H436.541C436.189 70.496 435.437 72.16 434.285 73.632C433.133 75.104 431.645 76.256 429.821 77.088C428.029 77.92 426.029 78.336 423.821 78.336C421.229 78.336 418.925 77.792 416.909 76.704C414.893 75.584 413.325 74 412.205 71.952C411.085 69.904 410.525 67.488 410.525 64.704C410.525 61.92 411.085 59.504 412.205 57.456C413.325 55.376 414.893 53.792 416.909 52.704C418.925 51.616 421.229 51.072 423.821 51.072C426.445 51.072 428.733 51.616 430.685 52.704C432.669 53.792 434.189 55.296 435.245 57.216C436.333 59.104 436.877 61.264 436.877 63.696ZM430.061 63.024C430.157 60.848 429.581 59.2 428.333 58.08C427.117 56.96 425.613 56.4 423.821 56.4C421.997 56.4 420.461 56.96 419.213 58.08C417.965 59.2 417.277 60.848 417.149 63.024H430.061ZM461.303 51.072C464.535 51.072 467.127 51.888 469.079 53.52C471.031 55.152 472.247 57.328 472.727 60.048H466.391C466.135 58.768 465.559 57.744 464.663 56.976C463.767 56.208 462.599 55.824 461.159 55.824C460.007 55.824 459.111 56.096 458.471 56.64C457.831 57.184 457.511 57.92 457.511 58.848C457.511 59.584 457.767 60.176 458.279 60.624C458.791 61.072 459.431 61.424 460.199 61.68C460.967 61.936 462.071 62.24 463.511 62.592C465.527 63.04 467.159 63.52 468.407 64.032C469.687 64.512 470.775 65.296 471.671 66.384C472.599 67.44 473.062 68.88 473.062 70.704C473.062 72.976 472.167 74.816 470.375 76.224C468.615 77.632 466.231 78.336 463.223 78.336C459.767 78.336 456.999 77.568 454.919 76.032C452.839 74.464 451.575 72.24 451.127 69.36H457.607C457.767 70.672 458.343 71.712 459.335 72.48C460.327 73.216 461.623 73.584 463.223 73.584C464.375 73.584 465.255 73.312 465.863 72.768C466.471 72.192 466.775 71.456 466.775 70.56C466.775 69.792 466.503 69.168 465.959 68.688C465.447 68.208 464.791 67.84 463.991 67.584C463.223 67.328 462.119 67.024 460.679 66.672C458.695 66.224 457.079 65.776 455.831 65.328C454.615 64.848 453.559 64.096 452.663 63.072C451.799 62.048 451.367 60.64 451.367 58.848C451.367 56.544 452.247 54.672 454.007 53.232C455.767 51.792 458.199 51.072 461.303 51.072ZM490.391 51.072C492.983 51.072 495.303 51.616 497.351 52.704C499.431 53.792 501.063 55.376 502.247 57.456C503.431 59.504 504.023 61.92 504.023 64.704C504.023 67.488 503.431 69.904 502.247 71.952C501.063 74 499.431 75.584 497.351 76.704C495.303 77.792 492.983 78.336 490.391 78.336C487.799 78.336 485.463 77.792 483.383 76.704C481.335 75.584 479.719 74 478.535 71.952C477.351 69.904 476.759 67.488 476.759 64.704C476.759 61.92 477.351 59.504 478.535 57.456C479.719 55.376 481.335 53.792 483.383 52.704C485.463 51.616 487.799 51.072 490.391 51.072ZM490.391 56.928C488.503 56.928 486.903 57.6 485.591 58.944C484.279 60.256 483.623 62.176 483.623 64.704C483.623 67.232 484.279 69.168 485.591 70.512C486.903 71.824 488.503 72.48 490.391 72.48C492.279 72.48 493.879 71.824 495.191 70.512C496.503 69.168 497.159 67.232 497.159 64.704C497.159 62.176 496.503 60.256 495.191 58.944C493.879 57.6 492.279 56.928 490.391 56.928ZM515.574 42.48V78H508.806V42.48H515.574ZM547.137 51.408V78H540.369V72.624C539.665 74.416 538.497 75.824 536.865 76.848C535.265 77.84 533.409 78.336 531.297 78.336C528.225 78.336 525.777 77.328 523.953 75.312C522.129 73.296 521.217 70.48 521.217 66.864V51.408H527.937V66.096C527.937 68.208 528.481 69.856 529.569 71.04C530.657 72.192 532.129 72.768 533.985 72.768C535.937 72.768 537.489 72.144 538.641 70.896C539.793 69.648 540.369 67.856 540.369 65.52V51.408H547.137ZM567.499 72.192V78H563.947C560.971 78 558.683 77.28 557.083 75.84C555.515 74.4 554.731 72 554.731 68.64V57.12H551.035V51.408H554.731V44.832H561.499V51.408H567.451V57.12H561.499V68.736C561.499 70.016 561.755 70.912 562.267 71.424C562.779 71.936 563.643 72.192 564.859 72.192H567.499ZM571.601 43.776C571.601 42.688 571.985 41.808 572.753 41.136C573.521 40.432 574.529 40.08 575.777 40.08C577.025 40.08 578.033 40.432 578.801 41.136C579.569 41.808 579.953 42.688 579.953 43.776C579.953 44.832 579.569 45.712 578.801 46.416C578.033 47.088 577.025 47.424 575.777 47.424C574.529 47.424 573.521 47.088 572.753 46.416C571.985 45.712 571.601 44.832 571.601 43.776ZM579.137 51.408V78H572.369V51.408H579.137ZM597.548 51.072C600.14 51.072 602.46 51.616 604.508 52.704C606.588 53.792 608.22 55.376 609.404 57.456C610.588 59.504 611.18 61.92 611.18 64.704C611.18 67.488 610.588 69.904 609.404 71.952C608.22 74 606.588 75.584 604.508 76.704C602.46 77.792 600.14 78.336 597.548 78.336C594.956 78.336 592.62 77.792 590.54 76.704C588.492 75.584 586.876 74 585.692 71.952C584.508 69.904 583.916 67.488 583.916 64.704C583.916 61.92 584.508 59.504 585.692 57.456C586.876 55.376 588.492 53.792 590.54 52.704C592.62 51.616 594.956 51.072 597.548 51.072ZM597.548 56.928C595.66 56.928 594.06 57.6 592.748 58.944C591.436 60.256 590.78 62.176 590.78 64.704C590.78 67.232 591.436 69.168 592.748 70.512C594.06 71.824 595.66 72.48 597.548 72.48C599.436 72.48 601.036 71.824 602.348 70.512C603.66 69.168 604.316 67.232 604.316 64.704C604.316 62.176 603.66 60.256 602.348 58.944C601.036 57.6 599.436 56.928 597.548 56.928ZM631.803 51.024C634.875 51.024 637.323 52.032 639.147 54.048C640.971 56.064 641.883 58.896 641.883 62.544V78H635.163V63.312C635.163 61.2 634.619 59.568 633.531 58.416C632.443 57.232 630.955 56.64 629.067 56.64C627.147 56.64 625.611 57.264 624.459 58.512C623.307 59.76 622.731 61.552 622.731 63.888V78H615.963V51.408H622.731V56.736C623.435 54.944 624.587 53.552 626.187 52.56C627.819 51.536 629.691 51.024 631.803 51.024ZM657.006 51.072C660.238 51.072 662.83 51.888 664.782 53.52C666.734 55.152 667.95 57.328 668.43 60.048H662.094C661.838 58.768 661.262 57.744 660.366 56.976C659.47 56.208 658.302 55.824 656.862 55.824C655.71 55.824 654.814 56.096 654.174 56.64C653.534 57.184 653.214 57.92 653.214 58.848C653.214 59.584 653.47 60.176 653.982 60.624C654.494 61.072 655.134 61.424 655.902 61.68C656.67 61.936 657.774 62.24 659.214 62.592C661.23 63.04 662.862 63.52 664.11 64.032C665.39 64.512 666.478 65.296 667.374 66.384C668.302 67.44 668.766 68.88 668.766 70.704C668.766 72.976 667.87 74.816 666.078 76.224C664.318 77.632 661.934 78.336 658.926 78.336C655.47 78.336 652.702 77.568 650.622 76.032C648.542 74.464 647.278 72.24 646.83 69.36H653.31C653.47 70.672 654.046 71.712 655.038 72.48C656.03 73.216 657.326 73.584 658.926 73.584C660.078 73.584 660.958 73.312 661.566 72.768C662.174 72.192 662.478 71.456 662.478 70.56C662.478 69.792 662.206 69.168 661.662 68.688C661.15 68.208 660.494 67.84 659.694 67.584C658.926 67.328 657.822 67.024 656.382 66.672C654.398 66.224 652.782 65.776 651.534 65.328C650.318 64.848 649.262 64.096 648.366 63.072C647.502 62.048 647.07 60.64 647.07 58.848C647.07 56.544 647.95 54.672 649.71 53.232C651.47 51.792 653.902 51.072 657.006 51.072ZM17.28 130.192V136H13.728C10.752 136 8.464 135.28 6.864 133.84C5.296 132.4 4.512 130 4.512 126.64V115.12H0.816V109.408H4.512V102.832H11.28V109.408H17.232V115.12H11.28V126.736C11.28 128.016 11.536 128.912 12.048 129.424C12.56 129.936 13.424 130.192 14.64 130.192H17.28ZM37.9901 109.024C41.0621 109.024 43.5101 110.032 45.3341 112.048C47.1581 114.064 48.0701 116.896 48.0701 120.544V136H41.3501V121.312C41.3501 119.2 40.8061 117.568 39.7181 116.416C38.6301 115.232 37.1421 114.64 35.2541 114.64C33.3341 114.64 31.7981 115.264 30.6461 116.512C29.4941 117.76 28.9181 119.552 28.9181 121.888V136H22.1501V100.48H28.9181V114.736C29.6221 112.944 30.7741 111.552 32.3741 110.56C34.0061 109.536 35.8781 109.024 37.9901 109.024ZM64.4411 109.072C66.6811 109.072 68.6011 109.6 70.2011 110.656C71.8011 111.712 72.9371 113.136 73.6091 114.928V109.408H80.3291V136H73.6091V130.432C72.9371 132.224 71.8011 133.664 70.2011 134.752C68.6011 135.808 66.6811 136.336 64.4411 136.336C62.2011 136.336 60.1851 135.792 58.3931 134.704C56.6011 133.616 55.1931 132.048 54.1691 130C53.1771 127.92 52.6811 125.488 52.6811 122.704C52.6811 119.92 53.1771 117.504 54.1691 115.456C55.1931 113.376 56.6011 111.792 58.3931 110.704C60.1851 109.616 62.2011 109.072 64.4411 109.072ZM66.5531 114.976C64.4411 114.976 62.7451 115.664 61.4651 117.04C60.1851 118.416 59.5451 120.304 59.5451 122.704C59.5451 125.104 60.1851 126.992 61.4651 128.368C62.7451 129.712 64.4411 130.384 66.5531 130.384C68.6011 130.384 70.2811 129.696 71.5931 128.32C72.9371 126.912 73.6091 125.04 73.6091 122.704C73.6091 120.336 72.9371 118.464 71.5931 117.088C70.2811 115.68 68.6011 114.976 66.5531 114.976ZM100.671 130.192V136H97.1186C94.1426 136 91.8546 135.28 90.2546 133.84C88.6866 132.4 87.9026 130 87.9026 126.64V115.12H84.2066V109.408H87.9026V102.832H94.6706V109.408H100.623V115.12H94.6706V126.736C94.6706 128.016 94.9266 128.912 95.4386 129.424C95.9506 129.936 96.8146 130.192 98.0306 130.192H100.671ZM125.162 109.072C128.394 109.072 130.986 109.888 132.938 111.52C134.89 113.152 136.106 115.328 136.586 118.048H130.25C129.994 116.768 129.418 115.744 128.522 114.976C127.626 114.208 126.458 113.824 125.018 113.824C123.866 113.824 122.97 114.096 122.33 114.64C121.69 115.184 121.37 115.92 121.37 116.848C121.37 117.584 121.626 118.176 122.138 118.624C122.65 119.072 123.29 119.424 124.058 119.68C124.826 119.936 125.93 120.24 127.37 120.592C129.386 121.04 131.018 121.52 132.266 122.032C133.546 122.512 134.634 123.296 135.53 124.384C136.458 125.44 136.922 126.88 136.922 128.704C136.922 130.976 136.026 132.816 134.234 134.224C132.474 135.632 130.09 136.336 127.082 136.336C123.626 136.336 120.858 135.568 118.778 134.032C116.698 132.464 115.434 130.24 114.986 127.36H121.466C121.626 128.672 122.202 129.712 123.194 130.48C124.186 131.216 125.482 131.584 127.082 131.584C128.234 131.584 129.114 131.312 129.722 130.768C130.33 130.192 130.634 129.456 130.634 128.56C130.634 127.792 130.362 127.168 129.818 126.688C129.306 126.208 128.65 125.84 127.85 125.584C127.082 125.328 125.978 125.024 124.538 124.672C122.554 124.224 120.938 123.776 119.69 123.328C118.474 122.848 117.418 122.096 116.522 121.072C115.658 120.048 115.226 118.64 115.226 116.848C115.226 114.544 116.106 112.672 117.866 111.232C119.626 109.792 122.058 109.072 125.162 109.072ZM154.251 109.072C156.843 109.072 159.163 109.616 161.211 110.704C163.291 111.792 164.923 113.376 166.107 115.456C167.291 117.504 167.883 119.92 167.883 122.704C167.883 125.488 167.291 127.904 166.107 129.952C164.923 132 163.291 133.584 161.211 134.704C159.163 135.792 156.843 136.336 154.251 136.336C151.659 136.336 149.323 135.792 147.243 134.704C145.195 133.584 143.579 132 142.395 129.952C141.211 127.904 140.619 125.488 140.619 122.704C140.619 119.92 141.211 117.504 142.395 115.456C143.579 113.376 145.195 111.792 147.243 110.704C149.323 109.616 151.659 109.072 154.251 109.072ZM154.251 114.928C152.363 114.928 150.763 115.6 149.451 116.944C148.139 118.256 147.483 120.176 147.483 122.704C147.483 125.232 148.139 127.168 149.451 128.512C150.763 129.824 152.363 130.48 154.251 130.48C156.139 130.48 157.739 129.824 159.051 128.512C160.363 127.168 161.019 125.232 161.019 122.704C161.019 120.176 160.363 118.256 159.051 116.944C157.739 115.6 156.139 114.928 154.251 114.928ZM179.434 100.48V136H172.666V100.48H179.434ZM197.124 129.232L203.844 109.408H211.044L201.204 136H192.948L183.108 109.408H190.356L197.124 129.232ZM239.814 121.696C239.814 122.368 239.734 123.136 239.574 124H220.086C220.182 126.368 220.822 128.112 222.006 129.232C223.19 130.352 224.662 130.912 226.422 130.912C227.99 130.912 229.286 130.528 230.31 129.76C231.366 128.992 232.038 127.952 232.326 126.64H239.478C239.126 128.496 238.374 130.16 237.222 131.632C236.07 133.104 234.582 134.256 232.758 135.088C230.966 135.92 228.966 136.336 226.758 136.336C224.166 136.336 221.862 135.792 219.846 134.704C217.83 133.584 216.262 132 215.142 129.952C214.022 127.904 213.462 125.488 213.462 122.704C213.462 119.92 214.022 117.504 215.142 115.456C216.262 113.376 217.83 111.792 219.846 110.704C221.862 109.616 224.166 109.072 226.758 109.072C229.382 109.072 231.67 109.616 233.622 110.704C235.606 111.792 237.126 113.296 238.182 115.216C239.27 117.104 239.814 119.264 239.814 121.696ZM232.998 121.024C233.094 118.848 232.518 117.2 231.27 116.08C230.054 114.96 228.55 114.4 226.758 114.4C224.934 114.4 223.398 114.96 222.15 116.08C220.902 117.2 220.214 118.848 220.086 121.024H232.998ZM267.024 109.072C270.448 109.072 273.296 110 275.568 111.856C277.872 113.712 279.312 116.24 279.888 119.44H272.736C272.448 118.032 271.792 116.928 270.768 116.128C269.744 115.296 268.448 114.88 266.88 114.88C265.088 114.88 263.584 115.552 262.368 116.896C261.184 118.208 260.592 120.144 260.592 122.704C260.592 125.264 261.184 127.216 262.368 128.56C263.584 129.872 265.088 130.528 266.88 130.528C268.448 130.528 269.744 130.128 270.768 129.328C271.792 128.496 272.448 127.376 272.736 125.968H279.888C279.312 129.168 277.872 131.696 275.568 133.552C273.296 135.408 270.448 136.336 267.024 136.336C264.432 136.336 262.128 135.792 260.112 134.704C258.096 133.584 256.528 132 255.408 129.952C254.288 127.904 253.728 125.488 253.728 122.704C253.728 119.92 254.288 117.504 255.408 115.456C256.528 113.376 258.096 111.792 260.112 110.704C262.128 109.616 264.432 109.072 267.024 109.072ZM291.465 100.48V136H284.697V100.48H291.465ZM296.82 101.776C296.82 100.688 297.204 99.808 297.972 99.136C298.74 98.432 299.748 98.08 300.996 98.08C302.244 98.08 303.252 98.432 304.02 99.136C304.788 99.808 305.172 100.688 305.172 101.776C305.172 102.832 304.788 103.712 304.02 104.416C303.252 105.088 302.244 105.424 300.996 105.424C299.748 105.424 298.74 105.088 297.972 104.416C297.204 103.712 296.82 102.832 296.82 101.776ZM304.356 109.408V136H297.588V109.408H304.356ZM335.486 121.696C335.486 122.368 335.406 123.136 335.246 124H315.758C315.854 126.368 316.494 128.112 317.678 129.232C318.862 130.352 320.334 130.912 322.094 130.912C323.662 130.912 324.958 130.528 325.982 129.76C327.038 128.992 327.71 127.952 327.998 126.64H335.15C334.798 128.496 334.046 130.16 332.894 131.632C331.742 133.104 330.254 134.256 328.43 135.088C326.638 135.92 324.638 136.336 322.43 136.336C319.838 136.336 317.534 135.792 315.518 134.704C313.502 133.584 311.934 132 310.814 129.952C309.694 127.904 309.134 125.488 309.134 122.704C309.134 119.92 309.694 117.504 310.814 115.456C311.934 113.376 313.502 111.792 315.518 110.704C317.534 109.616 319.838 109.072 322.43 109.072C325.054 109.072 327.342 109.616 329.294 110.704C331.278 111.792 332.798 113.296 333.854 115.216C334.942 117.104 335.486 119.264 335.486 121.696ZM328.67 121.024C328.766 118.848 328.19 117.2 326.942 116.08C325.726 114.96 324.222 114.4 322.43 114.4C320.606 114.4 319.07 114.96 317.822 116.08C316.574 117.2 315.886 118.848 315.758 121.024H328.67ZM356.131 109.024C359.203 109.024 361.651 110.032 363.475 112.048C365.299 114.064 366.211 116.896 366.211 120.544V136H359.491V121.312C359.491 119.2 358.947 117.568 357.859 116.416C356.771 115.232 355.283 114.64 353.395 114.64C351.475 114.64 349.939 115.264 348.787 116.512C347.635 117.76 347.059 119.552 347.059 121.888V136H340.291V109.408H347.059V114.736C347.763 112.944 348.915 111.552 350.515 110.56C352.147 109.536 354.019 109.024 356.131 109.024ZM386.374 130.192V136H382.822C379.846 136 377.558 135.28 375.958 133.84C374.39 132.4 373.606 130 373.606 126.64V115.12H369.91V109.408H373.606V102.832H380.374V109.408H386.326V115.12H380.374V126.736C380.374 128.016 380.63 128.912 381.142 129.424C381.654 129.936 382.518 130.192 383.734 130.192H386.374ZM396.044 97.648L395.42 107.872H390.86L390.236 97.648H396.044ZM410.349 109.072C413.581 109.072 416.173 109.888 418.125 111.52C420.077 113.152 421.293 115.328 421.773 118.048H415.437C415.181 116.768 414.605 115.744 413.709 114.976C412.813 114.208 411.645 113.824 410.205 113.824C409.053 113.824 408.157 114.096 407.517 114.64C406.877 115.184 406.557 115.92 406.557 116.848C406.557 117.584 406.813 118.176 407.325 118.624C407.837 119.072 408.477 119.424 409.245 119.68C410.013 119.936 411.117 120.24 412.557 120.592C414.573 121.04 416.205 121.52 417.453 122.032C418.733 122.512 419.821 123.296 420.717 124.384C421.645 125.44 422.109 126.88 422.109 128.704C422.109 130.976 421.213 132.816 419.421 134.224C417.661 135.632 415.277 136.336 412.269 136.336C408.813 136.336 406.045 135.568 403.965 134.032C401.885 132.464 400.621 130.24 400.173 127.36H406.653C406.813 128.672 407.389 129.712 408.381 130.48C409.373 131.216 410.669 131.584 412.269 131.584C413.421 131.584 414.301 131.312 414.909 130.768C415.517 130.192 415.821 129.456 415.821 128.56C415.821 127.792 415.549 127.168 415.005 126.688C414.493 126.208 413.837 125.84 413.037 125.584C412.269 125.328 411.165 125.024 409.725 124.672C407.741 124.224 406.125 123.776 404.877 123.328C403.661 122.848 402.605 122.096 401.709 121.072C400.845 120.048 400.413 118.64 400.413 116.848C400.413 114.544 401.293 112.672 403.053 111.232C404.813 109.792 407.245 109.072 410.349 109.072ZM453.491 109.072C455.731 109.072 457.747 109.616 459.539 110.704C461.331 111.792 462.723 113.376 463.715 115.456C464.739 117.504 465.251 119.92 465.251 122.704C465.251 125.488 464.739 127.92 463.715 130C462.723 132.048 461.331 133.616 459.539 134.704C457.747 135.792 455.731 136.336 453.491 136.336C451.251 136.336 449.331 135.808 447.731 134.752C446.163 133.664 445.043 132.224 444.371 130.432V136H437.603V100.48H444.371V114.928C445.043 113.136 446.163 111.712 447.731 110.656C449.331 109.6 451.251 109.072 453.491 109.072ZM451.379 114.976C449.331 114.976 447.635 115.68 446.291 117.088C444.979 118.464 444.323 120.336 444.323 122.704C444.323 125.04 444.979 126.912 446.291 128.32C447.635 129.696 449.331 130.384 451.379 130.384C453.491 130.384 455.187 129.712 456.467 128.368C457.747 126.992 458.387 125.104 458.387 122.704C458.387 120.304 457.747 118.416 456.467 117.04C455.187 115.664 453.491 114.976 451.379 114.976ZM495.481 109.408V136H488.713V130.624C488.009 132.416 486.841 133.824 485.209 134.848C483.609 135.84 481.753 136.336 479.641 136.336C476.569 136.336 474.121 135.328 472.297 133.312C470.473 131.296 469.561 128.48 469.561 124.864V109.408H476.281V124.096C476.281 126.208 476.825 127.856 477.913 129.04C479.001 130.192 480.473 130.768 482.329 130.768C484.281 130.768 485.833 130.144 486.985 128.896C488.137 127.648 488.713 125.856 488.713 123.52V109.408H495.481ZM510.803 109.072C514.035 109.072 516.627 109.888 518.579 111.52C520.531 113.152 521.747 115.328 522.227 118.048H515.891C515.635 116.768 515.059 115.744 514.163 114.976C513.267 114.208 512.099 113.824 510.659 113.824C509.507 113.824 508.611 114.096 507.971 114.64C507.331 115.184 507.011 115.92 507.011 116.848C507.011 117.584 507.267 118.176 507.779 118.624C508.291 119.072 508.931 119.424 509.699 119.68C510.467 119.936 511.571 120.24 513.011 120.592C515.027 121.04 516.659 121.52 517.907 122.032C519.187 122.512 520.275 123.296 521.171 124.384C522.099 125.44 522.562 126.88 522.562 128.704C522.562 130.976 521.667 132.816 519.875 134.224C518.115 135.632 515.731 136.336 512.723 136.336C509.267 136.336 506.499 135.568 504.419 134.032C502.339 132.464 501.075 130.24 500.627 127.36H507.107C507.267 128.672 507.843 129.712 508.835 130.48C509.827 131.216 511.123 131.584 512.723 131.584C513.875 131.584 514.755 131.312 515.363 130.768C515.971 130.192 516.275 129.456 516.275 128.56C516.275 127.792 516.003 127.168 515.459 126.688C514.947 126.208 514.291 125.84 513.491 125.584C512.723 125.328 511.619 125.024 510.179 124.672C508.195 124.224 506.579 123.776 505.331 123.328C504.115 122.848 503.059 122.096 502.163 121.072C501.299 120.048 500.867 118.64 500.867 116.848C500.867 114.544 501.747 112.672 503.507 111.232C505.267 109.792 507.699 109.072 510.803 109.072ZM526.835 101.776C526.835 100.688 527.219 99.808 527.987 99.136C528.755 98.432 529.763 98.08 531.011 98.08C532.259 98.08 533.267 98.432 534.035 99.136C534.803 99.808 535.187 100.688 535.187 101.776C535.187 102.832 534.803 103.712 534.035 104.416C533.267 105.088 532.259 105.424 531.011 105.424C529.763 105.424 528.755 105.088 527.987 104.416C527.219 103.712 526.835 102.832 526.835 101.776ZM534.371 109.408V136H527.603V109.408H534.371ZM556.334 109.024C559.406 109.024 561.854 110.032 563.678 112.048C565.502 114.064 566.414 116.896 566.414 120.544V136H559.694V121.312C559.694 119.2 559.15 117.568 558.062 116.416C556.974 115.232 555.486 114.64 553.598 114.64C551.678 114.64 550.142 115.264 548.99 116.512C547.838 117.76 547.262 119.552 547.262 121.888V136H540.494V109.408H547.262V114.736C547.966 112.944 549.118 111.552 550.718 110.56C552.35 109.536 554.222 109.024 556.334 109.024ZM597.377 121.696C597.377 122.368 597.297 123.136 597.137 124H577.649C577.745 126.368 578.385 128.112 579.569 129.232C580.753 130.352 582.225 130.912 583.985 130.912C585.553 130.912 586.849 130.528 587.873 129.76C588.929 128.992 589.601 127.952 589.889 126.64H597.041C596.689 128.496 595.937 130.16 594.785 131.632C593.633 133.104 592.145 134.256 590.321 135.088C588.529 135.92 586.529 136.336 584.321 136.336C581.729 136.336 579.425 135.792 577.409 134.704C575.393 133.584 573.825 132 572.705 129.952C571.585 127.904 571.025 125.488 571.025 122.704C571.025 119.92 571.585 117.504 572.705 115.456C573.825 113.376 575.393 111.792 577.409 110.704C579.425 109.616 581.729 109.072 584.321 109.072C586.945 109.072 589.233 109.616 591.185 110.704C593.169 111.792 594.689 113.296 595.745 115.216C596.833 117.104 597.377 119.264 597.377 121.696ZM590.561 121.024C590.657 118.848 590.081 117.2 588.833 116.08C587.617 114.96 586.113 114.4 584.321 114.4C582.497 114.4 580.961 114.96 579.713 116.08C578.465 117.2 577.777 118.848 577.649 121.024H590.561ZM611.349 109.072C614.581 109.072 617.173 109.888 619.125 111.52C621.077 113.152 622.293 115.328 622.773 118.048H616.437C616.181 116.768 615.605 115.744 614.709 114.976C613.813 114.208 612.645 113.824 611.205 113.824C610.053 113.824 609.157 114.096 608.517 114.64C607.877 115.184 607.557 115.92 607.557 116.848C607.557 117.584 607.813 118.176 608.325 118.624C608.837 119.072 609.477 119.424 610.245 119.68C611.013 119.936 612.117 120.24 613.557 120.592C615.573 121.04 617.205 121.52 618.453 122.032C619.733 122.512 620.821 123.296 621.717 124.384C622.645 125.44 623.109 126.88 623.109 128.704C623.109 130.976 622.213 132.816 620.421 134.224C618.661 135.632 616.277 136.336 613.269 136.336C609.813 136.336 607.045 135.568 604.965 134.032C602.885 132.464 601.621 130.24 601.173 127.36H607.653C607.813 128.672 608.389 129.712 609.381 130.48C610.373 131.216 611.669 131.584 613.269 131.584C614.421 131.584 615.301 131.312 615.909 130.768C616.517 130.192 616.821 129.456 616.821 128.56C616.821 127.792 616.549 127.168 616.005 126.688C615.493 126.208 614.837 125.84 614.037 125.584C613.269 125.328 612.165 125.024 610.725 124.672C608.741 124.224 607.125 123.776 605.877 123.328C604.661 122.848 603.605 122.096 602.709 121.072C601.845 120.048 601.413 118.64 601.413 116.848C601.413 114.544 602.293 112.672 604.053 111.232C605.813 109.792 608.245 109.072 611.349 109.072ZM637.318 109.072C640.55 109.072 643.142 109.888 645.094 111.52C647.046 113.152 648.262 115.328 648.742 118.048H642.406C642.15 116.768 641.574 115.744 640.678 114.976C639.782 114.208 638.614 113.824 637.174 113.824C636.022 113.824 635.126 114.096 634.486 114.64C633.846 115.184 633.526 115.92 633.526 116.848C633.526 117.584 633.782 118.176 634.294 118.624C634.806 119.072 635.446 119.424 636.214 119.68C636.982 119.936 638.086 120.24 639.526 120.592C641.542 121.04 643.174 121.52 644.422 122.032C645.702 122.512 646.79 123.296 647.686 124.384C648.614 125.44 649.078 126.88 649.078 128.704C649.078 130.976 648.182 132.816 646.39 134.224C644.63 135.632 642.246 136.336 639.238 136.336C635.782 136.336 633.014 135.568 630.934 134.032C628.854 132.464 627.59 130.24 627.142 127.36H633.622C633.782 128.672 634.358 129.712 635.35 130.48C636.342 131.216 637.638 131.584 639.238 131.584C640.39 131.584 641.27 131.312 641.878 130.768C642.486 130.192 642.79 129.456 642.79 128.56C642.79 127.792 642.518 127.168 641.974 126.688C641.462 126.208 640.806 125.84 640.006 125.584C639.238 125.328 638.134 125.024 636.694 124.672C634.71 124.224 633.094 123.776 631.846 123.328C630.63 122.848 629.574 122.096 628.678 121.072C627.814 120.048 627.382 118.64 627.382 116.848C627.382 114.544 628.262 112.672 630.022 111.232C631.782 109.792 634.214 109.072 637.318 109.072ZM15.024 167.072C18.448 167.072 21.296 168 23.568 169.856C25.872 171.712 27.312 174.24 27.888 177.44H20.736C20.448 176.032 19.792 174.928 18.768 174.128C17.744 173.296 16.448 172.88 14.88 172.88C13.088 172.88 11.584 173.552 10.368 174.896C9.184 176.208 8.592 178.144 8.592 180.704C8.592 183.264 9.184 185.216 10.368 186.56C11.584 187.872 13.088 188.528 14.88 188.528C16.448 188.528 17.744 188.128 18.768 187.328C19.792 186.496 20.448 185.376 20.736 183.968H27.888C27.312 187.168 25.872 189.696 23.568 191.552C21.296 193.408 18.448 194.336 15.024 194.336C12.432 194.336 10.128 193.792 8.112 192.704C6.096 191.584 4.528 190 3.408 187.952C2.288 185.904 1.728 183.488 1.728 180.704C1.728 177.92 2.288 175.504 3.408 173.456C4.528 171.376 6.096 169.792 8.112 168.704C10.128 167.616 12.432 167.072 15.024 167.072ZM48.537 167.024C51.609 167.024 54.057 168.032 55.881 170.048C57.705 172.064 58.617 174.896 58.617 178.544V194H51.897V179.312C51.897 177.2 51.353 175.568 50.265 174.416C49.177 173.232 47.689 172.64 45.801 172.64C43.881 172.64 42.345 173.264 41.193 174.512C40.041 175.76 39.465 177.552 39.465 179.888V194H32.697V158.48H39.465V172.736C40.169 170.944 41.321 169.552 42.921 168.56C44.553 167.536 46.425 167.024 48.537 167.024ZM74.988 167.072C77.228 167.072 79.148 167.6 80.748 168.656C82.348 169.712 83.484 171.136 84.156 172.928V167.408H90.876V194H84.156V188.432C83.484 190.224 82.348 191.664 80.748 192.752C79.148 193.808 77.228 194.336 74.988 194.336C72.748 194.336 70.732 193.792 68.94 192.704C67.148 191.616 65.74 190.048 64.716 188C63.724 185.92 63.228 183.488 63.228 180.704C63.228 177.92 63.724 175.504 64.716 173.456C65.74 171.376 67.148 169.792 68.94 168.704C70.732 167.616 72.748 167.072 74.988 167.072ZM77.1 172.976C74.988 172.976 73.292 173.664 72.012 175.04C70.732 176.416 70.092 178.304 70.092 180.704C70.092 183.104 70.732 184.992 72.012 186.368C73.292 187.712 74.988 188.384 77.1 188.384C79.148 188.384 80.828 187.696 82.14 186.32C83.484 184.912 84.156 183.04 84.156 180.704C84.156 178.336 83.484 176.464 82.14 175.088C80.828 173.68 79.148 172.976 77.1 172.976ZM103.778 158.48V194H97.0095V158.48H103.778ZM116.668 158.48V194H109.9V158.48H116.668ZM147.799 179.696C147.799 180.368 147.719 181.136 147.559 182H128.071C128.167 184.368 128.807 186.112 129.991 187.232C131.175 188.352 132.647 188.912 134.407 188.912C135.975 188.912 137.271 188.528 138.295 187.76C139.351 186.992 140.023 185.952 140.311 184.64H147.463C147.111 186.496 146.359 188.16 145.207 189.632C144.055 191.104 142.567 192.256 140.743 193.088C138.951 193.92 136.951 194.336 134.743 194.336C132.151 194.336 129.847 193.792 127.831 192.704C125.815 191.584 124.247 190 123.127 187.952C122.007 185.904 121.447 183.488 121.447 180.704C121.447 177.92 122.007 175.504 123.127 173.456C124.247 171.376 125.815 169.792 127.831 168.704C129.847 167.616 132.151 167.072 134.743 167.072C137.367 167.072 139.655 167.616 141.607 168.704C143.591 169.792 145.111 171.296 146.167 173.216C147.255 175.104 147.799 177.264 147.799 179.696ZM140.983 179.024C141.079 176.848 140.503 175.2 139.255 174.08C138.039 172.96 136.535 172.4 134.743 172.4C132.919 172.4 131.383 172.96 130.135 174.08C128.887 175.2 128.199 176.848 128.071 179.024H140.983ZM168.443 167.024C171.515 167.024 173.963 168.032 175.787 170.048C177.611 172.064 178.523 174.896 178.523 178.544V194H171.803V179.312C171.803 177.2 171.259 175.568 170.171 174.416C169.083 173.232 167.595 172.64 165.707 172.64C163.787 172.64 162.251 173.264 161.099 174.512C159.947 175.76 159.371 177.552 159.371 179.888V194H152.603V167.408H159.371V172.736C160.075 170.944 161.227 169.552 162.827 168.56C164.459 167.536 166.331 167.024 168.443 167.024ZM194.894 167.072C197.134 167.072 199.054 167.6 200.654 168.656C202.254 169.712 203.39 171.136 204.062 172.928V167.408H210.782V194.096C210.782 196.56 210.286 198.768 209.294 200.72C208.334 202.704 206.878 204.256 204.926 205.376C203.006 206.496 200.67 207.056 197.918 207.056C194.078 207.056 190.974 206.144 188.606 204.32C186.238 202.496 184.798 200.016 184.286 196.88H190.958C191.342 198.224 192.078 199.264 193.166 200C194.286 200.768 195.71 201.152 197.438 201.152C199.422 201.152 201.022 200.56 202.238 199.376C203.454 198.224 204.062 196.464 204.062 194.096V188.432C203.39 190.224 202.254 191.664 200.654 192.752C199.054 193.808 197.134 194.336 194.894 194.336C192.654 194.336 190.638 193.792 188.846 192.704C187.054 191.616 185.646 190.048 184.622 188C183.63 185.92 183.134 183.488 183.134 180.704C183.134 177.92 183.63 175.504 184.622 173.456C185.646 171.376 187.054 169.792 188.846 168.704C190.638 167.616 192.654 167.072 194.894 167.072ZM197.006 172.976C194.894 172.976 193.198 173.664 191.918 175.04C190.638 176.416 189.998 178.304 189.998 180.704C189.998 183.104 190.638 184.992 191.918 186.368C193.198 187.712 194.894 188.384 197.006 188.384C199.054 188.384 200.734 187.696 202.046 186.32C203.39 184.912 204.062 183.04 204.062 180.704C204.062 178.336 203.39 176.464 202.046 175.088C200.734 173.68 199.054 172.976 197.006 172.976ZM241.924 179.696C241.924 180.368 241.844 181.136 241.684 182H222.196C222.292 184.368 222.932 186.112 224.116 187.232C225.3 188.352 226.772 188.912 228.532 188.912C230.1 188.912 231.396 188.528 232.42 187.76C233.476 186.992 234.148 185.952 234.436 184.64H241.588C241.236 186.496 240.484 188.16 239.332 189.632C238.18 191.104 236.692 192.256 234.868 193.088C233.076 193.92 231.076 194.336 228.868 194.336C226.276 194.336 223.972 193.792 221.956 192.704C219.94 191.584 218.372 190 217.252 187.952C216.132 185.904 215.572 183.488 215.572 180.704C215.572 177.92 216.132 175.504 217.252 173.456C218.372 171.376 219.94 169.792 221.956 168.704C223.972 167.616 226.276 167.072 228.868 167.072C231.492 167.072 233.78 167.616 235.732 168.704C237.716 169.792 239.236 171.296 240.292 173.216C241.38 175.104 241.924 177.264 241.924 179.696ZM235.108 179.024C235.204 176.848 234.628 175.2 233.38 174.08C232.164 172.96 230.66 172.4 228.868 172.4C227.044 172.4 225.508 172.96 224.26 174.08C223.012 175.2 222.324 176.848 222.196 179.024H235.108ZM255.896 167.072C259.128 167.072 261.72 167.888 263.672 169.52C265.624 171.152 266.84 173.328 267.32 176.048H260.984C260.728 174.768 260.152 173.744 259.256 172.976C258.36 172.208 257.192 171.824 255.752 171.824C254.6 171.824 253.704 172.096 253.064 172.64C252.424 173.184 252.104 173.92 252.104 174.848C252.104 175.584 252.36 176.176 252.872 176.624C253.384 177.072 254.024 177.424 254.792 177.68C255.56 177.936 256.664 178.24 258.104 178.592C260.12 179.04 261.752 179.52 263 180.032C264.28 180.512 265.368 181.296 266.264 182.384C267.192 183.44 267.656 184.88 267.656 186.704C267.656 188.976 266.76 190.816 264.968 192.224C263.208 193.632 260.824 194.336 257.816 194.336C254.36 194.336 251.592 193.568 249.512 192.032C247.432 190.464 246.168 188.24 245.72 185.36H252.2C252.36 186.672 252.936 187.712 253.928 188.48C254.92 189.216 256.216 189.584 257.816 189.584C258.968 189.584 259.848 189.312 260.456 188.768C261.064 188.192 261.368 187.456 261.368 186.56C261.368 185.792 261.096 185.168 260.552 184.688C260.04 184.208 259.384 183.84 258.584 183.584C257.816 183.328 256.712 183.024 255.272 182.672C253.288 182.224 251.672 181.776 250.424 181.328C249.208 180.848 248.152 180.096 247.256 179.072C246.392 178.048 245.96 176.64 245.96 174.848C245.96 172.544 246.84 170.672 248.6 169.232C250.36 167.792 252.792 167.072 255.896 167.072Z" fill="#232536"/>
<path opacity="0.87" d="M5.544 4.99C6.45867 4.99 7.28467 5.20467 8.022 5.634C8.76867 6.06333 9.352 6.66533 9.772 7.44C10.2013 8.20533 10.416 9.07333 10.416 10.044C10.416 11.0147 10.2013 11.8873 9.772 12.662C9.352 13.4273 8.76867 14.0293 8.022 14.468C7.28467 14.8973 6.45867 15.112 5.544 15.112C4.62 15.112 3.78467 14.8973 3.038 14.468C2.30067 14.0293 1.71733 13.4273 1.288 12.662C0.858667 11.8873 0.644 11.0147 0.644 10.044C0.644 9.07333 0.858667 8.20533 1.288 7.44C1.71733 6.66533 2.30067 6.06333 3.038 5.634C3.78467 5.20467 4.62 4.99 5.544 4.99ZM5.544 6.474C4.90933 6.474 4.34467 6.61867 3.85 6.908C3.35533 7.19733 2.968 7.61267 2.688 8.154C2.41733 8.69533 2.282 9.32533 2.282 10.044C2.282 10.7627 2.41733 11.3927 2.688 11.934C2.968 12.4753 3.35533 12.8907 3.85 13.18C4.34467 13.4693 4.90933 13.614 5.544 13.614C6.16933 13.614 6.72467 13.4693 7.21 13.18C7.70467 12.8907 8.08733 12.4753 8.358 11.934C8.638 11.3927 8.778 10.7627 8.778 10.044C8.778 9.32533 8.638 8.69533 8.358 8.154C8.08733 7.61267 7.70467 7.19733 7.21 6.908C6.72467 6.61867 6.16933 6.474 5.544 6.474ZM16.5525 5.116V10.982C16.5525 11.8593 16.7439 12.5127 17.1265 12.942C17.5185 13.3713 18.0645 13.586 18.7645 13.586C19.4552 13.586 19.9919 13.3713 20.3745 12.942C20.7665 12.5127 20.9625 11.8593 20.9625 10.982V5.116H22.5585V10.982C22.5585 12.3353 22.2085 13.362 21.5085 14.062C20.8085 14.7527 19.8845 15.098 18.7365 15.098C17.5979 15.098 16.6832 14.7527 15.9925 14.062C15.3019 13.362 14.9565 12.3353 14.9565 10.982V5.116H16.5525ZM32.6131 15L30.1491 11.052H29.0151V15H27.4191V5.116H30.9051C32.0345 5.116 32.8885 5.39133 33.4671 5.942C34.0551 6.49267 34.3491 7.22067 34.3491 8.126C34.3491 8.90067 34.1298 9.53533 33.6911 10.03C33.2618 10.5247 32.6365 10.842 31.8151 10.982L34.4051 15H32.6131ZM29.0151 9.918H30.7791C32.0671 9.918 32.7111 9.34867 32.7111 8.21C32.7111 7.66867 32.5525 7.24867 32.2351 6.95C31.9271 6.642 31.4418 6.488 30.7791 6.488H29.0151V9.918ZM51.5636 12.368C51.5636 12.8533 51.4469 13.306 51.2136 13.726C50.9802 14.1367 50.6256 14.468 50.1496 14.72C49.6736 14.972 49.0902 15.098 48.3996 15.098C47.7276 15.098 47.1256 14.9813 46.5936 14.748C46.0616 14.5053 45.6369 14.1693 45.3196 13.74C45.0022 13.3107 44.8202 12.816 44.7736 12.256H46.4816C46.5282 12.6853 46.7102 13.054 47.0276 13.362C47.3542 13.67 47.7882 13.824 48.3296 13.824C48.8149 13.824 49.1882 13.6933 49.4496 13.432C49.7202 13.1707 49.8556 12.8347 49.8556 12.424C49.8556 12.0693 49.7576 11.78 49.5616 11.556C49.3656 11.3227 49.1229 11.1407 48.8336 11.01C48.5442 10.8793 48.1476 10.73 47.6436 10.562C47.0276 10.366 46.5236 10.17 46.1316 9.974C45.7489 9.778 45.4222 9.49333 45.1516 9.12C44.8809 8.74667 44.7456 8.25667 44.7456 7.65C44.7456 7.118 44.8762 6.65133 45.1376 6.25C45.3989 5.84867 45.7722 5.54067 46.2576 5.326C46.7429 5.102 47.3029 4.99 47.9376 4.99C48.9456 4.99 49.7436 5.23267 50.3316 5.718C50.9289 6.20333 51.2696 6.838 51.3536 7.622H49.6316C49.5662 7.24867 49.3889 6.93133 49.0996 6.67C48.8196 6.39933 48.4322 6.264 47.9376 6.264C47.4896 6.264 47.1302 6.38067 46.8596 6.614C46.5889 6.838 46.4536 7.16467 46.4536 7.594C46.4536 7.93 46.5469 8.21 46.7336 8.434C46.9202 8.64867 47.1536 8.82133 47.4336 8.952C47.7229 9.07333 48.1149 9.218 48.6096 9.386C49.2349 9.582 49.7436 9.78267 50.1356 9.988C50.5369 10.184 50.8729 10.4733 51.1436 10.856C51.4236 11.2387 51.5636 11.7427 51.5636 12.368ZM57.7573 6.404V9.4H61.3973V10.632H57.7573V13.698H61.8173V15H56.1613V5.116H61.8173V6.404H57.7573ZM71.5604 15L69.0964 11.052H67.9624V15H66.3664V5.116H69.8524C70.9817 5.116 71.8357 5.39133 72.4144 5.942C73.0024 6.49267 73.2964 7.22067 73.2964 8.126C73.2964 8.90067 73.0771 9.53533 72.6384 10.03C72.2091 10.5247 71.5837 10.842 70.7624 10.982L73.3524 15H71.5604ZM67.9624 9.918H69.7264C71.0144 9.918 71.6584 9.34867 71.6584 8.21C71.6584 7.66867 71.4997 7.24867 71.1824 6.95C70.8744 6.642 70.3891 6.488 69.7264 6.488H67.9624V9.918ZM78.7276 5.116L81.5696 13.292L84.4256 5.116H86.1616L82.5916 15H80.5476L76.9916 5.116H78.7276ZM91.9409 5.116V15H90.3449V5.116H91.9409ZM101.282 5.018C102.496 5.018 103.504 5.326 104.306 5.942C105.109 6.558 105.65 7.39333 105.93 8.448H104.236C104.003 7.85067 103.63 7.37933 103.116 7.034C102.612 6.67933 101.992 6.502 101.254 6.502C100.666 6.502 100.139 6.64667 99.6723 6.936C99.2149 7.22533 98.8509 7.64067 98.5803 8.182C98.3189 8.714 98.1883 9.33933 98.1883 10.058C98.1883 10.7673 98.3189 11.3927 98.5803 11.934C98.8509 12.466 99.2149 12.8767 99.6723 13.166C100.139 13.4553 100.666 13.6 101.254 13.6C101.992 13.6 102.612 13.4273 103.116 13.082C103.63 12.7273 104.003 12.256 104.236 11.668H105.93C105.65 12.7227 105.109 13.558 104.306 14.174C103.504 14.7807 102.496 15.084 101.282 15.084C100.349 15.084 99.5229 14.874 98.8043 14.454C98.0856 14.0247 97.5303 13.432 97.1383 12.676C96.7463 11.9107 96.5503 11.038 96.5503 10.058C96.5503 9.078 96.7463 8.21 97.1383 7.454C97.5303 6.68867 98.0856 6.09133 98.8043 5.662C99.5229 5.23267 100.349 5.018 101.282 5.018ZM112.119 6.404V9.4H115.759V10.632H112.119V13.698H116.179V15H110.523V5.116H116.179V6.404H112.119ZM127.224 12.368C127.224 12.8533 127.107 13.306 126.874 13.726C126.64 14.1367 126.286 14.468 125.81 14.72C125.334 14.972 124.75 15.098 124.06 15.098C123.388 15.098 122.786 14.9813 122.254 14.748C121.722 14.5053 121.297 14.1693 120.98 13.74C120.662 13.3107 120.48 12.816 120.434 12.256H122.142C122.188 12.6853 122.37 13.054 122.688 13.362C123.014 13.67 123.448 13.824 123.99 13.824C124.475 13.824 124.848 13.6933 125.11 13.432C125.38 13.1707 125.516 12.8347 125.516 12.424C125.516 12.0693 125.418 11.78 125.222 11.556C125.026 11.3227 124.783 11.1407 124.494 11.01C124.204 10.8793 123.808 10.73 123.304 10.562C122.688 10.366 122.184 10.17 121.792 9.974C121.409 9.778 121.082 9.49333 120.812 9.12C120.541 8.74667 120.406 8.25667 120.406 7.65C120.406 7.118 120.536 6.65133 120.798 6.25C121.059 5.84867 121.432 5.54067 121.918 5.326C122.403 5.102 122.963 4.99 123.598 4.99C124.606 4.99 125.404 5.23267 125.992 5.718C126.589 6.20333 126.93 6.838 127.014 7.622H125.292C125.226 7.24867 125.049 6.93133 124.76 6.67C124.48 6.39933 124.092 6.264 123.598 6.264C123.15 6.264 122.79 6.38067 122.52 6.614C122.249 6.838 122.114 7.16467 122.114 7.594C122.114 7.93 122.207 8.21 122.394 8.434C122.58 8.64867 122.814 8.82133 123.094 8.952C123.383 9.07333 123.775 9.218 124.27 9.386C124.895 9.582 125.404 9.78267 125.796 9.988C126.197 10.184 126.533 10.4733 126.804 10.856C127.084 11.2387 127.224 11.7427 127.224 12.368Z" fill="black"/>
<defs>
<linearGradient id="paint0_linear_1_2045" x1="107" y1="246" x2="107" y2="310" gradientUnits="userSpaceOnUse">
<stop stop-color="#444CFC"/>
<stop offset="1" stop-color="#444CFC"/>
</linearGradient>
</defs>
</svg>
