<svg width="214" height="64" viewBox="0 0 214 64" fill="none" xmlns="http://www.w3.org/2000/svg">
<rect width="214" height="64" fill="#444CFC"/>
<path d="M0 11V0H29V11H0Z" fill="#666DFF"/>
<path d="M0 27V19H8V27H0Z" fill="#666DFF"/>
<path d="M0 19V0H19V19H0Z" fill="#FFA155"/>
<path d="M8 11V0H19V11H8Z" fill="#FFD3AF"/>
<path opacity="0.87" d="M38.864 38.112C38.1173 38.112 37.4453 37.984 36.848 37.728C36.2507 37.4613 35.7813 37.088 35.44 36.608C35.0987 36.128 34.928 35.568 34.928 34.928H36.88C36.9227 35.408 37.1093 35.8027 37.44 36.112C37.7813 36.4213 38.256 36.576 38.864 36.576C39.4933 36.576 39.984 36.4267 40.336 36.128C40.688 35.8187 40.864 35.424 40.864 34.944C40.864 34.5707 40.752 34.2667 40.528 34.032C40.3147 33.7973 40.0427 33.616 39.712 33.488C39.392 33.36 38.944 33.2213 38.368 33.072C37.6427 32.88 37.0507 32.688 36.592 32.496C36.144 32.2933 35.76 31.984 35.44 31.568C35.12 31.152 34.96 30.5973 34.96 29.904C34.96 29.264 35.12 28.704 35.44 28.224C35.76 27.744 36.208 27.376 36.784 27.12C37.36 26.864 38.0267 26.736 38.784 26.736C39.8613 26.736 40.7413 27.008 41.424 27.552C42.1173 28.0853 42.5013 28.8213 42.576 29.76H40.56C40.528 29.3547 40.336 29.008 39.984 28.72C39.632 28.432 39.168 28.288 38.592 28.288C38.0693 28.288 37.6427 28.4213 37.312 28.688C36.9813 28.9547 36.816 29.3387 36.816 29.84C36.816 30.1813 36.9173 30.464 37.12 30.688C37.3333 30.9013 37.6 31.072 37.92 31.2C38.24 31.328 38.6773 31.4667 39.232 31.616C39.968 31.8187 40.5653 32.0213 41.024 32.224C41.4933 32.4267 41.888 32.7413 42.208 33.168C42.5387 33.584 42.704 34.144 42.704 34.848C42.704 35.4133 42.5493 35.9467 42.24 36.448C41.9413 36.9493 41.4987 37.3547 40.912 37.664C40.336 37.9627 39.6533 38.112 38.864 38.112ZM46.9843 30.672V35.552C46.9843 35.8827 47.0589 36.1227 47.2083 36.272C47.3683 36.4107 47.6349 36.48 48.0083 36.48H49.1283V38H47.6883C46.8669 38 46.2376 37.808 45.8003 37.424C45.3629 37.04 45.1443 36.416 45.1443 35.552V30.672H44.1043V29.184H45.1443V26.992H46.9843V29.184H49.1283V30.672H46.9843ZM50.2014 33.552C50.2014 32.6667 50.3827 31.8827 50.7454 31.2C51.1187 30.5173 51.62 29.9893 52.2494 29.616C52.8894 29.232 53.5934 29.04 54.3614 29.04C55.0547 29.04 55.6574 29.1787 56.1694 29.456C56.692 29.7227 57.108 30.0587 57.4174 30.464V29.184H59.2574V38H57.4174V36.688C57.108 37.104 56.6867 37.4507 56.1534 37.728C55.62 38.0053 55.012 38.144 54.3294 38.144C53.572 38.144 52.8787 37.952 52.2494 37.568C51.62 37.1733 51.1187 36.6293 50.7454 35.936C50.3827 35.232 50.2014 34.4373 50.2014 33.552ZM57.4174 33.584C57.4174 32.976 57.2894 32.448 57.0334 32C56.788 31.552 56.4627 31.2107 56.0574 30.976C55.652 30.7413 55.2147 30.624 54.7454 30.624C54.276 30.624 53.8387 30.7413 53.4334 30.976C53.028 31.2 52.6974 31.536 52.4414 31.984C52.196 32.4213 52.0734 32.944 52.0734 33.552C52.0734 34.16 52.196 34.6933 52.4414 35.152C52.6974 35.6107 53.028 35.9627 53.4334 36.208C53.8494 36.4427 54.2867 36.56 54.7454 36.56C55.2147 36.56 55.652 36.4427 56.0574 36.208C56.4627 35.9733 56.788 35.632 57.0334 35.184C57.2894 34.7253 57.4174 34.192 57.4174 33.584ZM63.4771 30.464C63.7438 30.016 64.0958 29.6693 64.5331 29.424C64.9811 29.168 65.5091 29.04 66.1171 29.04V30.928H65.6531C64.9385 30.928 64.3945 31.1093 64.0211 31.472C63.6585 31.8347 63.4771 32.464 63.4771 33.36V38H61.6531V29.184H63.4771V30.464ZM69.9218 30.672V35.552C69.9218 35.8827 69.9964 36.1227 70.1458 36.272C70.3058 36.4107 70.5724 36.48 70.9458 36.48H72.0658V38H70.6258C69.8044 38 69.1751 37.808 68.7378 37.424C68.3004 37.04 68.0818 36.416 68.0818 35.552V30.672H67.0418V29.184H68.0818V26.992H69.9218V29.184H72.0658V30.672H69.9218ZM77.2951 33.552C77.2951 32.6667 77.4765 31.8827 77.8391 31.2C78.2125 30.5173 78.7138 29.9893 79.3431 29.616C79.9831 29.232 80.6871 29.04 81.4551 29.04C82.1485 29.04 82.7511 29.1787 83.2631 29.456C83.7858 29.7227 84.2018 30.0587 84.5111 30.464V29.184H86.3511V38H84.5111V36.688C84.2018 37.104 83.7805 37.4507 83.2471 37.728C82.7138 38.0053 82.1058 38.144 81.4231 38.144C80.6658 38.144 79.9725 37.952 79.3431 37.568C78.7138 37.1733 78.2125 36.6293 77.8391 35.936C77.4765 35.232 77.2951 34.4373 77.2951 33.552ZM84.5111 33.584C84.5111 32.976 84.3831 32.448 84.1271 32C83.8818 31.552 83.5565 31.2107 83.1511 30.976C82.7458 30.7413 82.3085 30.624 81.8391 30.624C81.3698 30.624 80.9325 30.7413 80.5271 30.976C80.1218 31.2 79.7911 31.536 79.5351 31.984C79.2898 32.4213 79.1671 32.944 79.1671 33.552C79.1671 34.16 79.2898 34.6933 79.5351 35.152C79.7911 35.6107 80.1218 35.9627 80.5271 36.208C80.9431 36.4427 81.3805 36.56 81.8391 36.56C82.3085 36.56 82.7458 36.4427 83.1511 36.208C83.5565 35.9733 83.8818 35.632 84.1271 35.184C84.3831 34.7253 84.5111 34.192 84.5111 33.584ZM100.679 30.192C100.679 30.7573 100.546 31.2907 100.279 31.792C100.012 32.2933 99.5858 32.704 98.9991 33.024C98.4125 33.3333 97.6605 33.488 96.7431 33.488H94.7271V38H92.9031V26.88H96.7431C97.5965 26.88 98.3165 27.0293 98.9031 27.328C99.5005 27.616 99.9431 28.0107 100.231 28.512C100.53 29.0133 100.679 29.5733 100.679 30.192ZM96.7431 32C97.4365 32 97.9538 31.8453 98.2951 31.536C98.6365 31.216 98.8071 30.768 98.8071 30.192C98.8071 28.976 98.1191 28.368 96.7431 28.368H94.7271V32H96.7431ZM104.243 30.464C104.509 30.016 104.861 29.6693 105.299 29.424C105.747 29.168 106.275 29.04 106.883 29.04V30.928H106.419C105.704 30.928 105.16 31.1093 104.787 31.472C104.424 31.8347 104.243 32.464 104.243 33.36V38H102.419V29.184H104.243V30.464ZM112.383 38.144C111.551 38.144 110.799 37.9573 110.127 37.584C109.455 37.2 108.927 36.6667 108.543 35.984C108.159 35.2907 107.967 34.4907 107.967 33.584C107.967 32.688 108.165 31.8933 108.559 31.2C108.954 30.5067 109.493 29.9733 110.175 29.6C110.858 29.2267 111.621 29.04 112.463 29.04C113.306 29.04 114.069 29.2267 114.751 29.6C115.434 29.9733 115.973 30.5067 116.367 31.2C116.762 31.8933 116.959 32.688 116.959 33.584C116.959 34.48 116.757 35.2747 116.351 35.968C115.946 36.6613 115.391 37.2 114.687 37.584C113.994 37.9573 113.226 38.144 112.383 38.144ZM112.383 36.56C112.853 36.56 113.29 36.448 113.695 36.224C114.111 36 114.447 35.664 114.703 35.216C114.959 34.768 115.087 34.224 115.087 33.584C115.087 32.944 114.965 32.4053 114.719 31.968C114.474 31.52 114.149 31.184 113.743 30.96C113.338 30.736 112.901 30.624 112.431 30.624C111.962 30.624 111.525 30.736 111.119 30.96C110.725 31.184 110.41 31.52 110.175 31.968C109.941 32.4053 109.823 32.944 109.823 33.584C109.823 34.5333 110.063 35.2693 110.543 35.792C111.034 36.304 111.647 36.56 112.383 36.56ZM119.691 28.016C119.36 28.016 119.083 27.904 118.859 27.68C118.635 27.456 118.523 27.1787 118.523 26.848C118.523 26.5173 118.635 26.24 118.859 26.016C119.083 25.792 119.36 25.68 119.691 25.68C120.011 25.68 120.283 25.792 120.507 26.016C120.731 26.24 120.843 26.5173 120.843 26.848C120.843 27.1787 120.731 27.456 120.507 27.68C120.283 27.904 120.011 28.016 119.691 28.016ZM120.587 39.728C120.587 40.592 120.368 41.216 119.931 41.6C119.504 41.9947 118.88 42.192 118.059 42.192H117.114V40.656H117.739C118.112 40.656 118.373 40.5813 118.523 40.432C118.683 40.2933 118.763 40.0587 118.763 39.728V29.184H120.587V39.728ZM131.061 33.376C131.061 33.7067 131.04 34.0053 130.997 34.272H124.261C124.315 34.976 124.576 35.5413 125.045 35.968C125.515 36.3947 126.091 36.608 126.773 36.608C127.755 36.608 128.448 36.1973 128.853 35.376H130.821C130.555 36.1867 130.069 36.8533 129.365 37.376C128.672 37.888 127.808 38.144 126.773 38.144C125.931 38.144 125.173 37.9573 124.501 37.584C123.84 37.2 123.317 36.6667 122.933 35.984C122.56 35.2907 122.373 34.4907 122.373 33.584C122.373 32.6773 122.555 31.8827 122.917 31.2C123.291 30.5067 123.808 29.9733 124.469 29.6C125.141 29.2267 125.909 29.04 126.773 29.04C127.605 29.04 128.347 29.2213 128.997 29.584C129.648 29.9467 130.155 30.4587 130.517 31.12C130.88 31.7707 131.061 32.5227 131.061 33.376ZM129.157 32.8C129.147 32.128 128.907 31.5893 128.437 31.184C127.968 30.7787 127.387 30.576 126.693 30.576C126.064 30.576 125.525 30.7787 125.077 31.184C124.629 31.5787 124.363 32.1173 124.277 32.8H129.157ZM132.248 33.584C132.248 32.6773 132.43 31.8827 132.792 31.2C133.166 30.5067 133.678 29.9733 134.328 29.6C134.979 29.2267 135.726 29.04 136.568 29.04C137.635 29.04 138.515 29.296 139.208 29.808C139.912 30.3093 140.387 31.0293 140.632 31.968H138.664C138.504 31.5307 138.248 31.1893 137.896 30.944C137.544 30.6987 137.102 30.576 136.568 30.576C135.822 30.576 135.224 30.8427 134.776 31.376C134.339 31.8987 134.12 32.6347 134.12 33.584C134.12 34.5333 134.339 35.2747 134.776 35.808C135.224 36.3413 135.822 36.608 136.568 36.608C137.624 36.608 138.323 36.144 138.664 35.216H140.632C140.376 36.112 139.896 36.8267 139.192 37.36C138.488 37.8827 137.614 38.144 136.568 38.144C135.726 38.144 134.979 37.9573 134.328 37.584C133.678 37.2 133.166 36.6667 132.792 35.984C132.43 35.2907 132.248 34.4907 132.248 33.584ZM144.578 30.672V35.552C144.578 35.8827 144.653 36.1227 144.802 36.272C144.962 36.4107 145.229 36.48 145.602 36.48H146.722V38H145.282C144.461 38 143.831 37.808 143.394 37.424C142.957 37.04 142.738 36.416 142.738 35.552V30.672H141.698V29.184H142.738V26.992H144.578V29.184H146.722V30.672H144.578Z" fill="white"/>
<path d="M183.707 32.7071C184.098 32.3166 184.098 31.6834 183.707 31.2929L177.343 24.9289C176.953 24.5384 176.319 24.5384 175.929 24.9289C175.538 25.3195 175.538 25.9526 175.929 26.3431L181.586 32L175.929 37.6569C175.538 38.0474 175.538 38.6805 175.929 39.0711C176.319 39.4616 176.953 39.4616 177.343 39.0711L183.707 32.7071ZM163 33L183 33V31L163 31V33Z" fill="white"/>
</svg>
