<svg width="354" height="243" viewBox="0 0 354 243" fill="none" xmlns="http://www.w3.org/2000/svg">
<rect width="354" height="243" fill="white"/>
<path d="M55.84 204.552H51.072L50.208 207H48.256L52.416 195.88H54.512L58.656 207H56.704L55.84 204.552ZM55.328 203.144L53.456 197.864L51.584 203.144H55.328ZM65.0663 198.072C65.8343 198.072 66.5169 198.253 67.1143 198.616C67.7223 198.979 68.1969 199.501 68.5383 200.184C68.8796 200.867 69.0503 201.667 69.0503 202.584C69.0503 203.512 68.8796 204.317 68.5383 205C68.1969 205.683 67.7223 206.205 67.1143 206.568C66.5169 206.931 65.8343 207.112 65.0663 207.112C64.2663 207.112 63.5836 206.915 63.0182 206.52C62.4529 206.125 62.0583 205.603 61.8343 204.952V211.192H60.0103V198.184H61.8343V200.232C62.0583 199.581 62.4529 199.059 63.0182 198.664C63.5836 198.269 64.2663 198.072 65.0663 198.072ZM64.5063 199.672C63.9943 199.672 63.5356 199.795 63.1302 200.04C62.7249 200.275 62.4049 200.616 62.1703 201.064C61.9356 201.501 61.8183 202.008 61.8183 202.584C61.8183 203.171 61.9356 203.683 62.1703 204.12C62.4049 204.557 62.7249 204.899 63.1302 205.144C63.5356 205.379 63.9943 205.496 64.5063 205.496C65.3169 205.496 65.9676 205.24 66.4583 204.728C66.9489 204.205 67.1943 203.491 67.1943 202.584C67.1943 201.688 66.9489 200.979 66.4583 200.456C65.9676 199.933 65.3169 199.672 64.5063 199.672ZM75.8631 198.072C76.6311 198.072 77.3138 198.253 77.9111 198.616C78.5191 198.979 78.9938 199.501 79.3351 200.184C79.6765 200.867 79.8471 201.667 79.8471 202.584C79.8471 203.512 79.6765 204.317 79.3351 205C78.9938 205.683 78.5191 206.205 77.9111 206.568C77.3138 206.931 76.6311 207.112 75.8631 207.112C75.0631 207.112 74.3805 206.915 73.8151 206.52C73.2498 206.125 72.8551 205.603 72.6311 204.952V211.192H70.8071V198.184H72.6311V200.232C72.8551 199.581 73.2498 199.059 73.8151 198.664C74.3805 198.269 75.0631 198.072 75.8631 198.072ZM75.3031 199.672C74.7911 199.672 74.3325 199.795 73.9271 200.04C73.5218 200.275 73.2018 200.616 72.9671 201.064C72.7325 201.501 72.6151 202.008 72.6151 202.584C72.6151 203.171 72.7325 203.683 72.9671 204.12C73.2018 204.557 73.5218 204.899 73.9271 205.144C74.3325 205.379 74.7911 205.496 75.3031 205.496C76.1138 205.496 76.7645 205.24 77.2551 204.728C77.7458 204.205 77.9911 203.491 77.9911 202.584C77.9911 201.688 77.7458 200.979 77.2551 200.456C76.7645 199.933 76.1138 199.672 75.3031 199.672ZM83.428 195.16V207H81.604V195.16H83.428ZM86.6753 198.184L89.3153 204.664L91.7633 198.184H93.7953L88.4673 211.192H86.4353L88.3393 206.792L84.6273 198.184H86.6753ZM107.881 207H106.057L100.569 198.664V207H98.7446V195.72H100.569L106.057 204.088V195.72H107.881V207ZM114.12 198.072C114.974 198.072 115.742 198.253 116.424 198.616C117.107 198.979 117.64 199.501 118.024 200.184C118.408 200.867 118.6 201.667 118.6 202.584C118.6 203.512 118.408 204.317 118.024 205C117.64 205.683 117.107 206.205 116.424 206.568C115.742 206.931 114.974 207.112 114.12 207.112C113.267 207.112 112.499 206.931 111.816 206.568C111.144 206.205 110.611 205.683 110.216 205C109.832 204.307 109.64 203.501 109.64 202.584C109.64 201.667 109.832 200.867 110.216 200.184C110.611 199.501 111.144 198.979 111.816 198.616C112.499 198.253 113.267 198.072 114.12 198.072ZM114.12 199.656C113.651 199.656 113.219 199.763 112.824 199.976C112.43 200.189 112.11 200.52 111.864 200.968C111.63 201.405 111.512 201.944 111.512 202.584C111.512 203.235 111.63 203.779 111.864 204.216C112.11 204.653 112.43 204.979 112.824 205.192C113.219 205.405 113.651 205.512 114.12 205.512C114.59 205.512 115.022 205.405 115.416 205.192C115.811 204.979 116.126 204.653 116.36 204.216C116.606 203.779 116.728 203.235 116.728 202.584C116.728 201.944 116.606 201.405 116.36 200.968C116.126 200.52 115.811 200.189 115.416 199.976C115.022 199.763 114.59 199.656 114.12 199.656ZM132.706 198.184L130.258 207H128.242L126.066 200.184L123.858 207H121.858L119.41 198.184H121.25L122.93 205.32L125.138 198.184H127.058L129.298 205.32L130.978 198.184H132.706Z" fill="#5D5FEF"/>
<path d="M165.354 203.354C165.549 203.158 165.549 202.842 165.354 202.646L162.172 199.464C161.976 199.269 161.66 199.269 161.464 199.464C161.269 199.66 161.269 199.976 161.464 200.172L164.293 203L161.464 205.828C161.269 206.024 161.269 206.34 161.464 206.536C161.66 206.731 161.976 206.731 162.172 206.536L165.354 203.354ZM145 203.5H165V202.5H145V203.5Z" fill="#232536"/>
<path opacity="0.6" d="M52.88 124.68C53.712 124.936 54.3573 125.165 54.816 125.368C55.2747 125.571 55.6747 125.891 56.016 126.328C56.3573 126.755 56.528 127.336 56.528 128.072C56.528 128.605 56.3947 129.101 56.128 129.56C55.872 130.019 55.472 130.392 54.928 130.68C54.384 130.968 53.7173 131.112 52.928 131.112H52.88V132.392H52.384V131.08C51.3707 130.984 50.544 130.653 49.904 130.088C49.264 129.512 48.9067 128.803 48.832 127.96H50.384C50.4267 128.408 50.6187 128.829 50.96 129.224C51.312 129.608 51.7867 129.848 52.384 129.944V125.848C51.5627 125.603 50.9227 125.384 50.464 125.192C50.016 124.989 49.6213 124.675 49.28 124.248C48.9493 123.821 48.784 123.251 48.784 122.536C48.784 121.949 48.9333 121.432 49.232 120.984C49.5307 120.536 49.952 120.189 50.496 119.944C51.04 119.699 51.6693 119.576 52.384 119.576V118.2H52.88V119.592C53.872 119.667 54.6613 119.971 55.248 120.504C55.8347 121.037 56.1813 121.683 56.288 122.44H54.72C54.6453 122.035 54.4533 121.672 54.144 121.352C53.8347 121.032 53.4133 120.829 52.88 120.744V124.68ZM50.352 122.472C50.352 123.016 50.5227 123.437 50.864 123.736C51.216 124.035 51.7227 124.296 52.384 124.52V120.712C51.7653 120.712 51.2693 120.867 50.896 121.176C50.5333 121.475 50.352 121.907 50.352 122.472ZM52.896 129.976C53.5573 129.976 54.0693 129.8 54.432 129.448C54.7947 129.096 54.976 128.648 54.976 128.104C54.976 127.539 54.7947 127.101 54.432 126.792C54.0693 126.483 53.552 126.221 52.88 126.008V129.976H52.896ZM57.5205 121.08V119.72H60.7525V131H59.2165V121.08H57.5205ZM62.8183 125.288C62.8183 127.101 63.1169 128.515 63.7143 129.528C64.3116 130.541 65.3463 131.048 66.8183 131.048C68.2903 131.048 69.3249 130.541 69.9223 129.528C70.5303 128.515 70.8343 127.101 70.8343 125.288C70.8343 123.496 70.5303 122.093 69.9223 121.08C69.3249 120.067 68.2903 119.56 66.8183 119.56C65.3463 119.56 64.3116 120.067 63.7143 121.08C63.1169 122.083 62.8183 123.485 62.8183 125.288ZM69.3943 125.288C69.3943 126.216 69.3249 126.995 69.1863 127.624C69.0583 128.243 68.8076 128.739 68.4343 129.112C68.0609 129.485 67.5223 129.672 66.8183 129.672C66.1249 129.672 65.5916 129.485 65.2183 129.112C64.8449 128.739 64.5889 128.243 64.4503 127.624C64.3223 126.995 64.2582 126.216 64.2582 125.288C64.2582 124.371 64.3223 123.603 64.4503 122.984C64.5889 122.365 64.8449 121.875 65.2183 121.512C65.5916 121.139 66.1249 120.952 66.8183 120.952C67.5223 120.952 68.0609 121.139 68.4343 121.512C68.8076 121.875 69.0583 122.365 69.1863 122.984C69.3249 123.603 69.3943 124.371 69.3943 125.288ZM75.7024 125.304L80.8544 131H79.0624L74.3584 125.736V131H72.9024V119.72H74.3584V124.952L79.0784 119.72H80.8544L75.7024 125.304ZM91.2381 124.52V125.752H84.8381V124.52H91.2381ZM101.771 124.68C102.603 124.936 103.248 125.165 103.707 125.368C104.165 125.571 104.565 125.891 104.907 126.328C105.248 126.755 105.419 127.336 105.419 128.072C105.419 128.605 105.285 129.101 105.019 129.56C104.763 130.019 104.363 130.392 103.819 130.68C103.275 130.968 102.608 131.112 101.819 131.112H101.771V132.392H101.275V131.08C100.261 130.984 99.4346 130.653 98.7946 130.088C98.1546 129.512 97.7973 128.803 97.7226 127.96H99.2746C99.3173 128.408 99.5093 128.829 99.8506 129.224C100.203 129.608 100.677 129.848 101.275 129.944V125.848C100.453 125.603 99.8133 125.384 99.3546 125.192C98.9066 124.989 98.512 124.675 98.1706 124.248C97.84 123.821 97.6746 123.251 97.6746 122.536C97.6746 121.949 97.824 121.432 98.1226 120.984C98.4213 120.536 98.8426 120.189 99.3866 119.944C99.9306 119.699 100.56 119.576 101.275 119.576V118.2H101.771V119.592C102.763 119.667 103.552 119.971 104.139 120.504C104.725 121.037 105.072 121.683 105.179 122.44H103.611C103.536 122.035 103.344 121.672 103.035 121.352C102.725 121.032 102.304 120.829 101.771 120.744V124.68ZM99.2426 122.472C99.2426 123.016 99.4133 123.437 99.7546 123.736C100.107 124.035 100.613 124.296 101.275 124.52V120.712C100.656 120.712 100.16 120.867 99.7866 121.176C99.424 121.475 99.2426 121.907 99.2426 122.472ZM101.787 129.976C102.448 129.976 102.96 129.8 103.323 129.448C103.685 129.096 103.867 128.648 103.867 128.104C103.867 127.539 103.685 127.101 103.323 126.792C102.96 126.483 102.443 126.221 101.771 126.008V129.976H101.787ZM106.411 121.08V119.72H109.643V131H108.107V121.08H106.411ZM111.933 122.376C111.933 121.821 112.082 121.315 112.381 120.856C112.68 120.397 113.122 120.035 113.709 119.768C114.296 119.501 114.994 119.368 115.805 119.368C116.616 119.368 117.309 119.501 117.885 119.768C118.472 120.035 118.914 120.397 119.213 120.856C119.512 121.315 119.661 121.821 119.661 122.376C119.661 123.005 119.49 123.549 119.149 124.008C118.808 124.467 118.29 124.792 117.597 124.984C118.344 125.187 118.925 125.539 119.341 126.04C119.757 126.541 119.965 127.16 119.965 127.896C119.965 128.963 119.586 129.8 118.829 130.408C118.072 131.016 117.064 131.32 115.805 131.32C114.546 131.32 113.538 131.016 112.781 130.408C112.024 129.8 111.645 128.963 111.645 127.896C111.645 127.16 111.848 126.541 112.253 126.04C112.669 125.539 113.25 125.187 113.997 124.984C113.304 124.792 112.786 124.467 112.445 124.008C112.104 123.549 111.933 123.005 111.933 122.376ZM113.373 122.584C113.373 123.224 113.592 123.72 114.029 124.072C114.466 124.413 115.058 124.584 115.805 124.584C116.552 124.584 117.138 124.413 117.565 124.072C118.002 123.72 118.221 123.224 118.221 122.584C118.221 121.944 118.002 121.453 117.565 121.112C117.128 120.76 116.541 120.584 115.805 120.584C115.069 120.584 114.477 120.76 114.029 121.112C113.592 121.453 113.373 121.944 113.373 122.584ZM113.069 127.816C113.069 128.541 113.314 129.107 113.805 129.512C114.296 129.907 114.962 130.104 115.805 130.104C116.637 130.104 117.298 129.901 117.789 129.496C118.28 129.091 118.525 128.531 118.525 127.816C118.525 127.091 118.269 126.541 117.757 126.168C117.245 125.795 116.594 125.608 115.805 125.608C115.005 125.608 114.349 125.795 113.837 126.168C113.325 126.541 113.069 127.091 113.069 127.816ZM124.765 125.304L129.917 131H128.125L123.421 125.736V131H121.965V119.72H123.421V124.952L128.141 119.72H129.917L124.765 125.304ZM136.461 124.728V126.44H134.701V124.728H136.461ZM150.936 131H149.48L143.624 122.088V131H142.168V119.72H143.624L149.48 128.648V119.72H150.936V131ZM157.261 122.104C158.104 122.104 158.856 122.285 159.517 122.648C160.189 123.011 160.712 123.533 161.085 124.216C161.469 124.899 161.661 125.699 161.661 126.616C161.661 127.533 161.469 128.333 161.085 129.016C160.712 129.688 160.189 130.205 159.517 130.568C158.856 130.931 158.104 131.112 157.261 131.112C156.419 131.112 155.661 130.931 154.989 130.568C154.328 130.205 153.805 129.688 153.421 129.016C153.037 128.333 152.845 127.533 152.845 126.616C152.845 125.699 153.037 124.899 153.421 124.216C153.805 123.533 154.328 123.011 154.989 122.648C155.661 122.285 156.419 122.104 157.261 122.104ZM157.261 123.384C156.739 123.384 156.253 123.501 155.805 123.736C155.368 123.971 155.011 124.333 154.733 124.824C154.467 125.304 154.333 125.901 154.333 126.616C154.333 127.32 154.467 127.917 154.733 128.408C155.011 128.888 155.368 129.245 155.805 129.48C156.253 129.715 156.739 129.832 157.261 129.832C157.784 129.832 158.264 129.715 158.701 129.48C159.149 129.245 159.507 128.888 159.773 128.408C160.051 127.917 160.189 127.32 160.189 126.616C160.189 125.901 160.051 125.304 159.773 124.824C159.507 124.333 159.149 123.971 158.701 123.736C158.264 123.501 157.784 123.384 157.261 123.384ZM175.592 126.12C175.592 126.429 175.57 126.696 175.528 126.92H168.504C168.536 127.923 168.818 128.675 169.352 129.176C169.896 129.677 170.557 129.928 171.336 129.928C172.04 129.928 172.626 129.752 173.096 129.4C173.576 129.037 173.869 128.557 173.976 127.96H175.528C175.421 128.568 175.181 129.112 174.808 129.592C174.445 130.072 173.97 130.445 173.384 130.712C172.797 130.979 172.136 131.112 171.4 131.112C170.557 131.112 169.81 130.931 169.16 130.568C168.509 130.205 167.997 129.688 167.624 129.016C167.261 128.333 167.08 127.533 167.08 126.616C167.08 125.699 167.261 124.899 167.624 124.216C167.997 123.533 168.509 123.011 169.16 122.648C169.81 122.285 170.557 122.104 171.4 122.104C172.253 122.104 172.994 122.285 173.624 122.648C174.264 123.011 174.749 123.496 175.08 124.104C175.421 124.712 175.592 125.384 175.592 126.12ZM174.12 126.216C174.152 125.565 174.045 125.021 173.8 124.584C173.554 124.147 173.218 123.821 172.792 123.608C172.365 123.395 171.901 123.288 171.4 123.288C170.6 123.288 169.928 123.539 169.384 124.04C168.84 124.531 168.546 125.256 168.504 126.216H174.12ZM181.192 122.136C182.003 122.136 182.691 122.333 183.256 122.728C183.832 123.112 184.248 123.635 184.504 124.296V122.216H185.96V135.16H184.504V128.856C184.237 129.549 183.816 130.099 183.24 130.504C182.675 130.909 181.992 131.112 181.192 131.112C180.413 131.112 179.709 130.931 179.08 130.568C178.451 130.195 177.955 129.672 177.592 129C177.24 128.317 177.064 127.528 177.064 126.632C177.064 125.736 177.24 124.952 177.592 124.28C177.955 123.597 178.451 123.069 179.08 122.696C179.709 122.323 180.413 122.136 181.192 122.136ZM181.512 123.4C180.637 123.4 179.923 123.688 179.368 124.264C178.824 124.829 178.552 125.619 178.552 126.632C178.552 127.645 178.824 128.435 179.368 129C179.912 129.555 180.627 129.832 181.512 129.832C182.067 129.832 182.568 129.704 183.016 129.448C183.475 129.181 183.837 128.808 184.104 128.328C184.371 127.837 184.504 127.267 184.504 126.616C184.504 125.965 184.371 125.4 184.104 124.92C183.837 124.429 183.475 124.056 183.016 123.8C182.568 123.533 182.067 123.4 181.512 123.4ZM196.085 122.216V131H194.629V128.936C194.405 129.651 194.005 130.2 193.429 130.584C192.864 130.957 192.203 131.144 191.445 131.144C190.432 131.144 189.611 130.819 188.981 130.168C188.352 129.507 188.037 128.563 188.037 127.336V122.216H189.493V127.192C189.493 128.067 189.717 128.744 190.165 129.224C190.613 129.693 191.221 129.928 191.989 129.928C192.789 129.928 193.429 129.672 193.909 129.16C194.389 128.637 194.629 127.88 194.629 126.888V122.216H196.085ZM198.162 119.64C198.162 119.373 198.253 119.16 198.434 119C198.615 118.829 198.855 118.744 199.154 118.744C199.453 118.744 199.693 118.829 199.874 119C200.055 119.16 200.146 119.373 200.146 119.64C200.146 119.907 200.055 120.125 199.874 120.296C199.693 120.456 199.453 120.536 199.154 120.536C198.855 120.536 198.615 120.456 198.434 120.296C198.253 120.125 198.162 119.907 198.162 119.64ZM199.874 122.216V131H198.418V122.216H199.874ZM206.407 129.72V131H205.319C204.423 131 203.751 130.787 203.303 130.36C202.866 129.933 202.647 129.219 202.647 128.216V123.48H201.335V122.216H202.647V120.024H204.119V122.216H206.391V123.48H204.119V128.248C204.119 128.813 204.22 129.203 204.423 129.416C204.636 129.619 204.999 129.72 205.511 129.72H206.407ZM208.792 122.216L211.64 129.128L214.28 122.216H215.896L210.68 135.16H209.032L210.856 130.856L207.16 122.216H208.792Z" fill="#232536"/>
<path opacity="0.6" d="M54.672 98.16C55.3653 98.3093 55.9253 98.64 56.352 99.152C56.7893 99.664 57.008 100.267 57.008 100.96C57.008 101.877 56.6933 102.613 56.064 103.168C55.4453 103.723 54.544 104 53.36 104H49.168V92.72H53.296C54.4267 92.72 55.2853 92.9707 55.872 93.472C56.4587 93.9733 56.752 94.6613 56.752 95.536C56.752 96.2613 56.5547 96.848 56.16 97.296C55.776 97.744 55.28 98.032 54.672 98.16ZM50.624 97.664H53.056C53.7707 97.664 54.3147 97.4987 54.688 97.168C55.072 96.8373 55.264 96.3733 55.264 95.776C55.264 95.2 55.0773 94.7467 54.704 94.416C54.3307 94.0853 53.76 93.92 52.992 93.92H50.624V97.664ZM53.088 102.784C53.856 102.784 54.448 102.608 54.864 102.256C55.2907 101.904 55.504 101.408 55.504 100.768C55.504 100.139 55.2853 99.648 54.848 99.296C54.4213 98.9333 53.824 98.752 53.056 98.752H50.624V102.784H53.088ZM66.9043 99.12C66.9043 99.4293 66.8829 99.696 66.8403 99.92H59.8163C59.8483 100.923 60.1309 101.675 60.6643 102.176C61.2083 102.677 61.8696 102.928 62.6483 102.928C63.3523 102.928 63.9389 102.752 64.4083 102.4C64.8883 102.037 65.1816 101.557 65.2883 100.96H66.8403C66.7336 101.568 66.4936 102.112 66.1203 102.592C65.7576 103.072 65.2829 103.445 64.6963 103.712C64.1096 103.979 63.4483 104.112 62.7123 104.112C61.8696 104.112 61.1229 103.931 60.4723 103.568C59.8216 103.205 59.3096 102.688 58.9363 102.016C58.5736 101.333 58.3923 100.533 58.3923 99.616C58.3923 98.6987 58.5736 97.8987 58.9363 97.216C59.3096 96.5333 59.8216 96.0107 60.4723 95.648C61.1229 95.2853 61.8696 95.104 62.7123 95.104C63.5656 95.104 64.3069 95.2853 64.9363 95.648C65.5763 96.0107 66.0616 96.496 66.3923 97.104C66.7336 97.712 66.9043 98.384 66.9043 99.12ZM65.4323 99.216C65.4643 98.5653 65.3576 98.0213 65.1123 97.584C64.8669 97.1467 64.5309 96.8213 64.1043 96.608C63.6776 96.3947 63.2136 96.288 62.7123 96.288C61.9123 96.288 61.2403 96.5387 60.6963 97.04C60.1523 97.5307 59.8589 98.256 59.8163 99.216H65.4323ZM73.4326 95.072C74.4566 95.072 75.2833 95.4027 75.9126 96.064C76.542 96.7147 76.8566 97.6587 76.8566 98.896V104H75.4006V99.024C75.4006 98.1493 75.1766 97.4773 74.7286 97.008C74.2806 96.5387 73.6726 96.304 72.9046 96.304C72.1046 96.304 71.4646 96.5653 70.9846 97.088C70.5046 97.6 70.2646 98.352 70.2646 99.344V104H68.8086V95.216H70.2646V97.296C70.4886 96.5813 70.8833 96.032 71.4486 95.648C72.0246 95.264 72.686 95.072 73.4326 95.072ZM82.6899 95.104C83.5432 95.104 84.2632 95.3173 84.8499 95.744C85.4472 96.1707 85.8632 96.7413 86.0979 97.456V95.216H87.5539V104.144C87.5539 104.955 87.3832 105.675 87.0419 106.304C86.7005 106.933 86.2205 107.424 85.6019 107.776C84.9832 108.128 84.2632 108.304 83.4419 108.304C82.2579 108.304 81.2925 108.016 80.5459 107.44C79.7992 106.875 79.3245 106.107 79.1219 105.136H80.5619C80.7325 105.723 81.0525 106.181 81.5219 106.512C82.0019 106.853 82.6152 107.024 83.3619 107.024C84.1512 107.024 84.8019 106.768 85.3139 106.256C85.8365 105.755 86.0979 105.051 86.0979 104.144V101.76C85.8632 102.475 85.4472 103.045 84.8499 103.472C84.2632 103.899 83.5432 104.112 82.6899 104.112C81.9112 104.112 81.2179 103.931 80.6099 103.568C80.0019 103.205 79.5219 102.688 79.1699 102.016C78.8285 101.333 78.6579 100.533 78.6579 99.616C78.6579 98.6987 78.8285 97.8987 79.1699 97.216C79.5219 96.5333 80.0019 96.0107 80.6099 95.648C81.2179 95.2853 81.9112 95.104 82.6899 95.104ZM83.1059 96.4C82.2099 96.4 81.4899 96.688 80.9459 97.264C80.4125 97.8293 80.1459 98.6133 80.1459 99.616C80.1459 100.619 80.4125 101.408 80.9459 101.984C81.4899 102.549 82.2099 102.832 83.1059 102.832C83.6819 102.832 84.1939 102.699 84.6419 102.432C85.1005 102.165 85.4579 101.792 85.7139 101.312C85.9699 100.821 86.0979 100.256 86.0979 99.616C86.0979 98.976 85.9699 98.4107 85.7139 97.92C85.4579 97.4293 85.1005 97.056 84.6419 96.8C84.1939 96.5333 83.6819 96.4 83.1059 96.4ZM93.4711 95.104C94.3245 95.104 95.0445 95.3173 95.6311 95.744C96.2285 96.1707 96.6445 96.7413 96.8791 97.456V95.216H98.3351V104H96.8791V101.76C96.6445 102.475 96.2285 103.045 95.6311 103.472C95.0445 103.899 94.3245 104.112 93.4711 104.112C92.6925 104.112 91.9991 103.931 91.3911 103.568C90.7831 103.205 90.3031 102.688 89.9511 102.016C89.6098 101.333 89.4391 100.533 89.4391 99.616C89.4391 98.6987 89.6098 97.8987 89.9511 97.216C90.3031 96.5333 90.7831 96.0107 91.3911 95.648C91.9991 95.2853 92.6925 95.104 93.4711 95.104ZM93.8871 96.4C92.9911 96.4 92.2711 96.688 91.7271 97.264C91.1938 97.8293 90.9271 98.6133 90.9271 99.616C90.9271 100.619 91.1938 101.408 91.7271 101.984C92.2711 102.549 92.9911 102.832 93.8871 102.832C94.4631 102.832 94.9751 102.699 95.4231 102.432C95.8818 102.165 96.2391 101.792 96.4951 101.312C96.7511 100.821 96.8791 100.256 96.8791 99.616C96.8791 98.976 96.7511 98.4107 96.4951 97.92C96.2391 97.4293 95.8818 97.056 95.4231 96.8C94.9751 96.5333 94.4631 96.4 93.8871 96.4ZM102.108 92.16V104H100.652V92.16H102.108ZM112.257 95.216V104H110.801V101.936C110.577 102.651 110.177 103.2 109.601 103.584C109.036 103.957 108.375 104.144 107.617 104.144C106.604 104.144 105.783 103.819 105.153 103.168C104.524 102.507 104.209 101.563 104.209 100.336V95.216H105.665V100.192C105.665 101.067 105.889 101.744 106.337 102.224C106.785 102.693 107.393 102.928 108.161 102.928C108.961 102.928 109.601 102.672 110.081 102.16C110.561 101.637 110.801 100.88 110.801 99.888V95.216H112.257ZM116.046 96.992C116.334 96.384 116.755 95.9147 117.31 95.584C117.865 95.2427 118.526 95.072 119.294 95.072V96.656H118.846C118.025 96.656 117.353 96.8693 116.83 97.296C116.307 97.712 116.046 98.4053 116.046 99.376V104H114.59V95.216H116.046V96.992ZM128.539 95.216V104H127.083V101.936C126.859 102.651 126.459 103.2 125.883 103.584C125.317 103.957 124.656 104.144 123.899 104.144C122.885 104.144 122.064 103.819 121.435 103.168C120.805 102.507 120.491 101.563 120.491 100.336V95.216H121.947V100.192C121.947 101.067 122.171 101.744 122.619 102.224C123.067 102.693 123.675 102.928 124.443 102.928C125.243 102.928 125.883 102.672 126.363 102.16C126.843 101.637 127.083 100.88 127.083 99.888V95.216H128.539ZM135.976 97.728V99.44H134.216V97.728H135.976ZM148.068 92.72V93.904H143.14V97.808H147.316V98.944H143.14V104H141.684V92.72H148.068ZM157.601 95.216V104H156.145V101.936C155.921 102.651 155.521 103.2 154.945 103.584C154.38 103.957 153.718 104.144 152.961 104.144C151.948 104.144 151.126 103.819 150.497 103.168C149.868 102.507 149.553 101.563 149.553 100.336V95.216H151.009V100.192C151.009 101.067 151.233 101.744 151.681 102.224C152.129 102.693 152.737 102.928 153.505 102.928C154.305 102.928 154.945 102.672 155.425 102.16C155.905 101.637 156.145 100.88 156.145 99.888V95.216H157.601ZM161.39 92.16V104H159.934V92.16H161.39ZM165.187 92.16V104H163.731V92.16H165.187ZM178.392 92.72V93.904H175.209V104H173.753V93.904H170.569V92.72H178.392ZM179.584 92.64C179.584 92.3733 179.675 92.16 179.856 92C180.037 91.8293 180.277 91.744 180.576 91.744C180.875 91.744 181.115 91.8293 181.296 92C181.477 92.16 181.568 92.3733 181.568 92.64C181.568 92.9067 181.477 93.1253 181.296 93.296C181.115 93.456 180.875 93.536 180.576 93.536C180.277 93.536 180.037 93.456 179.856 93.296C179.675 93.1253 179.584 92.9067 179.584 92.64ZM181.296 95.216V104H179.84V95.216H181.296ZM194.437 95.072C195.461 95.072 196.282 95.4027 196.901 96.064C197.53 96.7147 197.845 97.6587 197.845 98.896V104H196.389V99.024C196.389 98.16 196.175 97.4987 195.749 97.04C195.333 96.5813 194.757 96.352 194.021 96.352C193.253 96.352 192.634 96.608 192.165 97.12C191.706 97.6213 191.477 98.3627 191.477 99.344V104H190.021V99.024C190.021 98.16 189.807 97.4987 189.381 97.04C188.954 96.5813 188.378 96.352 187.653 96.352C186.874 96.352 186.25 96.608 185.781 97.12C185.322 97.6213 185.093 98.3627 185.093 99.344V104H183.637V95.216H185.093V97.216C185.306 96.5227 185.685 95.9947 186.229 95.632C186.783 95.2587 187.418 95.072 188.133 95.072C188.879 95.072 189.525 95.264 190.069 95.648C190.623 96.0213 191.018 96.576 191.253 97.312C191.498 96.5973 191.909 96.048 192.485 95.664C193.061 95.2693 193.711 95.072 194.437 95.072ZM208.186 99.12C208.186 99.4293 208.164 99.696 208.122 99.92H201.098C201.13 100.923 201.412 101.675 201.946 102.176C202.49 102.677 203.151 102.928 203.93 102.928C204.634 102.928 205.22 102.752 205.69 102.4C206.17 102.037 206.463 101.557 206.57 100.96H208.122C208.015 101.568 207.775 102.112 207.402 102.592C207.039 103.072 206.564 103.445 205.978 103.712C205.391 103.979 204.73 104.112 203.994 104.112C203.151 104.112 202.404 103.931 201.754 103.568C201.103 103.205 200.591 102.688 200.218 102.016C199.855 101.333 199.674 100.533 199.674 99.616C199.674 98.6987 199.855 97.8987 200.218 97.216C200.591 96.5333 201.103 96.0107 201.754 95.648C202.404 95.2853 203.151 95.104 203.994 95.104C204.847 95.104 205.588 95.2853 206.218 95.648C206.858 96.0107 207.343 96.496 207.674 97.104C208.015 97.712 208.186 98.384 208.186 99.12ZM206.714 99.216C206.746 98.5653 206.639 98.0213 206.394 97.584C206.148 97.1467 205.812 96.8213 205.386 96.608C204.959 96.3947 204.495 96.288 203.994 96.288C203.194 96.288 202.522 96.5387 201.978 97.04C201.434 97.5307 201.14 98.256 201.098 99.216H206.714Z" fill="#232536"/>
<path d="M56.032 56.704V58.496H51.28V61.52H55.088V63.248H51.28V68H49.024V56.704H56.032ZM66.0353 59.136V68H63.7793V66.208C63.5446 66.8053 63.1553 67.2747 62.6113 67.616C62.0779 67.9467 61.4593 68.112 60.7552 68.112C59.7313 68.112 58.9153 67.776 58.3073 67.104C57.6993 66.432 57.3953 65.4933 57.3953 64.288V59.136H59.6353V64.032C59.6353 64.736 59.8166 65.2853 60.1793 65.68C60.5419 66.064 61.0326 66.256 61.6513 66.256C62.3019 66.256 62.8193 66.048 63.2033 65.632C63.5873 65.216 63.7793 64.6187 63.7793 63.84V59.136H66.0353ZM70.3425 56.16V68H68.0865V56.16H70.3425ZM74.6394 56.16V68H72.3834V56.16H74.6394ZM87.9246 64.912C87.9246 65.488 87.7806 66.0213 87.4926 66.512C87.2046 66.992 86.778 67.3813 86.2126 67.68C85.6473 67.968 84.9593 68.112 84.1486 68.112C83.3486 68.112 82.634 67.9787 82.0046 67.712C81.3753 67.4347 80.8686 67.04 80.4846 66.528C80.1113 66.016 79.898 65.4187 79.8446 64.736H82.2446C82.298 65.1947 82.4793 65.5787 82.7886 65.888C83.1086 66.1867 83.53 66.336 84.0526 66.336C84.522 66.336 84.8793 66.2133 85.1246 65.968C85.3806 65.712 85.5086 65.3867 85.5086 64.992C85.5086 64.64 85.4073 64.352 85.2046 64.128C85.002 63.8933 84.746 63.7067 84.4366 63.568C84.1273 63.4293 83.7006 63.2693 83.1566 63.088C82.4526 62.8533 81.8766 62.624 81.4286 62.4C80.9806 62.1653 80.5966 61.8293 80.2766 61.392C79.9673 60.9547 79.8126 60.384 79.8126 59.68C79.8126 58.7093 80.1593 57.9467 80.8526 57.392C81.5566 56.8267 82.4846 56.544 83.6366 56.544C84.8313 56.544 85.7806 56.832 86.4846 57.408C87.1993 57.984 87.6046 58.752 87.7006 59.712H85.2686C85.2046 59.3067 85.034 58.976 84.7566 58.72C84.4793 58.4533 84.1006 58.32 83.6206 58.32C83.2046 58.32 82.8686 58.432 82.6126 58.656C82.3566 58.8693 82.2286 59.184 82.2286 59.6C82.2286 59.9307 82.3246 60.208 82.5166 60.432C82.7193 60.6453 82.97 60.8213 83.2686 60.96C83.578 61.0987 83.994 61.2533 84.5166 61.424C85.242 61.68 85.8286 61.92 86.2766 62.144C86.7353 62.368 87.1246 62.704 87.4446 63.152C87.7646 63.6 87.9246 64.1867 87.9246 64.912ZM94.3225 66.064V68H93.1385C92.1465 68 91.3838 67.76 90.8505 67.28C90.3278 66.8 90.0665 66 90.0665 64.88V61.04H88.8345V59.136H90.0665V56.944H92.3225V59.136H94.3065V61.04H92.3225V64.912C92.3225 65.3387 92.4078 65.6373 92.5785 65.808C92.7492 65.9787 93.0372 66.064 93.4425 66.064H94.3225ZM99.4179 59.024C100.165 59.024 100.805 59.2 101.338 59.552C101.871 59.904 102.25 60.3787 102.474 60.976V59.136H104.714V68H102.474V66.144C102.25 66.7413 101.871 67.2213 101.338 67.584C100.805 67.936 100.165 68.112 99.4179 68.112C98.6712 68.112 97.9992 67.9307 97.4019 67.568C96.8045 67.2053 96.3352 66.6827 95.9939 66C95.6632 65.3067 95.4979 64.496 95.4979 63.568C95.4979 62.64 95.6632 61.8347 95.9939 61.152C96.3352 60.4587 96.8045 59.9307 97.4019 59.568C97.9992 59.2053 98.6712 59.024 99.4179 59.024ZM100.122 60.992C99.4179 60.992 98.8525 61.2213 98.4259 61.68C97.9992 62.1387 97.7859 62.768 97.7859 63.568C97.7859 64.368 97.9992 64.9973 98.4259 65.456C98.8525 65.904 99.4179 66.128 100.122 66.128C100.805 66.128 101.365 65.8987 101.802 65.44C102.25 64.9707 102.474 64.3467 102.474 63.568C102.474 62.7787 102.25 62.1547 101.802 61.696C101.365 61.2267 100.805 60.992 100.122 60.992ZM110.742 59.024C111.884 59.024 112.833 59.3333 113.59 59.952C114.358 60.5707 114.838 61.4133 115.03 62.48H112.646C112.55 62.0107 112.332 61.6427 111.99 61.376C111.649 61.0987 111.217 60.96 110.694 60.96C110.097 60.96 109.596 61.184 109.19 61.632C108.796 62.0693 108.598 62.7147 108.598 63.568C108.598 64.4213 108.796 65.072 109.19 65.52C109.596 65.9573 110.097 66.176 110.694 66.176C111.217 66.176 111.649 66.0427 111.99 65.776C112.332 65.4987 112.55 65.1253 112.646 64.656H115.03C114.838 65.7227 114.358 66.5653 113.59 67.184C112.833 67.8027 111.884 68.112 110.742 68.112C109.878 68.112 109.11 67.9307 108.438 67.568C107.766 67.1947 107.244 66.6667 106.87 65.984C106.497 65.3013 106.31 64.496 106.31 63.568C106.31 62.64 106.497 61.8347 106.87 61.152C107.244 60.4587 107.766 59.9307 108.438 59.568C109.11 59.2053 109.878 59.024 110.742 59.024ZM121.817 68L118.889 64.128V68H116.633V56.16H118.889V62.816L121.801 59.136H124.473L120.745 63.552L124.569 68H121.817ZM139.085 62.336C139.085 63.456 138.85 64.4427 138.381 65.296C137.912 66.1493 137.229 66.816 136.333 67.296C135.448 67.7653 134.392 68 133.165 68H129.149V56.704H133.165C134.392 56.704 135.448 56.9387 136.333 57.408C137.229 57.8667 137.912 58.5227 138.381 59.376C138.85 60.2187 139.085 61.2053 139.085 62.336ZM132.973 65.984C134.189 65.984 135.128 65.664 135.789 65.024C136.461 64.384 136.797 63.488 136.797 62.336C136.797 61.1733 136.461 60.272 135.789 59.632C135.128 58.992 134.189 58.672 132.973 58.672H131.405V65.984H132.973ZM149.11 63.232C149.11 63.456 149.083 63.712 149.03 64H142.534C142.566 64.7893 142.779 65.3707 143.174 65.744C143.569 66.1173 144.059 66.304 144.646 66.304C145.169 66.304 145.601 66.176 145.942 65.92C146.294 65.664 146.518 65.3173 146.614 64.88H148.998C148.881 65.4987 148.63 66.0533 148.246 66.544C147.862 67.0347 147.366 67.4187 146.758 67.696C146.161 67.9733 145.494 68.112 144.758 68.112C143.894 68.112 143.126 67.9307 142.454 67.568C141.782 67.1947 141.259 66.6667 140.886 65.984C140.513 65.3013 140.326 64.496 140.326 63.568C140.326 62.64 140.513 61.8347 140.886 61.152C141.259 60.4587 141.782 59.9307 142.454 59.568C143.126 59.2053 143.894 59.024 144.758 59.024C145.633 59.024 146.395 59.2053 147.046 59.568C147.707 59.9307 148.214 60.432 148.566 61.072C148.929 61.7013 149.11 62.4213 149.11 63.232ZM146.838 63.008C146.87 62.2827 146.678 61.7333 146.262 61.36C145.857 60.9867 145.355 60.8 144.758 60.8C144.15 60.8 143.638 60.9867 143.222 61.36C142.806 61.7333 142.577 62.2827 142.534 63.008H146.838ZM154.568 65.744L156.808 59.136H159.208L155.928 68H153.176L149.896 59.136H152.312L154.568 65.744ZM168.798 63.232C168.798 63.456 168.771 63.712 168.718 64H162.222C162.254 64.7893 162.467 65.3707 162.862 65.744C163.256 66.1173 163.747 66.304 164.334 66.304C164.856 66.304 165.288 66.176 165.63 65.92C165.982 65.664 166.206 65.3173 166.302 64.88H168.686C168.568 65.4987 168.318 66.0533 167.934 66.544C167.55 67.0347 167.054 67.4187 166.446 67.696C165.848 67.9733 165.182 68.112 164.446 68.112C163.582 68.112 162.814 67.9307 162.142 67.568C161.47 67.1947 160.947 66.6667 160.574 65.984C160.2 65.3013 160.014 64.496 160.014 63.568C160.014 62.64 160.2 61.8347 160.574 61.152C160.947 60.4587 161.47 59.9307 162.142 59.568C162.814 59.2053 163.582 59.024 164.446 59.024C165.32 59.024 166.083 59.2053 166.734 59.568C167.395 59.9307 167.902 60.432 168.253 61.072C168.616 61.7013 168.798 62.4213 168.798 63.232ZM166.526 63.008C166.558 62.2827 166.366 61.7333 165.95 61.36C165.544 60.9867 165.043 60.8 164.446 60.8C163.838 60.8 163.326 60.9867 162.91 61.36C162.494 61.7333 162.264 62.2827 162.222 63.008H166.526ZM172.655 56.16V68H170.399V56.16H172.655ZM178.792 59.024C179.656 59.024 180.429 59.2053 181.112 59.568C181.805 59.9307 182.349 60.4587 182.744 61.152C183.139 61.8347 183.336 62.64 183.336 63.568C183.336 64.496 183.139 65.3013 182.744 65.984C182.349 66.6667 181.805 67.1947 181.112 67.568C180.429 67.9307 179.656 68.112 178.792 68.112C177.928 68.112 177.149 67.9307 176.456 67.568C175.773 67.1947 175.235 66.6667 174.84 65.984C174.445 65.3013 174.248 64.496 174.248 63.568C174.248 62.64 174.445 61.8347 174.84 61.152C175.235 60.4587 175.773 59.9307 176.456 59.568C177.149 59.2053 177.928 59.024 178.792 59.024ZM178.792 60.976C178.163 60.976 177.629 61.2 177.192 61.648C176.755 62.0853 176.536 62.7253 176.536 63.568C176.536 64.4107 176.755 65.056 177.192 65.504C177.629 65.9413 178.163 66.16 178.792 66.16C179.421 66.16 179.955 65.9413 180.392 65.504C180.829 65.056 181.048 64.4107 181.048 63.568C181.048 62.7253 180.829 62.0853 180.392 61.648C179.955 61.2 179.421 60.976 178.792 60.976ZM190.226 59.024C190.973 59.024 191.645 59.2053 192.242 59.568C192.84 59.9307 193.304 60.4587 193.634 61.152C193.976 61.8347 194.146 62.64 194.146 63.568C194.146 64.496 193.976 65.3067 193.634 66C193.304 66.6827 192.84 67.2053 192.242 67.568C191.645 67.9307 190.973 68.112 190.226 68.112C189.48 68.112 188.84 67.936 188.306 67.584C187.784 67.2213 187.41 66.7413 187.186 66.144V72.224H184.93V59.136H187.186V60.976C187.41 60.3787 187.784 59.904 188.306 59.552C188.84 59.2 189.48 59.024 190.226 59.024ZM189.522 60.992C188.84 60.992 188.274 61.2267 187.826 61.696C187.389 62.1547 187.17 62.7787 187.17 63.568C187.17 64.3467 187.389 64.9707 187.826 65.44C188.274 65.8987 188.84 66.128 189.522 66.128C190.226 66.128 190.792 65.904 191.218 65.456C191.645 64.9973 191.858 64.368 191.858 63.568C191.858 62.768 191.645 62.1387 191.218 61.68C190.792 61.2213 190.226 60.992 189.522 60.992ZM204.079 63.232C204.079 63.456 204.052 63.712 203.999 64H197.503C197.535 64.7893 197.748 65.3707 198.143 65.744C198.537 66.1173 199.028 66.304 199.615 66.304C200.137 66.304 200.569 66.176 200.911 65.92C201.263 65.664 201.487 65.3173 201.583 64.88H203.967C203.849 65.4987 203.599 66.0533 203.215 66.544C202.831 67.0347 202.335 67.4187 201.727 67.696C201.129 67.9733 200.463 68.112 199.727 68.112C198.863 68.112 198.095 67.9307 197.423 67.568C196.751 67.1947 196.228 66.6667 195.855 65.984C195.481 65.3013 195.295 64.496 195.295 63.568C195.295 62.64 195.481 61.8347 195.855 61.152C196.228 60.4587 196.751 59.9307 197.423 59.568C198.095 59.2053 198.863 59.024 199.727 59.024C200.601 59.024 201.364 59.2053 202.015 59.568C202.676 59.9307 203.183 60.432 203.535 61.072C203.897 61.7013 204.079 62.4213 204.079 63.232ZM201.807 63.008C201.839 62.2827 201.647 61.7333 201.231 61.36C200.825 60.9867 200.324 60.8 199.727 60.8C199.119 60.8 198.607 60.9867 198.191 61.36C197.775 61.7333 197.545 62.2827 197.503 63.008H201.807ZM207.936 60.832C208.267 60.2667 208.704 59.824 209.248 59.504C209.792 59.1733 210.4 59.008 211.072 59.008V61.424H210.416C208.763 61.424 207.936 62.192 207.936 63.728V68H205.68V59.136H207.936V60.832Z" fill="#232536"/>
</svg>
