<svg width="123" height="24" viewBox="0 0 123 24" fill="none" xmlns="http://www.w3.org/2000/svg">
<path opacity="0.87" d="M6.976 18L4.416 13.552H3.024V18H1.2V6.88H5.04C5.89333 6.88 6.61333 7.02933 7.2 7.328C7.79733 7.62667 8.24 8.02667 8.528 8.528C8.82667 9.02933 8.976 9.58933 8.976 10.208C8.976 10.9333 8.76267 11.5947 8.336 12.192C7.92 12.7787 7.27467 13.1787 6.4 13.392L9.152 18H6.976ZM3.024 12.096H5.04C5.72267 12.096 6.23467 11.9253 6.576 11.584C6.928 11.2427 7.104 10.784 7.104 10.208C7.104 9.632 6.93333 9.184 6.592 8.864C6.25067 8.53333 5.73333 8.368 5.04 8.368H3.024V12.096ZM19.3894 13.376C19.3894 13.7067 19.368 14.0053 19.3254 14.272H12.5894C12.6427 14.976 12.904 15.5413 13.3734 15.968C13.8427 16.3947 14.4187 16.608 15.1014 16.608C16.0827 16.608 16.776 16.1973 17.1814 15.376H19.1494C18.8827 16.1867 18.3974 16.8533 17.6934 17.376C17 17.888 16.136 18.144 15.1014 18.144C14.2587 18.144 13.5014 17.9573 12.8294 17.584C12.168 17.2 11.6454 16.6667 11.2614 15.984C10.888 15.2907 10.7014 14.4907 10.7014 13.584C10.7014 12.6773 10.8827 11.8827 11.2454 11.2C11.6187 10.5067 12.136 9.97333 12.7974 9.6C13.4694 9.22667 14.2374 9.04 15.1014 9.04C15.9334 9.04 16.6747 9.22133 17.3254 9.584C17.976 9.94667 18.4827 10.4587 18.8454 11.12C19.208 11.7707 19.3894 12.5227 19.3894 13.376ZM17.4854 12.8C17.4747 12.128 17.2347 11.5893 16.7654 11.184C16.296 10.7787 15.7147 10.576 15.0214 10.576C14.392 10.576 13.8534 10.7787 13.4054 11.184C12.9574 11.5787 12.6907 12.1173 12.6054 12.8H17.4854ZM20.5764 13.552C20.5764 12.6667 20.7577 11.8827 21.1204 11.2C21.4937 10.5173 21.995 9.98933 22.6244 9.616C23.2644 9.232 23.9684 9.04 24.7364 9.04C25.4297 9.04 26.0324 9.17867 26.5444 9.456C27.067 9.72267 27.483 10.0587 27.7924 10.464V9.184H29.6324V18H27.7924V16.688C27.483 17.104 27.0617 17.4507 26.5284 17.728C25.995 18.0053 25.387 18.144 24.7044 18.144C23.947 18.144 23.2537 17.952 22.6244 17.568C21.995 17.1733 21.4937 16.6293 21.1204 15.936C20.7577 15.232 20.5764 14.4373 20.5764 13.552ZM27.7924 13.584C27.7924 12.976 27.6644 12.448 27.4084 12C27.163 11.552 26.8377 11.2107 26.4324 10.976C26.027 10.7413 25.5897 10.624 25.1204 10.624C24.651 10.624 24.2137 10.7413 23.8084 10.976C23.403 11.2 23.0724 11.536 22.8164 11.984C22.571 12.4213 22.4484 12.944 22.4484 13.552C22.4484 14.16 22.571 14.6933 22.8164 15.152C23.0724 15.6107 23.403 15.9627 23.8084 16.208C24.2244 16.4427 24.6617 16.56 25.1204 16.56C25.5897 16.56 26.027 16.4427 26.4324 16.208C26.8377 15.9733 27.163 15.632 27.4084 15.184C27.6644 14.7253 27.7924 14.192 27.7924 13.584ZM31.4201 13.552C31.4201 12.6667 31.6015 11.8827 31.9641 11.2C32.3375 10.5173 32.8388 9.98933 33.4681 9.616C34.1081 9.232 34.8175 9.04 35.5961 9.04C36.1721 9.04 36.7375 9.168 37.2921 9.424C37.8575 9.66933 38.3055 10 38.6361 10.416V6.16H40.4761V18H38.6361V16.672C38.3375 17.0987 37.9215 17.4507 37.3881 17.728C36.8655 18.0053 36.2628 18.144 35.5801 18.144C34.8121 18.144 34.1081 17.952 33.4681 17.568C32.8388 17.1733 32.3375 16.6293 31.9641 15.936C31.6015 15.232 31.4201 14.4373 31.4201 13.552ZM38.6361 13.584C38.6361 12.976 38.5081 12.448 38.2521 12C38.0068 11.552 37.6815 11.2107 37.2761 10.976C36.8708 10.7413 36.4335 10.624 35.9641 10.624C35.4948 10.624 35.0575 10.7413 34.6521 10.976C34.2468 11.2 33.9161 11.536 33.6601 11.984C33.4148 12.4213 33.2921 12.944 33.2921 13.552C33.2921 14.16 33.4148 14.6933 33.6601 15.152C33.9161 15.6107 34.2468 15.9627 34.6521 16.208C35.0681 16.4427 35.5055 16.56 35.9641 16.56C36.4335 16.56 36.8708 16.4427 37.2761 16.208C37.6815 15.9733 38.0068 15.632 38.2521 15.184C38.5081 14.7253 38.6361 14.192 38.6361 13.584ZM58.7401 6.88V18H56.9161V10.384L53.5241 18H52.2601L48.8521 10.384V18H47.0281V6.88H48.9961L52.9001 15.6L56.7881 6.88H58.7401ZM64.9615 18.144C64.1295 18.144 63.3775 17.9573 62.7055 17.584C62.0335 17.2 61.5055 16.6667 61.1215 15.984C60.7375 15.2907 60.5455 14.4907 60.5455 13.584C60.5455 12.688 60.7428 11.8933 61.1375 11.2C61.5322 10.5067 62.0708 9.97333 62.7535 9.6C63.4362 9.22667 64.1988 9.04 65.0415 9.04C65.8842 9.04 66.6468 9.22667 67.3295 9.6C68.0122 9.97333 68.5508 10.5067 68.9455 11.2C69.3402 11.8933 69.5375 12.688 69.5375 13.584C69.5375 14.48 69.3348 15.2747 68.9295 15.968C68.5242 16.6613 67.9695 17.2 67.2655 17.584C66.5722 17.9573 65.8042 18.144 64.9615 18.144ZM64.9615 16.56C65.4308 16.56 65.8682 16.448 66.2735 16.224C66.6895 16 67.0255 15.664 67.2815 15.216C67.5375 14.768 67.6655 14.224 67.6655 13.584C67.6655 12.944 67.5428 12.4053 67.2975 11.968C67.0522 11.52 66.7268 11.184 66.3215 10.96C65.9162 10.736 65.4788 10.624 65.0095 10.624C64.5402 10.624 64.1028 10.736 63.6975 10.96C63.3028 11.184 62.9882 11.52 62.7535 11.968C62.5188 12.4053 62.4015 12.944 62.4015 13.584C62.4015 14.5333 62.6415 15.2693 63.1215 15.792C63.6122 16.304 64.2255 16.56 64.9615 16.56ZM73.1646 10.464C73.4313 10.016 73.7833 9.66933 74.2206 9.424C74.6686 9.168 75.1966 9.04 75.8046 9.04V10.928H75.3406C74.626 10.928 74.082 11.1093 73.7086 11.472C73.346 11.8347 73.1646 12.464 73.1646 13.36V18H71.3406V9.184H73.1646V10.464ZM85.5613 13.376C85.5613 13.7067 85.5399 14.0053 85.4973 14.272H78.7613C78.8146 14.976 79.0759 15.5413 79.5453 15.968C80.0146 16.3947 80.5906 16.608 81.2733 16.608C82.2546 16.608 82.9479 16.1973 83.3533 15.376H85.3212C85.0546 16.1867 84.5693 16.8533 83.8653 17.376C83.1719 17.888 82.3079 18.144 81.2733 18.144C80.4306 18.144 79.6733 17.9573 79.0013 17.584C78.3399 17.2 77.8173 16.6667 77.4333 15.984C77.0599 15.2907 76.8733 14.4907 76.8733 13.584C76.8733 12.6773 77.0546 11.8827 77.4173 11.2C77.7906 10.5067 78.3079 9.97333 78.9693 9.6C79.6413 9.22667 80.4093 9.04 81.2733 9.04C82.1053 9.04 82.8466 9.22133 83.4973 9.584C84.1479 9.94667 84.6546 10.4587 85.0173 11.12C85.3799 11.7707 85.5613 12.5227 85.5613 13.376ZM83.6573 12.8C83.6466 12.128 83.4066 11.5893 82.9373 11.184C82.4679 10.7787 81.8866 10.576 81.1933 10.576C80.5639 10.576 80.0253 10.7787 79.5773 11.184C79.1293 11.5787 78.8626 12.1173 78.7773 12.8H83.6573Z" fill="#444CFC"/>
<path d="M122.354 13.3536C122.549 13.1583 122.549 12.8417 122.354 12.6464L119.172 9.46447C118.976 9.26921 118.66 9.26921 118.464 9.46447C118.269 9.65973 118.269 9.97631 118.464 10.1716L121.293 13L118.464 15.8284C118.269 16.0237 118.269 16.3403 118.464 16.5355C118.66 16.7308 118.976 16.7308 119.172 16.5355L122.354 13.3536ZM98 13.5L122 13.5L122 12.5L98 12.5L98 13.5Z" fill="#232536"/>
</svg>
