<svg width="186" height="105" viewBox="0 0 186 105" fill="none" xmlns="http://www.w3.org/2000/svg">
<path d="M43.3345 50.7895C42.938 51.1899 42.6343 51.6731 42.4452 52.2046C42.256 52.7362 42.186 53.3031 42.2401 53.865L42.2213 53.8461C42.2769 54.5074 42.188 55.173 41.9609 55.7963C41.7338 56.4196 41.3738 56.9857 40.9062 57.455C40.4386 57.9243 39.8745 58.2855 39.2534 58.5135C38.6323 58.7414 37.9691 58.8306 37.3102 58.7748L37.329 58.7937C36.5407 58.72 35.749 58.8922 35.0618 59.2867C34.3746 59.6811 33.8254 60.2787 33.489 60.9979C33.1526 61.7172 33.0454 62.523 33.182 63.3056C33.3187 64.0882 33.6925 64.8094 34.2526 65.371C34.8126 65.9325 35.5316 66.3071 36.3116 66.4435C37.0915 66.5799 37.8943 66.4716 38.6107 66.1334C39.327 65.7951 39.922 65.2434 40.3144 64.5533C40.7068 63.8633 40.8777 63.0686 40.8036 62.2776L40.8235 62.2965C40.7678 61.6351 40.8567 60.9696 41.0838 60.3463C41.311 59.7229 41.6709 59.1569 42.1385 58.6876C42.6062 58.2183 43.1702 57.857 43.7913 57.6291C44.4124 57.4011 45.0756 57.312 45.7346 57.3678L45.7147 57.3489C46.3586 57.407 47.0067 57.301 47.599 57.0408C48.1912 56.7806 48.7084 56.3746 49.1027 55.8604C49.4969 55.3462 49.7555 54.7404 49.8543 54.0992C49.9532 53.458 49.8891 52.8021 49.6682 52.1924C49.4472 51.5826 49.0764 51.0387 48.5902 50.6111C48.104 50.1834 47.5181 49.8858 46.8868 49.7459C46.2555 49.606 45.5992 49.6283 44.9788 49.8108C44.3584 49.9932 43.7939 50.3298 43.3376 50.7895H43.3345Z" fill="white" fill-opacity="0.45"/>
<path d="M35.6164 56.3177L35.5965 56.2988C36.1566 56.3554 36.7223 56.2864 37.2525 56.0968C37.7828 55.9072 38.2644 55.6016 38.6626 55.2023C39.0608 54.803 39.3656 54.3199 39.555 53.7878C39.7443 53.2558 39.8135 52.6882 39.7575 52.1261L39.7774 52.145C39.7217 51.4836 39.8106 50.8181 40.0377 50.1947C40.2649 49.5714 40.6248 49.0053 41.0924 48.536C41.56 48.0667 42.1241 47.7055 42.7452 47.4776C43.3663 47.2496 44.0295 47.1604 44.6884 47.2163L44.6686 47.1974C45.4569 47.2717 46.2489 47.1001 46.9365 46.7061C47.6241 46.312 48.1738 45.7147 48.5107 44.9956C48.8476 44.2765 48.9553 43.4706 48.8191 42.6878C48.6828 41.905 48.3093 41.1835 47.7494 40.6216C47.1895 40.0597 46.4705 39.6848 45.6905 39.5481C44.9106 39.4113 44.1075 39.5194 43.391 39.8575C42.6744 40.1956 42.0793 40.7474 41.6867 41.4374C41.294 42.1275 41.1231 42.9223 41.1971 43.7135L41.1783 43.6935C41.2341 44.3549 41.1454 45.0205 40.9183 45.6439C40.6912 46.2674 40.3313 46.8335 39.8636 47.3028C39.396 47.7722 38.8318 48.1334 38.2107 48.3613C37.5895 48.5892 36.9262 48.6782 36.2672 48.6222L36.286 48.6422C35.7259 48.5855 35.1603 48.6545 34.63 48.8441C34.0998 49.0338 33.6181 49.3393 33.2199 49.7386C32.8217 50.1379 32.5169 50.6211 32.3276 51.1531C32.1383 51.6851 32.0691 52.2527 32.1251 52.8149L32.1063 52.796C32.1617 53.4573 32.0727 54.1227 31.8455 54.746C31.6183 55.3692 31.2584 55.9352 30.7908 56.4045C30.3232 56.8737 29.7592 57.235 29.1382 57.463C28.5172 57.691 27.8541 57.7803 27.1952 57.7247L27.214 57.7436C26.4257 57.6693 25.6337 57.8408 24.9461 58.2349C24.2585 58.6289 23.7088 59.2262 23.3718 59.9453C23.0349 60.6644 22.9273 61.4703 23.0635 62.2531C23.1998 63.0359 23.5733 63.7574 24.1332 64.3193C24.6931 64.8812 25.412 65.2561 26.192 65.3928C26.972 65.5296 27.775 65.4215 28.4916 65.0834C29.2081 64.7453 29.8033 64.1936 30.1959 63.5035C30.5885 62.8134 30.7595 62.0186 30.6855 61.2275L30.7053 61.2464C30.6497 60.585 30.7386 59.9195 30.9657 59.2961C31.1928 58.6728 31.5528 58.1068 32.0204 57.6374C32.488 57.1681 33.0521 56.8069 33.6732 56.579C34.2943 56.351 34.9574 56.2618 35.6164 56.3177Z" fill="white" fill-opacity="0.45"/>
<path d="M28.6045 54.2105C29.0011 53.8102 29.3047 53.327 29.4937 52.7954C29.6827 52.2638 29.7524 51.6968 29.6979 51.135L29.7178 51.1539C29.6621 50.4924 29.751 49.8266 29.9782 49.2032C30.2055 48.5797 30.5656 48.0135 31.0335 47.5441C31.5014 47.0748 32.0657 46.7136 32.687 46.4858C33.3084 46.258 33.9718 46.1691 34.6309 46.2252L34.6111 46.2063C35.3991 46.2804 36.1908 46.1088 36.878 45.7148C37.5653 45.3208 38.1148 44.7236 38.4515 44.0047C38.7882 43.2858 38.8958 42.4802 38.7595 41.6977C38.6233 40.9152 38.2499 40.194 37.6902 39.6323C37.1305 39.0706 36.4118 38.6958 35.6321 38.5591C34.8524 38.4224 34.0497 38.5303 33.3334 38.8682C32.617 39.2061 32.022 39.7576 31.6294 40.4473C31.2368 41.1371 31.0658 41.9316 31.1396 42.7224L31.1208 42.7035C31.1764 43.3649 31.0875 44.0304 30.8604 44.6538C30.6333 45.2771 30.2733 45.8432 29.8057 46.3125C29.3381 46.7818 28.774 47.143 28.1529 47.3709C27.5318 47.5989 26.8687 47.6881 26.2097 47.6322L26.2285 47.6511C25.5846 47.5932 24.9366 47.6993 24.3444 47.9596C23.7523 48.2199 23.2352 48.626 22.841 49.1403C22.4469 49.6546 22.1885 50.2604 22.0897 50.9015C21.991 51.5427 22.0551 52.1985 22.2762 52.8082C22.4972 53.4179 22.868 53.9618 23.3543 54.3893C23.8405 54.8169 24.4264 55.1144 25.0577 55.2542C25.6889 55.3941 26.3452 55.3717 26.9656 55.1893C27.586 55.0068 28.1504 54.6702 28.6066 54.2105H28.6045Z" fill="white" fill-opacity="0.45"/>
<path d="M61.0142 43.7378H64.1215V58.9134H61.0142V43.7378Z" fill="white" fill-opacity="0.45"/>
<path d="M65.8813 53.7169C65.8769 52.6264 66.1952 51.559 66.7957 50.6501C67.3963 49.7412 68.2521 49.0317 69.2548 48.6113C70.2576 48.1909 71.362 48.0787 72.4284 48.2887C73.4947 48.4988 74.4749 49.0218 75.2449 49.7914C76.0148 50.561 76.5398 51.5426 76.7534 52.6119C76.967 53.6812 76.8596 54.7901 76.4448 55.7981C76.0299 56.8061 75.3263 57.6678 74.4231 58.2742C73.5198 58.8806 72.4576 59.2042 71.3709 59.2042C70.6496 59.2125 69.9338 59.0764 69.2655 58.8038C68.5972 58.5312 67.9897 58.1277 67.4786 57.6168C66.9675 57.1059 66.563 56.4979 66.2887 55.8283C66.0144 55.1587 65.8759 54.4409 65.8813 53.7169ZM73.7532 53.7169C73.7403 53.2469 73.5895 52.791 73.3198 52.4065C73.0501 52.0219 72.6735 51.7257 72.237 51.5547C71.8004 51.3838 71.3234 51.3459 70.8654 51.4456C70.4075 51.5453 69.989 51.7783 69.6623 52.1154C69.3356 52.4525 69.1151 52.8787 69.0285 53.3409C68.9419 53.8031 68.9929 54.2806 69.1752 54.7138C69.3576 55.147 69.6631 55.5166 70.0536 55.7765C70.4441 56.0364 70.9023 56.175 71.3709 56.175C71.6918 56.1836 72.011 56.1254 72.3084 56.004C72.6058 55.8826 72.8748 55.7007 73.0987 55.4698C73.3225 55.2388 73.4962 54.9639 73.6089 54.6622C73.7215 54.3605 73.7707 54.0386 73.7532 53.7169Z" fill="white" fill-opacity="0.45"/>
<path d="M89.2451 48.5194V58.3894C89.2451 61.8817 86.5311 63.358 83.7763 63.358C82.8064 63.4308 81.8352 63.2342 80.9693 62.7897C80.1033 62.3452 79.3761 61.6699 78.8673 60.838L81.5185 59.2997C81.7324 59.7334 82.0731 60.0911 82.4951 60.3251C82.9171 60.5591 83.4003 60.6582 83.8799 60.6091C84.1865 60.6517 84.4986 60.6246 84.7933 60.5298C85.088 60.435 85.3577 60.2749 85.5825 60.0614C85.8072 59.8478 85.9812 59.5863 86.0916 59.2962C86.202 59.006 86.246 58.6947 86.2204 58.3852V57.4349C85.8565 57.8817 85.3934 58.2367 84.8681 58.4714C84.3428 58.7061 83.77 58.8139 83.1957 58.7863C81.8291 58.743 80.5329 58.1678 79.5814 57.1823C78.6299 56.1969 78.0979 54.8785 78.0979 53.5063C78.0979 52.1342 78.6299 50.8158 79.5814 49.8304C80.5329 48.8449 81.8291 48.2697 83.1957 48.2264C83.77 48.1988 84.3428 48.3066 84.8681 48.5413C85.3934 48.776 85.8565 49.1309 86.2204 49.5778V48.5173L89.2451 48.5194ZM86.2214 53.5079C86.2423 53.0053 86.1128 52.508 85.8497 52.0799C85.5865 51.6518 85.2018 51.3125 84.7449 51.1057C84.2879 50.8989 83.7798 50.8341 83.2859 50.9196C82.792 51.005 82.3348 51.2369 81.9733 51.5853C81.6118 51.9337 81.3625 52.3828 81.2574 52.8746C81.1523 53.3664 81.1963 53.8786 81.3837 54.3451C81.5711 54.8116 81.8933 55.2112 82.3089 55.4924C82.7245 55.7736 83.2144 55.9235 83.7156 55.9229C84.0421 55.9458 84.3698 55.8998 84.6775 55.7878C84.9852 55.6759 85.2661 55.5005 85.5021 55.273C85.7382 55.0455 85.9241 54.7709 86.048 54.4669C86.1719 54.1629 86.231 53.8362 86.2214 53.5079Z" fill="white" fill-opacity="0.45"/>
<path d="M91.0048 53.7169C91.0004 52.6264 91.3187 51.559 91.9193 50.6501C92.5198 49.7412 93.3757 49.0317 94.3784 48.6113C95.3811 48.1909 96.4856 48.0787 97.5519 48.2887C98.6182 48.4988 99.5985 49.0218 100.368 49.7914C101.138 50.561 101.663 51.5426 101.877 52.6119C102.091 53.6812 101.983 54.7901 101.568 55.7981C101.153 56.8061 100.45 57.6678 99.5466 58.2742C98.6434 58.8806 97.5811 59.2042 96.4944 59.2042C95.7731 59.2125 95.0574 59.0764 94.3891 58.8038C93.7207 58.5312 93.1133 58.1277 92.6021 57.6168C92.091 57.1059 91.6865 56.4979 91.4122 55.8283C91.138 55.1587 90.9995 54.4409 91.0048 53.7169ZM98.8768 53.7169C98.8638 53.2469 98.7131 52.791 98.4434 52.4065C98.1737 52.0219 97.797 51.7257 97.3605 51.5547C96.9239 51.3838 96.4469 51.3459 95.989 51.4456C95.531 51.5453 95.1126 51.7783 94.7858 52.1154C94.4591 52.4525 94.2387 52.8787 94.152 53.3409C94.0654 53.8031 94.1165 54.2806 94.2988 54.7138C94.4811 55.147 94.7866 55.5166 95.1772 55.7765C95.5677 56.0364 96.0259 56.175 96.4944 56.175C96.8154 56.1836 97.1346 56.1254 97.4319 56.004C97.7293 55.8826 97.9984 55.7007 98.2222 55.4698C98.446 55.2388 98.6198 54.9639 98.7324 54.6622C98.8451 54.3605 98.8942 54.0386 98.8768 53.7169Z" fill="white" fill-opacity="0.45"/>
<path d="M103.433 45.7339C103.433 45.3638 103.542 45.0021 103.747 44.6944C103.952 44.3867 104.243 44.1468 104.584 44.0052C104.925 43.8636 105.3 43.8265 105.661 43.8987C106.023 43.9709 106.355 44.1492 106.616 44.4108C106.877 44.6725 107.054 45.0059 107.126 45.3689C107.198 45.7318 107.161 46.108 107.02 46.4499C106.879 46.7918 106.64 47.0841 106.333 47.2897C106.027 47.4953 105.666 47.605 105.298 47.605C104.805 47.6001 104.333 47.4014 103.985 47.0515C103.636 46.7017 103.438 46.2286 103.433 45.7339ZM103.747 48.5195H106.855V58.9145H103.743L103.747 48.5195Z" fill="white" fill-opacity="0.45"/>
<path d="M120.272 53.7168C120.308 54.4038 120.209 55.0911 119.979 55.7393C119.749 56.3875 119.394 56.9837 118.934 57.4936C118.474 58.0036 117.918 58.4172 117.298 58.7108C116.678 59.0043 116.006 59.172 115.322 59.2041C114.746 59.2356 114.17 59.1382 113.637 58.9188C113.103 58.6994 112.625 58.3636 112.236 57.9357V63.0712H109.129V48.5193H112.236V49.4958C112.625 49.0682 113.103 48.7327 113.637 48.5135C114.17 48.2943 114.746 48.1969 115.322 48.2284C116.007 48.2604 116.678 48.428 117.298 48.7216C117.918 49.0152 118.475 49.4289 118.935 49.939C119.395 50.4491 119.75 51.0455 119.98 51.6938C120.209 52.3422 120.309 53.0297 120.272 53.7168ZM117.165 53.7168C117.153 53.2303 116.998 52.7582 116.72 52.3596C116.442 51.961 116.053 51.6536 115.601 51.4759C115.15 51.2981 114.656 51.2579 114.182 51.3604C113.708 51.4628 113.275 51.7032 112.936 52.0516C112.598 52.4001 112.369 52.8409 112.279 53.3191C112.189 53.7973 112.241 54.2915 112.43 54.7399C112.618 55.1883 112.934 55.571 113.338 55.8401C113.742 56.1091 114.216 56.2526 114.701 56.2526C115.034 56.2674 115.366 56.2115 115.676 56.0885C115.986 55.9654 116.267 55.7781 116.499 55.5386C116.732 55.2992 116.911 55.0131 117.026 54.6991C117.141 54.3852 117.188 54.0504 117.165 53.7168Z" fill="white" fill-opacity="0.45"/>
<path d="M129.861 55.7949C129.861 58.1857 127.791 59.2042 125.554 59.2042C124.65 59.2864 123.743 59.0946 122.949 58.6536C122.155 58.2126 121.511 57.5426 121.1 56.7304L123.792 55.1922C123.901 55.5676 124.135 55.8942 124.455 56.1174C124.775 56.3406 125.161 56.4469 125.55 56.4186C126.295 56.4186 126.668 56.1897 126.668 55.7749C126.668 54.6304 121.572 55.2342 121.572 51.6379C121.572 49.371 123.478 48.2286 125.632 48.2286C126.442 48.2029 127.244 48.3956 127.954 48.7868C128.665 49.178 129.258 49.7532 129.671 50.4525L127.02 51.8868C126.904 51.6145 126.71 51.3826 126.463 51.22C126.217 51.0573 125.928 50.9712 125.632 50.9722C125.094 50.9722 124.762 51.1822 124.762 51.5539C124.766 52.7394 129.861 51.9487 129.861 55.7949Z" fill="white" fill-opacity="0.45"/>
<path d="M141.212 48.5195V58.9145H138.105V57.937C137.746 58.3683 137.291 58.7082 136.776 58.9287C136.262 59.1492 135.702 59.244 135.144 59.2054C133.051 59.2054 131.273 57.7091 131.273 54.9004V48.5195H134.38V54.4436C134.354 54.6912 134.382 54.9415 134.462 55.1771C134.542 55.4127 134.673 55.6279 134.844 55.8078C135.016 55.9876 135.224 56.1279 135.455 56.2187C135.686 56.3095 135.934 56.3487 136.182 56.3336C137.321 56.3336 138.108 55.669 138.108 54.1927V48.5227L141.212 48.5195Z" fill="white" fill-opacity="0.45"/>
<path d="M159.03 52.5316V58.9135H155.923V52.8014C155.923 51.7619 155.426 51.0973 154.432 51.0973C153.396 51.0973 152.815 51.8249 152.815 53.0513V58.9135H149.709V52.8014C149.709 51.7619 149.212 51.0973 148.217 51.0973C147.181 51.0973 146.601 51.8249 146.601 53.0513V58.9135H143.494V48.5185H146.601V49.474C146.924 49.0501 147.346 48.7139 147.831 48.4962C148.316 48.2785 148.848 48.1861 149.377 48.2276C149.909 48.2015 150.438 48.3141 150.914 48.5544C151.389 48.7948 151.794 49.1546 152.09 49.5989C152.434 49.1341 152.891 48.7645 153.416 48.5247C153.941 48.2849 154.519 48.1827 155.094 48.2276C157.472 48.2287 159.03 49.9328 159.03 52.5316Z" fill="white" fill-opacity="0.45"/>
<path d="M161.658 48.4553C162.932 48.4553 163.964 47.4192 163.964 46.1411C163.964 44.863 162.932 43.8269 161.658 43.8269C160.384 43.8269 159.352 44.863 159.352 46.1411C159.352 47.4192 160.384 48.4553 161.658 48.4553Z" fill="white" fill-opacity="0.45"/>
</svg>
