<svg width="219" height="63" viewBox="0 0 219 63" fill="none" xmlns="http://www.w3.org/2000/svg">
<path d="M0 11.4074V0H28V11.4074H0Z" fill="#666DFF"/>
<path d="M0 27.9999V19.7036H7.72414V27.9999H0Z" fill="#666DFF"/>
<path d="M0 19.7037V0H18.3448V19.7037H0Z" fill="#FFA155"/>
<path d="M7.72412 11.4074V0H18.3448V11.4074H7.72412Z" fill="#FFD3AF"/>
<path d="M187.354 32.3536C187.549 32.1583 187.549 31.8417 187.354 31.6464L184.172 28.4645C183.976 28.2692 183.66 28.2692 183.464 28.4645C183.269 28.6597 183.269 28.9763 183.464 29.1716L186.293 32L183.464 34.8284C183.269 35.0237 183.269 35.3403 183.464 35.5355C183.66 35.7308 183.976 35.7308 184.172 35.5355L187.354 32.3536ZM167 32.5L187 32.5V31.5L167 31.5V32.5Z" fill="white"/>
<path opacity="0.87" d="M38.976 38L36.416 33.552H35.024V38H33.2V26.88H37.04C37.8933 26.88 38.6133 27.0293 39.2 27.328C39.7973 27.6267 40.24 28.0267 40.528 28.528C40.8267 29.0293 40.976 29.5893 40.976 30.208C40.976 30.9333 40.7627 31.5947 40.336 32.192C39.92 32.7787 39.2747 33.1787 38.4 33.392L41.152 38H38.976ZM35.024 32.096H37.04C37.7227 32.096 38.2347 31.9253 38.576 31.584C38.928 31.2427 39.104 30.784 39.104 30.208C39.104 29.632 38.9333 29.184 38.592 28.864C38.2507 28.5333 37.7333 28.368 37.04 28.368H35.024V32.096ZM51.3894 33.376C51.3894 33.7067 51.368 34.0053 51.3254 34.272H44.5894C44.6427 34.976 44.904 35.5413 45.3734 35.968C45.8427 36.3947 46.4187 36.608 47.1014 36.608C48.0827 36.608 48.776 36.1973 49.1814 35.376H51.1494C50.8827 36.1867 50.3974 36.8533 49.6934 37.376C49 37.888 48.136 38.144 47.1014 38.144C46.2587 38.144 45.5014 37.9573 44.8294 37.584C44.168 37.2 43.6454 36.6667 43.2614 35.984C42.888 35.2907 42.7014 34.4907 42.7014 33.584C42.7014 32.6773 42.8827 31.8827 43.2454 31.2C43.6187 30.5067 44.136 29.9733 44.7974 29.6C45.4694 29.2267 46.2374 29.04 47.1014 29.04C47.9334 29.04 48.6747 29.2213 49.3254 29.584C49.976 29.9467 50.4827 30.4587 50.8454 31.12C51.208 31.7707 51.3894 32.5227 51.3894 33.376ZM49.4854 32.8C49.4747 32.128 49.2347 31.5893 48.7654 31.184C48.296 30.7787 47.7147 30.576 47.0214 30.576C46.392 30.576 45.8534 30.7787 45.4054 31.184C44.9574 31.5787 44.6907 32.1173 44.6054 32.8H49.4854ZM52.5764 33.552C52.5764 32.6667 52.7577 31.8827 53.1204 31.2C53.4937 30.5173 53.995 29.9893 54.6244 29.616C55.2644 29.232 55.9737 29.04 56.7524 29.04C57.435 29.04 58.0377 29.1787 58.5604 29.456C59.0937 29.7333 59.5044 30.0693 59.7924 30.464V29.184H61.6324V42.192H59.7924V36.72C59.5044 37.1147 59.0884 37.4507 58.5444 37.728C58.0004 38.0053 57.3817 38.144 56.6884 38.144C55.931 38.144 55.2377 37.952 54.6084 37.568C53.9897 37.1733 53.4937 36.6293 53.1204 35.936C52.7577 35.232 52.5764 34.4373 52.5764 33.552ZM59.7924 33.584C59.7924 32.976 59.6644 32.448 59.4084 32C59.163 31.552 58.8377 31.2107 58.4324 30.976C58.027 30.7413 57.5897 30.624 57.1204 30.624C56.651 30.624 56.2137 30.7413 55.8084 30.976C55.403 31.2 55.0724 31.536 54.8164 31.984C54.571 32.4213 54.4484 32.944 54.4484 33.552C54.4484 34.16 54.571 34.6933 54.8164 35.152C55.0724 35.6107 55.403 35.9627 55.8084 36.208C56.2244 36.4427 56.6617 36.56 57.1204 36.56C57.5897 36.56 58.027 36.4427 58.4324 36.208C58.8377 35.9733 59.163 35.632 59.4084 35.184C59.6644 34.7253 59.7924 34.192 59.7924 33.584ZM72.0121 29.184V38H70.1881V36.96C69.9001 37.3227 69.5215 37.6107 69.0521 37.824C68.5935 38.0267 68.1028 38.128 67.5801 38.128C66.8868 38.128 66.2628 37.984 65.7081 37.696C65.1641 37.408 64.7321 36.9813 64.4121 36.416C64.1028 35.8507 63.9481 35.168 63.9481 34.368V29.184H65.7561V34.096C65.7561 34.8853 65.9535 35.4933 66.3481 35.92C66.7428 36.336 67.2815 36.544 67.9641 36.544C68.6468 36.544 69.1855 36.336 69.5801 35.92C69.9855 35.4933 70.1881 34.8853 70.1881 34.096V29.184H72.0121ZM82.4988 33.376C82.4988 33.7067 82.4774 34.0053 82.4348 34.272H75.6988C75.7521 34.976 76.0134 35.5413 76.4828 35.968C76.9521 36.3947 77.5281 36.608 78.2108 36.608C79.1921 36.608 79.8854 36.1973 80.2908 35.376H82.2587C81.9921 36.1867 81.5068 36.8533 80.8028 37.376C80.1094 37.888 79.2454 38.144 78.2108 38.144C77.3681 38.144 76.6108 37.9573 75.9388 37.584C75.2774 37.2 74.7548 36.6667 74.3708 35.984C73.9974 35.2907 73.8108 34.4907 73.8108 33.584C73.8108 32.6773 73.9921 31.8827 74.3548 31.2C74.7281 30.5067 75.2454 29.9733 75.9068 29.6C76.5788 29.2267 77.3468 29.04 78.2108 29.04C79.0428 29.04 79.7841 29.2213 80.4348 29.584C81.0854 29.9467 81.5921 30.4587 81.9548 31.12C82.3174 31.7707 82.4988 32.5227 82.4988 33.376ZM80.5948 32.8C80.5841 32.128 80.3441 31.5893 79.8748 31.184C79.4054 30.7787 78.8241 30.576 78.1308 30.576C77.5014 30.576 76.9628 30.7787 76.5148 31.184C76.0668 31.5787 75.8001 32.1173 75.7148 32.8H80.5948ZM87.4938 38.144C86.8004 38.144 86.1764 38.0213 85.6218 37.776C85.0778 37.52 84.6458 37.1787 84.3258 36.752C84.0058 36.3147 83.8351 35.8293 83.8138 35.296H85.7018C85.7338 35.6693 85.9098 35.984 86.2298 36.24C86.5604 36.4853 86.9711 36.608 87.4618 36.608C87.9738 36.608 88.3684 36.512 88.6458 36.32C88.9338 36.1173 89.0778 35.8613 89.0778 35.552C89.0778 35.2213 88.9178 34.976 88.5978 34.816C88.2884 34.656 87.7924 34.48 87.1098 34.288C86.4484 34.1067 85.9098 33.9307 85.4938 33.76C85.0778 33.5893 84.7151 33.328 84.4058 32.976C84.1071 32.624 83.9578 32.16 83.9578 31.584C83.9578 31.1147 84.0964 30.688 84.3738 30.304C84.6511 29.9093 85.0458 29.6 85.5578 29.376C86.0804 29.152 86.6778 29.04 87.3498 29.04C88.3524 29.04 89.1578 29.296 89.7658 29.808C90.3844 30.3093 90.7151 30.9973 90.7578 31.872H88.9338C88.9018 31.4773 88.7418 31.1627 88.4538 30.928C88.1658 30.6933 87.7764 30.576 87.2858 30.576C86.8058 30.576 86.4378 30.6667 86.1818 30.848C85.9258 31.0293 85.7978 31.2693 85.7978 31.568C85.7978 31.8027 85.8831 32 86.0538 32.16C86.2244 32.32 86.4324 32.448 86.6778 32.544C86.9231 32.6293 87.2858 32.7413 87.7658 32.88C88.4058 33.0507 88.9284 33.2267 89.3338 33.408C89.7498 33.5787 90.1071 33.8347 90.4058 34.176C90.7044 34.5173 90.8591 34.9707 90.8698 35.536C90.8698 36.0373 90.7311 36.4853 90.4538 36.88C90.1764 37.2747 89.7818 37.584 89.2698 37.808C88.7684 38.032 88.1764 38.144 87.4938 38.144ZM94.9686 30.672V35.552C94.9686 35.8827 95.0433 36.1227 95.1926 36.272C95.3526 36.4107 95.6193 36.48 95.9926 36.48H97.1126V38H95.6726C94.8513 38 94.222 37.808 93.7846 37.424C93.3473 37.04 93.1286 36.416 93.1286 35.552V30.672H92.0886V29.184H93.1286V26.992H94.9686V29.184H97.1126V30.672H94.9686ZM111.558 40.016L109.606 37.904C109.126 38.0427 108.598 38.112 108.022 38.112C106.987 38.112 106.033 37.872 105.158 37.392C104.294 36.9013 103.606 36.224 103.094 35.36C102.593 34.4853 102.342 33.504 102.342 32.416C102.342 31.328 102.593 30.352 103.094 29.488C103.606 28.624 104.294 27.952 105.158 27.472C106.033 26.9813 106.987 26.736 108.022 26.736C109.067 26.736 110.022 26.9813 110.886 27.472C111.761 27.952 112.449 28.624 112.95 29.488C113.451 30.352 113.702 31.328 113.702 32.416C113.702 33.44 113.478 34.368 113.03 35.2C112.593 36.0213 111.985 36.6827 111.206 37.184L113.878 40.016H111.558ZM104.214 32.416C104.214 33.2373 104.374 33.9627 104.694 34.592C105.025 35.2107 105.478 35.6907 106.054 36.032C106.63 36.3627 107.286 36.528 108.022 36.528C108.758 36.528 109.414 36.3627 109.99 36.032C110.566 35.6907 111.014 35.2107 111.334 34.592C111.665 33.9627 111.83 33.2373 111.83 32.416C111.83 31.5947 111.665 30.8747 111.334 30.256C111.014 29.6373 110.566 29.1627 109.99 28.832C109.414 28.5013 108.758 28.336 108.022 28.336C107.286 28.336 106.63 28.5013 106.054 28.832C105.478 29.1627 105.025 29.6373 104.694 30.256C104.374 30.8747 104.214 31.5947 104.214 32.416ZM123.528 29.184V38H121.704V36.96C121.416 37.3227 121.037 37.6107 120.568 37.824C120.109 38.0267 119.618 38.128 119.096 38.128C118.402 38.128 117.778 37.984 117.224 37.696C116.68 37.408 116.248 36.9813 115.928 36.416C115.618 35.8507 115.464 35.168 115.464 34.368V29.184H117.272V34.096C117.272 34.8853 117.469 35.4933 117.864 35.92C118.258 36.336 118.797 36.544 119.48 36.544C120.162 36.544 120.701 36.336 121.096 35.92C121.501 35.4933 121.704 34.8853 121.704 34.096V29.184H123.528ZM129.758 38.144C128.926 38.144 128.174 37.9573 127.502 37.584C126.83 37.2 126.302 36.6667 125.918 35.984C125.534 35.2907 125.342 34.4907 125.342 33.584C125.342 32.688 125.54 31.8933 125.934 31.2C126.329 30.5067 126.868 29.9733 127.55 29.6C128.233 29.2267 128.996 29.04 129.838 29.04C130.681 29.04 131.444 29.2267 132.126 29.6C132.809 29.9733 133.348 30.5067 133.742 31.2C134.137 31.8933 134.334 32.688 134.334 33.584C134.334 34.48 134.132 35.2747 133.726 35.968C133.321 36.6613 132.766 37.2 132.062 37.584C131.369 37.9573 130.601 38.144 129.758 38.144ZM129.758 36.56C130.228 36.56 130.665 36.448 131.07 36.224C131.486 36 131.822 35.664 132.078 35.216C132.334 34.768 132.462 34.224 132.462 33.584C132.462 32.944 132.34 32.4053 132.094 31.968C131.849 31.52 131.524 31.184 131.118 30.96C130.713 30.736 130.276 30.624 129.806 30.624C129.337 30.624 128.9 30.736 128.494 30.96C128.1 31.184 127.785 31.52 127.55 31.968C127.316 32.4053 127.198 32.944 127.198 33.584C127.198 34.5333 127.438 35.2693 127.918 35.792C128.409 36.304 129.022 36.56 129.758 36.56ZM138.266 30.672V35.552C138.266 35.8827 138.34 36.1227 138.49 36.272C138.65 36.4107 138.916 36.48 139.29 36.48H140.41V38H138.97C138.148 38 137.519 37.808 137.082 37.424C136.644 37.04 136.426 36.416 136.426 35.552V30.672H135.386V29.184H136.426V26.992H138.266V29.184H140.41V30.672H138.266ZM150.171 33.376C150.171 33.7067 150.149 34.0053 150.107 34.272H143.371C143.424 34.976 143.685 35.5413 144.155 35.968C144.624 36.3947 145.2 36.608 145.883 36.608C146.864 36.608 147.557 36.1973 147.963 35.376H149.931C149.664 36.1867 149.179 36.8533 148.475 37.376C147.781 37.888 146.917 38.144 145.883 38.144C145.04 38.144 144.283 37.9573 143.611 37.584C142.949 37.2 142.427 36.6667 142.043 35.984C141.669 35.2907 141.483 34.4907 141.483 33.584C141.483 32.6773 141.664 31.8827 142.027 31.2C142.4 30.5067 142.917 29.9733 143.579 29.6C144.251 29.2267 145.019 29.04 145.883 29.04C146.715 29.04 147.456 29.2213 148.107 29.584C148.757 29.9467 149.264 30.4587 149.627 31.12C149.989 31.7707 150.171 32.5227 150.171 33.376ZM148.267 32.8C148.256 32.128 148.016 31.5893 147.547 31.184C147.077 30.7787 146.496 30.576 145.803 30.576C145.173 30.576 144.635 30.7787 144.187 31.184C143.739 31.5787 143.472 32.1173 143.387 32.8H148.267Z" fill="white"/>
</svg>
