<svg width="99" height="98" viewBox="0 0 99 98" fill="none" xmlns="http://www.w3.org/2000/svg">
<path opacity="0.87" d="M3.28 80.496V83.424H7.28V85.152H3.28V88.192H7.76V90H1.024V78.704H7.76V80.496H3.28ZM14.8223 90L12.8063 87.152L11.1103 90H8.63025L11.5583 85.376L8.56625 81.136H11.0943L13.0623 83.936L14.7583 81.136H17.2383L14.2623 85.632L17.3503 90H14.8223ZM23.8044 81.024C24.551 81.024 25.223 81.2053 25.8204 81.568C26.4177 81.9307 26.8817 82.4587 27.2124 83.152C27.5537 83.8347 27.7244 84.64 27.7244 85.568C27.7244 86.496 27.5537 87.3067 27.2124 88C26.8817 88.6827 26.4177 89.2053 25.8204 89.568C25.223 89.9307 24.551 90.112 23.8044 90.112C23.0577 90.112 22.4177 89.936 21.8844 89.584C21.3617 89.2213 20.9884 88.7413 20.7644 88.144V94.224H18.5084V81.136H20.7644V82.976C20.9884 82.3787 21.3617 81.904 21.8844 81.552C22.4177 81.2 23.0577 81.024 23.8044 81.024ZM23.1004 82.992C22.4177 82.992 21.8524 83.2267 21.4044 83.696C20.967 84.1547 20.7484 84.7787 20.7484 85.568C20.7484 86.3467 20.967 86.9707 21.4044 87.44C21.8524 87.8987 22.4177 88.128 23.1004 88.128C23.8044 88.128 24.3697 87.904 24.7964 87.456C25.223 86.9973 25.4364 86.368 25.4364 85.568C25.4364 84.768 25.223 84.1387 24.7964 83.68C24.3697 83.2213 23.8044 82.992 23.1004 82.992ZM37.6569 85.232C37.6569 85.456 37.6302 85.712 37.5769 86H31.0809C31.1129 86.7893 31.3262 87.3707 31.7209 87.744C32.1155 88.1173 32.6062 88.304 33.1929 88.304C33.7155 88.304 34.1475 88.176 34.4889 87.92C34.8409 87.664 35.0649 87.3173 35.1609 86.88H37.5449C37.4275 87.4987 37.1769 88.0533 36.7929 88.544C36.4089 89.0347 35.9129 89.4187 35.3049 89.696C34.7075 89.9733 34.0409 90.112 33.3049 90.112C32.4409 90.112 31.6729 89.9307 31.0009 89.568C30.3289 89.1947 29.8062 88.6667 29.4329 87.984C29.0595 87.3013 28.8729 86.496 28.8729 85.568C28.8729 84.64 29.0595 83.8347 29.4329 83.152C29.8062 82.4587 30.3289 81.9307 31.0009 81.568C31.6729 81.2053 32.4409 81.024 33.3049 81.024C34.1795 81.024 34.9422 81.2053 35.5929 81.568C36.2542 81.9307 36.7609 82.432 37.1129 83.072C37.4755 83.7013 37.6569 84.4213 37.6569 85.232ZM35.3849 85.008C35.4169 84.2827 35.2249 83.7333 34.8089 83.36C34.4035 82.9867 33.9022 82.8 33.3049 82.8C32.6969 82.8 32.1849 82.9867 31.7689 83.36C31.3529 83.7333 31.1235 84.2827 31.0809 85.008H35.3849ZM41.5144 82.832C41.845 82.2667 42.2824 81.824 42.8264 81.504C43.3704 81.1733 43.9784 81.008 44.6504 81.008V83.424H43.9944C42.341 83.424 41.5144 84.192 41.5144 85.728V90H39.2584V81.136H41.5144V82.832ZM45.643 78.592C45.643 78.2293 45.771 77.936 46.027 77.712C46.283 77.4773 46.619 77.36 47.035 77.36C47.451 77.36 47.787 77.4773 48.043 77.712C48.299 77.936 48.427 78.2293 48.427 78.592C48.427 78.944 48.299 79.2373 48.043 79.472C47.787 79.696 47.451 79.808 47.035 79.808C46.619 79.808 46.283 79.696 46.027 79.472C45.771 79.2373 45.643 78.944 45.643 78.592ZM48.155 81.136V90H45.899V81.136H48.155ZM58.5319 85.232C58.5319 85.456 58.5052 85.712 58.4519 86H51.9559C51.9879 86.7893 52.2012 87.3707 52.5959 87.744C52.9905 88.1173 53.4812 88.304 54.0679 88.304C54.5905 88.304 55.0225 88.176 55.3639 87.92C55.7159 87.664 55.9399 87.3173 56.0359 86.88H58.4199C58.3025 87.4987 58.0519 88.0533 57.6679 88.544C57.2839 89.0347 56.7879 89.4187 56.1799 89.696C55.5825 89.9733 54.9159 90.112 54.1799 90.112C53.3159 90.112 52.5479 89.9307 51.8759 89.568C51.2039 89.1947 50.6812 88.6667 50.3079 87.984C49.9345 87.3013 49.7479 86.496 49.7479 85.568C49.7479 84.64 49.9345 83.8347 50.3079 83.152C50.6812 82.4587 51.2039 81.9307 51.8759 81.568C52.5479 81.2053 53.3159 81.024 54.1799 81.024C55.0545 81.024 55.8172 81.2053 56.4679 81.568C57.1292 81.9307 57.6359 82.432 57.9879 83.072C58.3505 83.7013 58.5319 84.4213 58.5319 85.232ZM56.2599 85.008C56.2919 84.2827 56.0999 83.7333 55.6839 83.36C55.2785 82.9867 54.7772 82.8 54.1799 82.8C53.5719 82.8 53.0599 82.9867 52.6439 83.36C52.2279 83.7333 51.9985 84.2827 51.9559 85.008H56.2599ZM65.4134 81.008C66.4374 81.008 67.2534 81.344 67.8614 82.016C68.4694 82.688 68.7734 83.632 68.7734 84.848V90H66.5334V85.104C66.5334 84.4 66.352 83.856 65.9894 83.472C65.6267 83.0773 65.1307 82.88 64.5014 82.88C63.8614 82.88 63.3494 83.088 62.9654 83.504C62.5814 83.92 62.3894 84.5173 62.3894 85.296V90H60.1334V81.136H62.3894V82.912C62.624 82.3147 63.008 81.8507 63.5414 81.52C64.0854 81.1787 64.7094 81.008 65.4134 81.008ZM74.7424 81.024C75.8837 81.024 76.833 81.3333 77.5904 81.952C78.3584 82.5707 78.8384 83.4133 79.0304 84.48H76.6464C76.5504 84.0107 76.3317 83.6427 75.9904 83.376C75.649 83.0987 75.217 82.96 74.6944 82.96C74.097 82.96 73.5957 83.184 73.1904 83.632C72.7957 84.0693 72.5984 84.7147 72.5984 85.568C72.5984 86.4213 72.7957 87.072 73.1904 87.52C73.5957 87.9573 74.097 88.176 74.6944 88.176C75.217 88.176 75.649 88.0427 75.9904 87.776C76.3317 87.4987 76.5504 87.1253 76.6464 86.656H79.0304C78.8384 87.7227 78.3584 88.5653 77.5904 89.184C76.833 89.8027 75.8837 90.112 74.7424 90.112C73.8784 90.112 73.1104 89.9307 72.4384 89.568C71.7664 89.1947 71.2437 88.6667 70.8704 87.984C70.497 87.3013 70.3104 86.496 70.3104 85.568C70.3104 84.64 70.497 83.8347 70.8704 83.152C71.2437 82.4587 71.7664 81.9307 72.4384 81.568C73.1104 81.2053 73.8784 81.024 74.7424 81.024ZM88.9694 85.232C88.9694 85.456 88.9427 85.712 88.8894 86H82.3934C82.4254 86.7893 82.6387 87.3707 83.0334 87.744C83.428 88.1173 83.9187 88.304 84.5054 88.304C85.028 88.304 85.46 88.176 85.8014 87.92C86.1534 87.664 86.3774 87.3173 86.4734 86.88H88.8574C88.74 87.4987 88.4894 88.0533 88.1054 88.544C87.7214 89.0347 87.2254 89.4187 86.6174 89.696C86.02 89.9733 85.3534 90.112 84.6174 90.112C83.7534 90.112 82.9854 89.9307 82.3134 89.568C81.6414 89.1947 81.1187 88.6667 80.7454 87.984C80.372 87.3013 80.1854 86.496 80.1854 85.568C80.1854 84.64 80.372 83.8347 80.7454 83.152C81.1187 82.4587 81.6414 81.9307 82.3134 81.568C82.9854 81.2053 83.7534 81.024 84.6174 81.024C85.492 81.024 86.2547 81.2053 86.9054 81.568C87.5667 81.9307 88.0734 82.432 88.4254 83.072C88.788 83.7013 88.9694 84.4213 88.9694 85.232ZM86.6974 85.008C86.7294 84.2827 86.5374 83.7333 86.1214 83.36C85.716 82.9867 85.2147 82.8 84.6174 82.8C84.0094 82.8 83.4974 82.9867 83.0814 83.36C82.6654 83.7333 82.436 84.2827 82.3934 85.008H86.6974Z" fill="#232536"/>
<rect y="62.0001" width="71.9999" height="6.00003" fill="#444CFC"/>
<rect x="10.4023" y="62" width="61.5953" height="6.00003" fill="#FFA155"/>
<rect x="10.0503" y="62" width="44.6449" height="5.99069" fill="#FFD3AF"/>
<path d="M0.432 19.336V14.584H9.576V40H4.248V19.336H0.432ZM13.5748 27.076C13.5748 35.692 16.8148 40 23.2948 40C26.7268 40 29.1988 38.848 30.7108 36.544C32.2228 34.24 32.9788 31.084 32.9788 27.076C32.9788 23.092 32.2228 19.948 30.7108 17.644C29.1988 15.34 26.7268 14.188 23.2948 14.188C16.8148 14.188 13.5748 18.484 13.5748 27.076ZM27.9748 27.076C27.9748 29.692 27.6508 31.708 27.0028 33.124C26.3788 34.516 25.1428 35.212 23.2948 35.212C21.4228 35.212 20.1628 34.516 19.5148 33.124C18.8908 31.708 18.5788 29.692 18.5788 27.076C18.5788 24.484 18.8908 22.492 19.5148 21.1C20.1628 19.684 21.4228 18.976 23.2948 18.976C25.1428 18.976 26.3788 19.684 27.0028 21.1C27.6508 22.492 27.9748 24.484 27.9748 27.076ZM48.1928 20.056L53.6288 33.592L58.6688 20.056H64.2488L52.0448 49.504H46.4288L50.9288 39.424L42.5408 20.056H48.1928ZM71.7159 23.872C72.4599 22.6 73.4439 21.604 74.6679 20.884C75.8919 20.14 77.2599 19.768 78.7719 19.768V25.204H77.2959C73.5759 25.204 71.7159 26.932 71.7159 30.388V40H66.6399V20.056H71.7159V23.872ZM88.4573 19.804C90.8813 19.804 92.8253 20.416 94.2893 21.64C95.7533 22.864 96.6653 24.496 97.0253 26.536H92.2733C92.0813 25.576 91.6493 24.808 90.9773 24.232C90.3053 23.656 89.4293 23.368 88.3493 23.368C87.4853 23.368 86.8133 23.572 86.3333 23.98C85.8533 24.388 85.6133 24.94 85.6133 25.636C85.6133 26.188 85.8053 26.632 86.1893 26.968C86.5733 27.304 87.0533 27.568 87.6293 27.76C88.2053 27.952 89.0333 28.18 90.1133 28.444C91.6253 28.78 92.8493 29.14 93.7853 29.524C94.7453 29.884 95.5613 30.472 96.2333 31.288C96.9293 32.08 97.2773 33.16 97.2773 34.528C97.2773 36.232 96.6053 37.612 95.2613 38.668C93.9413 39.724 92.1533 40.252 89.8973 40.252C87.3053 40.252 85.2293 39.676 83.6693 38.524C82.1093 37.348 81.1613 35.68 80.8253 33.52H85.6853C85.8053 34.504 86.2373 35.284 86.9813 35.86C87.7253 36.412 88.6973 36.688 89.8973 36.688C90.7613 36.688 91.4213 36.484 91.8773 36.076C92.3333 35.644 92.5613 35.092 92.5613 34.42C92.5613 33.844 92.3573 33.376 91.9493 33.016C91.5653 32.656 91.0733 32.38 90.4733 32.188C89.8973 31.996 89.0693 31.768 87.9893 31.504C86.5013 31.168 85.2893 30.832 84.3533 30.496C83.4413 30.136 82.6493 29.572 81.9773 28.804C81.3293 28.036 81.0053 26.98 81.0053 25.636C81.0053 23.908 81.6653 22.504 82.9853 21.424C84.3053 20.344 86.1293 19.804 88.4573 19.804Z" fill="#232536"/>
</svg>
