<svg width="100" height="98" viewBox="0 0 100 98" fill="none" xmlns="http://www.w3.org/2000/svg">
<path opacity="0.87" d="M3.28 85.808V90H1.024V78.704H5.136C6.46933 78.704 7.472 79.024 8.144 79.664C8.82667 80.304 9.168 81.1733 9.168 82.272C9.168 83.3493 8.816 84.208 8.112 84.848C7.41867 85.488 6.42667 85.808 5.136 85.808H3.28ZM4.896 84C6.21867 84 6.88 83.424 6.88 82.272C6.88 81.7067 6.72533 81.2747 6.416 80.976C6.10667 80.6773 5.6 80.528 4.896 80.528H3.28V84H4.896ZM12.8894 82.832C13.22 82.2667 13.6574 81.824 14.2014 81.504C14.7454 81.1733 15.3534 81.008 16.0254 81.008V83.424H15.3694C13.716 83.424 12.8894 84.192 12.8894 85.728V90H10.6334V81.136H12.8894V82.832ZM21.37 81.024C22.234 81.024 23.0073 81.2053 23.69 81.568C24.3833 81.9307 24.9273 82.4587 25.322 83.152C25.7167 83.8347 25.914 84.64 25.914 85.568C25.914 86.496 25.7167 87.3013 25.322 87.984C24.9273 88.6667 24.3833 89.1947 23.69 89.568C23.0073 89.9307 22.234 90.112 21.37 90.112C20.506 90.112 19.7273 89.9307 19.034 89.568C18.3513 89.1947 17.8127 88.6667 17.418 87.984C17.0233 87.3013 16.826 86.496 16.826 85.568C16.826 84.64 17.0233 83.8347 17.418 83.152C17.8127 82.4587 18.3513 81.9307 19.034 81.568C19.7273 81.2053 20.506 81.024 21.37 81.024ZM21.37 82.976C20.7407 82.976 20.2073 83.2 19.77 83.648C19.3327 84.0853 19.114 84.7253 19.114 85.568C19.114 86.4107 19.3327 87.056 19.77 87.504C20.2073 87.9413 20.7407 88.16 21.37 88.16C21.9993 88.16 22.5327 87.9413 22.97 87.504C23.4073 87.056 23.626 86.4107 23.626 85.568C23.626 84.7253 23.4073 84.0853 22.97 83.648C22.5327 83.2 21.9993 82.976 21.37 82.976ZM31.8924 79.6C31.231 79.5573 30.767 79.6533 30.5004 79.888C30.2337 80.1227 30.1004 80.5333 30.1004 81.12V81.136H31.8924V83.04H30.1004V90H27.8444V83.04H26.7084V81.136H27.8444V80.928C27.8444 79.872 28.143 79.0613 28.7404 78.496C29.3484 77.92 30.2444 77.632 31.4284 77.632C31.631 77.632 31.7857 77.6373 31.8924 77.648V79.6ZM41.5788 85.232C41.5788 85.456 41.5521 85.712 41.4988 86H35.0028C35.0348 86.7893 35.2481 87.3707 35.6428 87.744C36.0374 88.1173 36.5281 88.304 37.1148 88.304C37.6374 88.304 38.0694 88.176 38.4108 87.92C38.7628 87.664 38.9868 87.3173 39.0828 86.88H41.4668C41.3494 87.4987 41.0988 88.0533 40.7148 88.544C40.3308 89.0347 39.8348 89.4187 39.2268 89.696C38.6294 89.9733 37.9628 90.112 37.2268 90.112C36.3628 90.112 35.5948 89.9307 34.9228 89.568C34.2508 89.1947 33.7281 88.6667 33.3548 87.984C32.9814 87.3013 32.7948 86.496 32.7948 85.568C32.7948 84.64 32.9814 83.8347 33.3548 83.152C33.7281 82.4587 34.2508 81.9307 34.9228 81.568C35.5948 81.2053 36.3628 81.024 37.2268 81.024C38.1014 81.024 38.8641 81.2053 39.5148 81.568C40.1761 81.9307 40.6828 82.432 41.0347 83.072C41.3974 83.7013 41.5788 84.4213 41.5788 85.232ZM39.3068 85.008C39.3388 84.2827 39.1468 83.7333 38.7308 83.36C38.3254 82.9867 37.8241 82.8 37.2268 82.8C36.6188 82.8 36.1068 82.9867 35.6908 83.36C35.2748 83.7333 35.0454 84.2827 35.0028 85.008H39.3068ZM46.2363 81.024C47.3136 81.024 48.1776 81.296 48.8283 81.84C49.4789 82.384 49.8843 83.1093 50.0443 84.016H47.9323C47.8469 83.5893 47.6549 83.248 47.3563 82.992C47.0576 82.736 46.6683 82.608 46.1883 82.608C45.8043 82.608 45.5056 82.6987 45.2923 82.88C45.0789 83.0613 44.9723 83.3067 44.9723 83.616C44.9723 83.8613 45.0576 84.0587 45.2283 84.208C45.3989 84.3573 45.6123 84.4747 45.8683 84.56C46.1243 84.6453 46.4923 84.7467 46.9723 84.864C47.6443 85.0133 48.1883 85.1733 48.6043 85.344C49.0309 85.504 49.3936 85.7653 49.6923 86.128C50.0016 86.48 50.1562 86.96 50.1562 87.568C50.1562 88.3253 49.8576 88.9387 49.2603 89.408C48.6736 89.8773 47.8789 90.112 46.8763 90.112C45.7243 90.112 44.8016 89.856 44.1083 89.344C43.4149 88.8213 42.9936 88.08 42.8443 87.12H45.0043C45.0576 87.5573 45.2496 87.904 45.5803 88.16C45.9109 88.4053 46.3429 88.528 46.8763 88.528C47.2603 88.528 47.5536 88.4373 47.7563 88.256C47.9589 88.064 48.0603 87.8187 48.0603 87.52C48.0603 87.264 47.9696 87.056 47.7883 86.896C47.6176 86.736 47.3989 86.6133 47.1323 86.528C46.8763 86.4427 46.5083 86.3413 46.0283 86.224C45.3669 86.0747 44.8283 85.9253 44.4123 85.776C44.0069 85.616 43.6549 85.3653 43.3563 85.024C43.0683 84.6827 42.9243 84.2133 42.9243 83.616C42.9243 82.848 43.2176 82.224 43.8043 81.744C44.3909 81.264 45.2016 81.024 46.2363 81.024ZM54.8925 81.024C55.9698 81.024 56.8338 81.296 57.4845 81.84C58.1352 82.384 58.5405 83.1093 58.7005 84.016H56.5885C56.5032 83.5893 56.3112 83.248 56.0125 82.992C55.7138 82.736 55.3245 82.608 54.8445 82.608C54.4605 82.608 54.1618 82.6987 53.9485 82.88C53.7352 83.0613 53.6285 83.3067 53.6285 83.616C53.6285 83.8613 53.7138 84.0587 53.8845 84.208C54.0552 84.3573 54.2685 84.4747 54.5245 84.56C54.7805 84.6453 55.1485 84.7467 55.6285 84.864C56.3005 85.0133 56.8445 85.1733 57.2605 85.344C57.6872 85.504 58.0498 85.7653 58.3485 86.128C58.6578 86.48 58.8125 86.96 58.8125 87.568C58.8125 88.3253 58.5138 88.9387 57.9165 89.408C57.3298 89.8773 56.5352 90.112 55.5325 90.112C54.3805 90.112 53.4578 89.856 52.7645 89.344C52.0712 88.8213 51.6498 88.08 51.5005 87.12H53.6605C53.7138 87.5573 53.9058 87.904 54.2365 88.16C54.5672 88.4053 54.9992 88.528 55.5325 88.528C55.9165 88.528 56.2098 88.4373 56.4125 88.256C56.6152 88.064 56.7165 87.8187 56.7165 87.52C56.7165 87.264 56.6258 87.056 56.4445 86.896C56.2738 86.736 56.0552 86.6133 55.7885 86.528C55.5325 86.4427 55.1645 86.3413 54.6845 86.224C54.0232 86.0747 53.4845 85.9253 53.0685 85.776C52.6632 85.616 52.3112 85.3653 52.0125 85.024C51.7245 84.6827 51.5805 84.2133 51.5805 83.616C51.5805 82.848 51.8738 82.224 52.4605 81.744C53.0472 81.264 53.8578 81.024 54.8925 81.024ZM60.2368 78.592C60.2368 78.2293 60.3648 77.936 60.6208 77.712C60.8768 77.4773 61.2128 77.36 61.6288 77.36C62.0448 77.36 62.3808 77.4773 62.6368 77.712C62.8928 77.936 63.0208 78.2293 63.0208 78.592C63.0208 78.944 62.8928 79.2373 62.6368 79.472C62.3808 79.696 62.0448 79.808 61.6288 79.808C61.2128 79.808 60.8768 79.696 60.6208 79.472C60.3648 79.2373 60.2368 78.944 60.2368 78.592ZM62.7488 81.136V90H60.4928V81.136H62.7488ZM68.8856 81.024C69.7496 81.024 70.523 81.2053 71.2056 81.568C71.899 81.9307 72.443 82.4587 72.8376 83.152C73.2323 83.8347 73.4296 84.64 73.4296 85.568C73.4296 86.496 73.2323 87.3013 72.8376 87.984C72.443 88.6667 71.899 89.1947 71.2056 89.568C70.523 89.9307 69.7496 90.112 68.8856 90.112C68.0216 90.112 67.243 89.9307 66.5496 89.568C65.867 89.1947 65.3283 88.6667 64.9336 87.984C64.539 87.3013 64.3416 86.496 64.3416 85.568C64.3416 84.64 64.539 83.8347 64.9336 83.152C65.3283 82.4587 65.867 81.9307 66.5496 81.568C67.243 81.2053 68.0216 81.024 68.8856 81.024ZM68.8856 82.976C68.2563 82.976 67.723 83.2 67.2856 83.648C66.8483 84.0853 66.6296 84.7253 66.6296 85.568C66.6296 86.4107 66.8483 87.056 67.2856 87.504C67.723 87.9413 68.2563 88.16 68.8856 88.16C69.515 88.16 70.0483 87.9413 70.4856 87.504C70.923 87.056 71.1416 86.4107 71.1416 85.568C71.1416 84.7253 70.923 84.0853 70.4856 83.648C70.0483 83.2 69.515 82.976 68.8856 82.976ZM80.304 81.008C81.328 81.008 82.144 81.344 82.752 82.016C83.36 82.688 83.664 83.632 83.664 84.848V90H81.424V85.104C81.424 84.4 81.2427 83.856 80.88 83.472C80.5173 83.0773 80.0213 82.88 79.392 82.88C78.752 82.88 78.24 83.088 77.856 83.504C77.472 83.92 77.28 84.5173 77.28 85.296V90H75.024V81.136H77.28V82.912C77.5147 82.3147 77.8987 81.8507 78.432 81.52C78.976 81.1787 79.6 81.008 80.304 81.008ZM89.121 81.024C89.8677 81.024 90.5077 81.2 91.041 81.552C91.5743 81.904 91.953 82.3787 92.177 82.976V81.136H94.417V90H92.177V88.144C91.953 88.7413 91.5743 89.2213 91.041 89.584C90.5077 89.936 89.8677 90.112 89.121 90.112C88.3743 90.112 87.7023 89.9307 87.105 89.568C86.5077 89.2053 86.0383 88.6827 85.697 88C85.3663 87.3067 85.201 86.496 85.201 85.568C85.201 84.64 85.3663 83.8347 85.697 83.152C86.0383 82.4587 86.5077 81.9307 87.105 81.568C87.7023 81.2053 88.3743 81.024 89.121 81.024ZM89.825 82.992C89.121 82.992 88.5557 83.2213 88.129 83.68C87.7023 84.1387 87.489 84.768 87.489 85.568C87.489 86.368 87.7023 86.9973 88.129 87.456C88.5557 87.904 89.121 88.128 89.825 88.128C90.5077 88.128 91.0677 87.8987 91.505 87.44C91.953 86.9707 92.177 86.3467 92.177 85.568C92.177 84.7787 91.953 84.1547 91.505 83.696C91.0677 83.2267 90.5077 82.992 89.825 82.992ZM98.7175 78.16V90H96.4615V78.16H98.7175Z" fill="#232536"/>
<rect y="62" width="71.9999" height="6.00003" fill="#444CFC"/>
<rect x="10.4023" y="62" width="61.5953" height="6.00003" fill="#FFA155"/>
<rect x="10.0503" y="62" width="44.6449" height="5.99069" fill="#FFD3AF"/>
<path d="M0.432 19.336V14.584H9.576V40H4.248V19.336H0.432ZM13.5748 27.076C13.5748 35.692 16.8148 40 23.2948 40C26.7268 40 29.1988 38.848 30.7108 36.544C32.2228 34.24 32.9788 31.084 32.9788 27.076C32.9788 23.092 32.2228 19.948 30.7108 17.644C29.1988 15.34 26.7268 14.188 23.2948 14.188C16.8148 14.188 13.5748 18.484 13.5748 27.076ZM27.9748 27.076C27.9748 29.692 27.6508 31.708 27.0028 33.124C26.3788 34.516 25.1428 35.212 23.2948 35.212C21.4228 35.212 20.1628 34.516 19.5148 33.124C18.8908 31.708 18.5788 29.692 18.5788 27.076C18.5788 24.484 18.8908 22.492 19.5148 21.1C20.1628 19.684 21.4228 18.976 23.2948 18.976C25.1428 18.976 26.3788 19.684 27.0028 21.1C27.6508 22.492 27.9748 24.484 27.9748 27.076ZM36.3209 27.076C36.3209 35.692 39.5609 40 46.0409 40C49.4729 40 51.9449 38.848 53.4569 36.544C54.9689 34.24 55.7249 31.084 55.7249 27.076C55.7249 23.092 54.9689 19.948 53.4569 17.644C51.9449 15.34 49.4729 14.188 46.0409 14.188C39.5609 14.188 36.3209 18.484 36.3209 27.076ZM50.7209 27.076C50.7209 29.692 50.3969 31.708 49.7489 33.124C49.1249 34.516 47.8889 35.212 46.0409 35.212C44.1689 35.212 42.9089 34.516 42.2609 33.124C41.6369 31.708 41.3249 29.692 41.3249 27.076C41.3249 24.484 41.6369 22.492 42.2609 21.1C42.9089 19.684 44.1689 18.976 46.0409 18.976C47.8889 18.976 49.1249 19.684 49.7489 21.1C50.3969 22.492 50.7209 24.484 50.7209 27.076ZM76.743 29.524H70.011V36.364H65.115V29.524H58.383V24.88H65.115V18.004H70.011V24.88H76.743V29.524Z" fill="#232536"/>
</svg>
