<svg width="138" height="98" viewBox="0 0 138 98" fill="none" xmlns="http://www.w3.org/2000/svg">
<path opacity="0.87" d="M3.28 85.808V90H1.024V78.704H5.136C6.46933 78.704 7.472 79.024 8.144 79.664C8.82667 80.304 9.168 81.1733 9.168 82.272C9.168 83.3493 8.816 84.208 8.112 84.848C7.41867 85.488 6.42667 85.808 5.136 85.808H3.28ZM4.896 84C6.21867 84 6.88 83.424 6.88 82.272C6.88 81.7067 6.72533 81.2747 6.416 80.976C6.10667 80.6773 5.6 80.528 4.896 80.528H3.28V84H4.896ZM12.8894 82.832C13.22 82.2667 13.6574 81.824 14.2014 81.504C14.7454 81.1733 15.3534 81.008 16.0254 81.008V83.424H15.3694C13.716 83.424 12.8894 84.192 12.8894 85.728V90H10.6334V81.136H12.8894V82.832ZM21.37 81.024C22.234 81.024 23.0073 81.2053 23.69 81.568C24.3833 81.9307 24.9273 82.4587 25.322 83.152C25.7167 83.8347 25.914 84.64 25.914 85.568C25.914 86.496 25.7167 87.3013 25.322 87.984C24.9273 88.6667 24.3833 89.1947 23.69 89.568C23.0073 89.9307 22.234 90.112 21.37 90.112C20.506 90.112 19.7273 89.9307 19.034 89.568C18.3513 89.1947 17.8127 88.6667 17.418 87.984C17.0233 87.3013 16.826 86.496 16.826 85.568C16.826 84.64 17.0233 83.8347 17.418 83.152C17.8127 82.4587 18.3513 81.9307 19.034 81.568C19.7273 81.2053 20.506 81.024 21.37 81.024ZM21.37 82.976C20.7407 82.976 20.2073 83.2 19.77 83.648C19.3327 84.0853 19.114 84.7253 19.114 85.568C19.114 86.4107 19.3327 87.056 19.77 87.504C20.2073 87.9413 20.7407 88.16 21.37 88.16C21.9993 88.16 22.5327 87.9413 22.97 87.504C23.4073 87.056 23.626 86.4107 23.626 85.568C23.626 84.7253 23.4073 84.0853 22.97 83.648C22.5327 83.2 21.9993 82.976 21.37 82.976ZM28.6924 79.808C28.2764 79.808 27.9404 79.696 27.6844 79.472C27.4284 79.2373 27.3004 78.944 27.3004 78.592C27.3004 78.2293 27.4284 77.936 27.6844 77.712C27.9404 77.4773 28.2764 77.36 28.6924 77.36C29.1084 77.36 29.4444 77.4773 29.7004 77.712C29.9564 77.9467 30.0844 78.24 30.0844 78.592C30.0844 78.944 29.9564 79.2373 29.7004 79.472C29.4444 79.696 29.1084 79.808 28.6924 79.808ZM26.0044 92.272H26.6444C26.975 92.272 27.2097 92.2027 27.3484 92.064C27.4977 91.9253 27.5724 91.6853 27.5724 91.344V81.136H29.8284V91.344C29.8284 93.264 28.863 94.224 26.9324 94.224H26.0044V92.272ZM40.2038 85.232C40.2038 85.456 40.1771 85.712 40.1238 86H33.6278C33.6598 86.7893 33.8731 87.3707 34.2678 87.744C34.6624 88.1173 35.1531 88.304 35.7398 88.304C36.2624 88.304 36.6944 88.176 37.0358 87.92C37.3878 87.664 37.6118 87.3173 37.7078 86.88H40.0918C39.9744 87.4987 39.7238 88.0533 39.3398 88.544C38.9558 89.0347 38.4598 89.4187 37.8518 89.696C37.2544 89.9733 36.5878 90.112 35.8518 90.112C34.9878 90.112 34.2198 89.9307 33.5478 89.568C32.8758 89.1947 32.3531 88.6667 31.9798 87.984C31.6064 87.3013 31.4198 86.496 31.4198 85.568C31.4198 84.64 31.6064 83.8347 31.9798 83.152C32.3531 82.4587 32.8758 81.9307 33.5478 81.568C34.2198 81.2053 34.9878 81.024 35.8518 81.024C36.7264 81.024 37.4891 81.2053 38.1398 81.568C38.8011 81.9307 39.3078 82.432 39.6597 83.072C40.0224 83.7013 40.2038 84.4213 40.2038 85.232ZM37.9318 85.008C37.9638 84.2827 37.7718 83.7333 37.3558 83.36C36.9504 82.9867 36.4491 82.8 35.8518 82.8C35.2438 82.8 34.7318 82.9867 34.3158 83.36C33.8998 83.7333 33.6704 84.2827 33.6278 85.008H37.9318ZM45.7893 81.024C46.9306 81.024 47.8799 81.3333 48.6373 81.952C49.4053 82.5707 49.8853 83.4133 50.0773 84.48H47.6933C47.5973 84.0107 47.3786 83.6427 47.0373 83.376C46.6959 83.0987 46.2639 82.96 45.7413 82.96C45.1439 82.96 44.6426 83.184 44.2373 83.632C43.8426 84.0693 43.6453 84.7147 43.6453 85.568C43.6453 86.4213 43.8426 87.072 44.2373 87.52C44.6426 87.9573 45.1439 88.176 45.7413 88.176C46.2639 88.176 46.6959 88.0427 47.0373 87.776C47.3786 87.4987 47.5973 87.1253 47.6933 86.656H50.0773C49.8853 87.7227 49.4053 88.5653 48.6373 89.184C47.8799 89.8027 46.9306 90.112 45.7893 90.112C44.9253 90.112 44.1573 89.9307 43.4853 89.568C42.8133 89.1947 42.2906 88.6667 41.9173 87.984C41.5439 87.3013 41.3573 86.496 41.3573 85.568C41.3573 84.64 41.5439 83.8347 41.9173 83.152C42.2906 82.4587 42.8133 81.9307 43.4853 81.568C44.1573 81.2053 44.9253 81.024 45.7893 81.024ZM56.4163 88.064V90H55.2323C54.2403 90 53.4776 89.76 52.9443 89.28C52.4216 88.8 52.1603 88 52.1603 86.88V83.04H50.9283V81.136H52.1603V78.944H54.4163V81.136H56.4003V83.04H54.4163V86.912C54.4163 87.3387 54.5016 87.6373 54.6723 87.808C54.8429 87.9787 55.1309 88.064 55.5363 88.064H56.4163ZM71.46 84.336C71.46 85.456 71.2253 86.4427 70.756 87.296C70.2867 88.1493 69.604 88.816 68.708 89.296C67.8227 89.7653 66.7667 90 65.54 90H61.524V78.704H65.54C66.7667 78.704 67.8227 78.9387 68.708 79.408C69.604 79.8667 70.2867 80.5227 70.756 81.376C71.2253 82.2187 71.46 83.2053 71.46 84.336ZM65.348 87.984C66.564 87.984 67.5027 87.664 68.164 87.024C68.836 86.384 69.172 85.488 69.172 84.336C69.172 83.1733 68.836 82.272 68.164 81.632C67.5027 80.992 66.564 80.672 65.348 80.672H63.78V87.984H65.348ZM81.485 85.232C81.485 85.456 81.4583 85.712 81.405 86H74.909C74.941 86.7893 75.1543 87.3707 75.549 87.744C75.9437 88.1173 76.4343 88.304 77.021 88.304C77.5437 88.304 77.9757 88.176 78.317 87.92C78.669 87.664 78.893 87.3173 78.989 86.88H81.373C81.2557 87.4987 81.005 88.0533 80.621 88.544C80.237 89.0347 79.741 89.4187 79.133 89.696C78.5357 89.9733 77.869 90.112 77.133 90.112C76.269 90.112 75.501 89.9307 74.829 89.568C74.157 89.1947 73.6343 88.6667 73.261 87.984C72.8877 87.3013 72.701 86.496 72.701 85.568C72.701 84.64 72.8877 83.8347 73.261 83.152C73.6343 82.4587 74.157 81.9307 74.829 81.568C75.501 81.2053 76.269 81.024 77.133 81.024C78.0077 81.024 78.7703 81.2053 79.421 81.568C80.0823 81.9307 80.589 82.432 80.941 83.072C81.3037 83.7013 81.485 84.4213 81.485 85.232ZM79.213 85.008C79.245 84.2827 79.053 83.7333 78.637 83.36C78.2317 82.9867 77.7303 82.8 77.133 82.8C76.525 82.8 76.013 82.9867 75.597 83.36C75.181 83.7333 74.9517 84.2827 74.909 85.008H79.213ZM85.3425 78.16V90H83.0865V78.16H85.3425ZM87.1274 78.592C87.1274 78.2293 87.2554 77.936 87.5114 77.712C87.7674 77.4773 88.1034 77.36 88.5194 77.36C88.9354 77.36 89.2714 77.4773 89.5274 77.712C89.7834 77.936 89.9114 78.2293 89.9114 78.592C89.9114 78.944 89.7834 79.2373 89.5274 79.472C89.2714 79.696 88.9354 79.808 88.5194 79.808C88.1034 79.808 87.7674 79.696 87.5114 79.472C87.2554 79.2373 87.1274 78.944 87.1274 78.592ZM89.6394 81.136V90H87.3834V81.136H89.6394ZM95.5363 87.744L97.7763 81.136H100.176L96.8963 90H94.1443L90.8643 81.136H93.2803L95.5363 87.744ZM109.766 85.232C109.766 85.456 109.74 85.712 109.686 86H103.19C103.222 86.7893 103.436 87.3707 103.83 87.744C104.225 88.1173 104.716 88.304 105.302 88.304C105.825 88.304 106.257 88.176 106.598 87.92C106.95 87.664 107.174 87.3173 107.27 86.88H109.654C109.537 87.4987 109.286 88.0533 108.902 88.544C108.518 89.0347 108.022 89.4187 107.414 89.696C106.817 89.9733 106.15 90.112 105.414 90.112C104.55 90.112 103.782 89.9307 103.11 89.568C102.438 89.1947 101.916 88.6667 101.542 87.984C101.169 87.3013 100.982 86.496 100.982 85.568C100.982 84.64 101.169 83.8347 101.542 83.152C101.916 82.4587 102.438 81.9307 103.11 81.568C103.782 81.2053 104.55 81.024 105.414 81.024C106.289 81.024 107.052 81.2053 107.702 81.568C108.364 81.9307 108.87 82.432 109.222 83.072C109.585 83.7013 109.766 84.4213 109.766 85.232ZM107.494 85.008C107.526 84.2827 107.334 83.7333 106.918 83.36C106.513 82.9867 106.012 82.8 105.414 82.8C104.806 82.8 104.294 82.9867 103.878 83.36C103.462 83.7333 103.233 84.2827 103.19 85.008H107.494ZM113.624 82.832C113.954 82.2667 114.392 81.824 114.936 81.504C115.48 81.1733 116.088 81.008 116.76 81.008V83.424H116.104C114.45 83.424 113.624 84.192 113.624 85.728V90H111.368V81.136H113.624V82.832ZM126.344 85.232C126.344 85.456 126.318 85.712 126.264 86H119.768C119.8 86.7893 120.014 87.3707 120.408 87.744C120.803 88.1173 121.294 88.304 121.88 88.304C122.403 88.304 122.835 88.176 123.176 87.92C123.528 87.664 123.752 87.3173 123.848 86.88H126.232C126.115 87.4987 125.864 88.0533 125.48 88.544C125.096 89.0347 124.6 89.4187 123.992 89.696C123.395 89.9733 122.728 90.112 121.992 90.112C121.128 90.112 120.36 89.9307 119.688 89.568C119.016 89.1947 118.494 88.6667 118.12 87.984C117.747 87.3013 117.56 86.496 117.56 85.568C117.56 84.64 117.747 83.8347 118.12 83.152C118.494 82.4587 119.016 81.9307 119.688 81.568C120.36 81.2053 121.128 81.024 121.992 81.024C122.867 81.024 123.63 81.2053 124.28 81.568C124.942 81.9307 125.448 82.432 125.8 83.072C126.163 83.7013 126.344 84.4213 126.344 85.232ZM124.072 85.008C124.104 84.2827 123.912 83.7333 123.496 83.36C123.091 82.9867 122.59 82.8 121.992 82.8C121.384 82.8 120.872 82.9867 120.456 83.36C120.04 83.7333 119.811 84.2827 119.768 85.008H124.072ZM131.418 81.024C132.165 81.024 132.799 81.2 133.322 81.552C133.855 81.904 134.239 82.3787 134.474 82.976V78.16H136.714V90H134.474V88.144C134.239 88.7413 133.855 89.2213 133.322 89.584C132.799 89.936 132.165 90.112 131.418 90.112C130.671 90.112 129.999 89.9307 129.402 89.568C128.805 89.2053 128.335 88.6827 127.994 88C127.663 87.3067 127.498 86.496 127.498 85.568C127.498 84.64 127.663 83.8347 127.994 83.152C128.335 82.4587 128.805 81.9307 129.402 81.568C129.999 81.2053 130.671 81.024 131.418 81.024ZM132.122 82.992C131.418 82.992 130.853 83.2213 130.426 83.68C129.999 84.1387 129.786 84.768 129.786 85.568C129.786 86.368 129.999 86.9973 130.426 87.456C130.853 87.904 131.418 88.128 132.122 88.128C132.805 88.128 133.365 87.8987 133.802 87.44C134.25 86.9707 134.474 86.3467 134.474 85.568C134.474 84.7787 134.25 84.1547 133.802 83.696C133.365 83.2267 132.805 82.992 132.122 82.992Z" fill="#232536"/>
<rect y="62" width="71.9999" height="6.00003" fill="#444CFC"/>
<rect x="10.4023" y="62" width="61.5953" height="6.00003" fill="#FFA155"/>
<rect x="10.0503" y="62" width="44.6449" height="5.99069" fill="#FFD3AF"/>
<path d="M0.432 19.336V14.584H9.576V40H4.248V19.336H0.432ZM31.7548 18.544H19.6948V24.952C20.2468 24.304 21.0028 23.788 21.9628 23.404C22.9468 22.996 24.0268 22.792 25.2028 22.792C26.9548 22.792 28.4068 23.176 29.5588 23.944C30.7348 24.688 31.5988 25.696 32.1508 26.968C32.7268 28.216 33.0148 29.608 33.0148 31.144C33.0148 33.856 32.2468 36.028 30.7108 37.66C29.1988 39.292 27.0268 40.108 24.1948 40.108C22.3468 40.108 20.7388 39.784 19.3708 39.136C18.0028 38.464 16.9348 37.54 16.1668 36.364C15.3988 35.164 14.9788 33.772 14.9068 32.188H19.8388C20.0308 33.268 20.4748 34.132 21.1708 34.78C21.8668 35.404 22.7908 35.716 23.9428 35.716C25.3348 35.716 26.3668 35.296 27.0388 34.456C27.7348 33.592 28.0828 32.452 28.0828 31.036C28.0828 29.692 27.7228 28.648 27.0028 27.904C26.2828 27.16 25.2628 26.788 23.9428 26.788C22.9828 26.788 22.1668 27.004 21.4948 27.436C20.8228 27.844 20.3308 28.396 20.0188 29.092H15.0868V14.08H31.7548V18.544ZM49.8201 21.496C49.4361 19 48.1641 17.752 46.0041 17.752C44.3241 17.752 43.1001 18.496 42.3321 19.984C41.5641 21.448 41.2281 23.752 41.3241 26.896C41.7081 25.744 42.4521 24.832 43.5561 24.16C44.6841 23.464 45.9921 23.116 47.4801 23.116C49.9281 23.116 51.8481 23.86 53.2401 25.348C54.6561 26.812 55.3641 28.9 55.3641 31.612C55.3641 33.292 55.0281 34.78 54.3561 36.076C53.6841 37.372 52.6761 38.392 51.3321 39.136C50.0121 39.88 48.4041 40.252 46.5081 40.252C42.8121 40.252 40.2681 39.112 38.8761 36.832C37.4841 34.528 36.7881 31.36 36.7881 27.328C36.7881 22.696 37.5321 19.264 39.0201 17.032C40.5321 14.8 42.9681 13.684 46.3281 13.684C48.8961 13.684 50.8641 14.416 52.2321 15.88C53.6001 17.344 54.3801 19.216 54.5721 21.496H49.8201ZM41.7561 31.252C41.7561 32.596 42.1401 33.712 42.9081 34.6C43.7001 35.464 44.8521 35.896 46.3641 35.896C47.6601 35.896 48.6921 35.512 49.4601 34.744C50.2281 33.976 50.6121 32.908 50.6121 31.54C50.6121 30.1 50.2161 28.996 49.4241 28.228C48.6561 27.46 47.6121 27.076 46.2921 27.076C45.0441 27.076 43.9761 27.436 43.0881 28.156C42.2001 28.876 41.7561 29.908 41.7561 31.252ZM58.8561 27.076C58.8561 35.692 62.0961 40 68.5761 40C72.0081 40 74.4801 38.848 75.9921 36.544C77.5041 34.24 78.2601 31.084 78.2601 27.076C78.2601 23.092 77.5041 19.948 75.9921 17.644C74.4801 15.34 72.0081 14.188 68.5761 14.188C62.0961 14.188 58.8561 18.484 58.8561 27.076ZM73.2561 27.076C73.2561 29.692 72.9321 31.708 72.2841 33.124C71.6601 34.516 70.4241 35.212 68.5761 35.212C66.7041 35.212 65.4441 34.516 64.7961 33.124C64.1721 31.708 63.8601 29.692 63.8601 27.076C63.8601 24.484 64.1721 22.492 64.7961 21.1C65.4441 19.684 66.7041 18.976 68.5761 18.976C70.4241 18.976 71.6601 19.684 72.2841 21.1C72.9321 22.492 73.2561 24.484 73.2561 27.076ZM99.2782 29.524H92.5462V36.364H87.6502V29.524H80.9182V24.88H87.6502V18.004H92.5462V24.88H99.2782V29.524Z" fill="#232536"/>
</svg>
