<svg width="105" height="98" viewBox="0 0 105 98" fill="none" xmlns="http://www.w3.org/2000/svg">
<path opacity="0.87" d="M10.384 78.704V90H8.112V85.088H3.28V90H1.024V78.704H3.28V83.28H8.112V78.704H10.384ZM15.9023 81.024C16.6489 81.024 17.2889 81.2 17.8223 81.552C18.3556 81.904 18.7343 82.3787 18.9583 82.976V81.136H21.1983V90H18.9583V88.144C18.7343 88.7413 18.3556 89.2213 17.8223 89.584C17.2889 89.936 16.6489 90.112 15.9023 90.112C15.1556 90.112 14.4836 89.9307 13.8863 89.568C13.2889 89.2053 12.8196 88.6827 12.4783 88C12.1476 87.3067 11.9823 86.496 11.9823 85.568C11.9823 84.64 12.1476 83.8347 12.4783 83.152C12.8196 82.4587 13.2889 81.9307 13.8863 81.568C14.4836 81.2053 15.1556 81.024 15.9023 81.024ZM16.6063 82.992C15.9023 82.992 15.3369 83.2213 14.9103 83.68C14.4836 84.1387 14.2703 84.768 14.2703 85.568C14.2703 86.368 14.4836 86.9973 14.9103 87.456C15.3369 87.904 15.9023 88.128 16.6063 88.128C17.2889 88.128 17.8489 87.8987 18.2863 87.44C18.7343 86.9707 18.9583 86.3467 18.9583 85.568C18.9583 84.7787 18.7343 84.1547 18.2863 83.696C17.8489 83.2267 17.2889 82.992 16.6063 82.992ZM28.5388 81.024C29.2854 81.024 29.9574 81.2053 30.5548 81.568C31.1521 81.9307 31.6161 82.4587 31.9468 83.152C32.2881 83.8347 32.4588 84.64 32.4588 85.568C32.4588 86.496 32.2881 87.3067 31.9468 88C31.6161 88.6827 31.1521 89.2053 30.5548 89.568C29.9574 89.9307 29.2854 90.112 28.5388 90.112C27.7921 90.112 27.1521 89.936 26.6188 89.584C26.0961 89.2213 25.7228 88.7413 25.4988 88.144V94.224H23.2428V81.136H25.4988V82.976C25.7228 82.3787 26.0961 81.904 26.6188 81.552C27.1521 81.2 27.7921 81.024 28.5388 81.024ZM27.8348 82.992C27.1521 82.992 26.5868 83.2267 26.1388 83.696C25.7014 84.1547 25.4828 84.7787 25.4828 85.568C25.4828 86.3467 25.7014 86.9707 26.1388 87.44C26.5868 87.8987 27.1521 88.128 27.8348 88.128C28.5388 88.128 29.1041 87.904 29.5308 87.456C29.9574 86.9973 30.1708 86.368 30.1708 85.568C30.1708 84.768 29.9574 84.1387 29.5308 83.68C29.1041 83.2213 28.5388 82.992 27.8348 82.992ZM39.3513 81.024C40.0979 81.024 40.7699 81.2053 41.3673 81.568C41.9646 81.9307 42.4286 82.4587 42.7593 83.152C43.1006 83.8347 43.2713 84.64 43.2713 85.568C43.2713 86.496 43.1006 87.3067 42.7593 88C42.4286 88.6827 41.9646 89.2053 41.3673 89.568C40.7699 89.9307 40.0979 90.112 39.3513 90.112C38.6046 90.112 37.9646 89.936 37.4313 89.584C36.9086 89.2213 36.5353 88.7413 36.3113 88.144V94.224H34.0553V81.136H36.3113V82.976C36.5353 82.3787 36.9086 81.904 37.4313 81.552C37.9646 81.2 38.6046 81.024 39.3513 81.024ZM38.6473 82.992C37.9646 82.992 37.3993 83.2267 36.9513 83.696C36.5139 84.1547 36.2953 84.7787 36.2953 85.568C36.2953 86.3467 36.5139 86.9707 36.9513 87.44C37.3993 87.8987 37.9646 88.128 38.6473 88.128C39.3513 88.128 39.9166 87.904 40.3433 87.456C40.7699 86.9973 40.9833 86.368 40.9833 85.568C40.9833 84.768 40.7699 84.1387 40.3433 83.68C39.9166 83.2213 39.3513 82.992 38.6473 82.992ZM46.3878 81.136L48.8038 87.152L51.0438 81.136H53.5238L48.0998 94.224H45.6038L47.6038 89.744L43.8758 81.136H46.3878ZM63.1749 78.592C64.5829 78.592 65.7509 78.9547 66.6789 79.68C67.6069 80.4053 68.2202 81.392 68.5189 82.64H66.1509C65.9055 82.032 65.5215 81.552 64.9989 81.2C64.4869 80.848 63.8682 80.672 63.1429 80.672C62.5455 80.672 62.0069 80.8213 61.5269 81.12C61.0469 81.4187 60.6735 81.8453 60.4069 82.4C60.1402 82.9547 60.0069 83.6053 60.0069 84.352C60.0069 85.088 60.1402 85.7333 60.4069 86.288C60.6735 86.8427 61.0469 87.2693 61.5269 87.568C62.0069 87.8667 62.5455 88.016 63.1429 88.016C63.8682 88.016 64.4869 87.84 64.9989 87.488C65.5215 87.136 65.9055 86.656 66.1509 86.048H68.5189C68.2202 87.296 67.6069 88.2827 66.6789 89.008C65.7509 89.7333 64.5829 90.096 63.1749 90.096C62.0975 90.096 61.1429 89.856 60.3109 89.376C59.4895 88.8853 58.8495 88.2027 58.3909 87.328C57.9429 86.4533 57.7189 85.4613 57.7189 84.352C57.7189 83.232 57.9429 82.2347 58.3909 81.36C58.8495 80.4853 59.4895 79.808 60.3109 79.328C61.1322 78.8373 62.0869 78.592 63.1749 78.592ZM72.4675 78.16V90H70.2115V78.16H72.4675ZM74.2524 78.592C74.2524 78.2293 74.3804 77.936 74.6364 77.712C74.8924 77.4773 75.2284 77.36 75.6444 77.36C76.0604 77.36 76.3964 77.4773 76.6524 77.712C76.9084 77.936 77.0364 78.2293 77.0364 78.592C77.0364 78.944 76.9084 79.2373 76.6524 79.472C76.3964 79.696 76.0604 79.808 75.6444 79.808C75.2284 79.808 74.8924 79.696 74.6364 79.472C74.3804 79.2373 74.2524 78.944 74.2524 78.592ZM76.7644 81.136V90H74.5084V81.136H76.7644ZM87.1413 85.232C87.1413 85.456 87.1146 85.712 87.0613 86H80.5653C80.5973 86.7893 80.8106 87.3707 81.2053 87.744C81.5999 88.1173 82.0906 88.304 82.6773 88.304C83.1999 88.304 83.6319 88.176 83.9733 87.92C84.3253 87.664 84.5493 87.3173 84.6453 86.88H87.0293C86.9119 87.4987 86.6613 88.0533 86.2773 88.544C85.8933 89.0347 85.3973 89.4187 84.7893 89.696C84.1919 89.9733 83.5253 90.112 82.7893 90.112C81.9253 90.112 81.1573 89.9307 80.4853 89.568C79.8133 89.1947 79.2906 88.6667 78.9173 87.984C78.5439 87.3013 78.3573 86.496 78.3573 85.568C78.3573 84.64 78.5439 83.8347 78.9173 83.152C79.2906 82.4587 79.8133 81.9307 80.4853 81.568C81.1573 81.2053 81.9253 81.024 82.7893 81.024C83.6639 81.024 84.4266 81.2053 85.0773 81.568C85.7386 81.9307 86.2453 82.432 86.5972 83.072C86.9599 83.7013 87.1413 84.4213 87.1413 85.232ZM84.8693 85.008C84.9013 84.2827 84.7093 83.7333 84.2933 83.36C83.8879 82.9867 83.3866 82.8 82.7893 82.8C82.1813 82.8 81.6693 82.9867 81.2533 83.36C80.8373 83.7333 80.6079 84.2827 80.5653 85.008H84.8693ZM94.0228 81.008C95.0468 81.008 95.8628 81.344 96.4708 82.016C97.0788 82.688 97.3828 83.632 97.3828 84.848V90H95.1428V85.104C95.1428 84.4 94.9614 83.856 94.5988 83.472C94.2361 83.0773 93.7401 82.88 93.1108 82.88C92.4708 82.88 91.9588 83.088 91.5748 83.504C91.1908 83.92 90.9988 84.5173 90.9988 85.296V90H88.7428V81.136H90.9988V82.912C91.2334 82.3147 91.6174 81.8507 92.1508 81.52C92.6948 81.1787 93.3188 81.008 94.0228 81.008ZM104.104 88.064V90H102.92C101.928 90 101.165 89.76 100.632 89.28C100.109 88.8 99.8478 88 99.8478 86.88V83.04H98.6158V81.136H99.8478V78.944H102.104V81.136H104.088V83.04H102.104V86.912C102.104 87.3387 102.189 87.6373 102.36 87.808C102.53 87.9787 102.818 88.064 103.224 88.064H104.104Z" fill="#232536"/>
<rect y="62.0001" width="71.9999" height="6.00003" fill="#444CFC"/>
<rect x="10.4023" y="62" width="61.5953" height="6.00003" fill="#FFA155"/>
<rect x="10.0503" y="62" width="44.6449" height="5.99069" fill="#FFD3AF"/>
<path d="M7.056 32.44C7.44 34.936 8.736 36.184 10.944 36.184C12.624 36.184 13.836 35.452 14.58 33.988C15.324 32.5 15.648 30.184 15.552 27.04C15.168 28.192 14.412 29.116 13.284 29.812C12.18 30.484 10.884 30.82 9.396 30.82C6.948 30.82 5.016 30.088 3.6 28.624C2.208 27.136 1.512 25.036 1.512 22.324C1.512 20.668 1.848 19.192 2.52 17.896C3.192 16.576 4.188 15.544 5.508 14.8C6.852 14.056 8.472 13.684 10.368 13.684C14.064 13.684 16.608 14.812 18 17.068C19.392 19.3 20.088 22.408 20.088 26.392C20.088 30.928 19.38 34.372 17.964 36.724C16.572 39.076 14.232 40.252 10.944 40.252C9.192 40.252 7.68 39.904 6.408 39.208C5.16 38.512 4.188 37.576 3.492 36.4C2.82 35.2 2.424 33.88 2.304 32.44H7.056ZM15.12 22.684C15.12 21.34 14.724 20.236 13.932 19.372C13.164 18.484 12.024 18.04 10.512 18.04C9.216 18.04 8.184 18.424 7.416 19.192C6.648 19.96 6.264 21.028 6.264 22.396C6.264 23.836 6.648 24.952 7.416 25.744C8.208 26.512 9.264 26.896 10.584 26.896C11.808 26.896 12.864 26.536 13.752 25.816C14.664 25.072 15.12 24.028 15.12 22.684ZM41.5986 18.544H29.5386V24.952C30.0906 24.304 30.8466 23.788 31.8066 23.404C32.7906 22.996 33.8706 22.792 35.0466 22.792C36.7986 22.792 38.2506 23.176 39.4026 23.944C40.5786 24.688 41.4426 25.696 41.9946 26.968C42.5706 28.216 42.8586 29.608 42.8586 31.144C42.8586 33.856 42.0906 36.028 40.5546 37.66C39.0426 39.292 36.8706 40.108 34.0386 40.108C32.1906 40.108 30.5826 39.784 29.2146 39.136C27.8466 38.464 26.7786 37.54 26.0106 36.364C25.2426 35.164 24.8226 33.772 24.7506 32.188H29.6826C29.8746 33.268 30.3186 34.132 31.0146 34.78C31.7106 35.404 32.6346 35.716 33.7866 35.716C35.1786 35.716 36.2106 35.296 36.8826 34.456C37.5786 33.592 37.9266 32.452 37.9266 31.036C37.9266 29.692 37.5666 28.648 36.8466 27.904C36.1266 27.16 35.1066 26.788 33.7866 26.788C32.8266 26.788 32.0106 27.004 31.3386 27.436C30.6666 27.844 30.1746 28.396 29.8626 29.092H24.9306V14.08H41.5986V18.544ZM46.1998 27.076C46.1998 35.692 49.4398 40 55.9198 40C59.3518 40 61.8238 38.848 63.3358 36.544C64.8478 34.24 65.6038 31.084 65.6038 27.076C65.6038 23.092 64.8478 19.948 63.3358 17.644C61.8238 15.34 59.3518 14.188 55.9198 14.188C49.4398 14.188 46.1998 18.484 46.1998 27.076ZM60.5998 27.076C60.5998 29.692 60.2758 31.708 59.6278 33.124C59.0038 34.516 57.7678 35.212 55.9198 35.212C54.0478 35.212 52.7878 34.516 52.1398 33.124C51.5158 31.708 51.2038 29.692 51.2038 27.076C51.2038 24.484 51.5158 22.492 52.1398 21.1C52.7878 19.684 54.0478 18.976 55.9198 18.976C57.7678 18.976 59.0038 19.684 59.6278 21.1C60.2758 22.492 60.5998 24.484 60.5998 27.076ZM86.6219 29.524H79.8899V36.364H74.9939V29.524H68.2619V24.88H74.9939V18.004H79.8899V24.88H86.6219V29.524Z" fill="#232536"/>
</svg>
