<svg width="337" height="232" viewBox="0 0 337 232" fill="none" xmlns="http://www.w3.org/2000/svg">
<g clip-path="url(#clip0_18002_434)">
<path opacity="0.87" d="M219.344 204.64V207.44H223.104V209.216H219.344V212.176H223.584V214H217.104V202.816H223.584V204.64H219.344ZM230.516 214L228.692 211.248L227.076 214H224.676L227.572 209.552L224.644 205.136H227.172L228.98 207.872L230.612 205.136H233.012L230.1 209.552L233.044 214H230.516ZM236.5 206.416C236.788 206.011 237.183 205.675 237.684 205.408C238.196 205.131 238.778 204.992 239.428 204.992C240.186 204.992 240.868 205.179 241.476 205.552C242.095 205.925 242.58 206.459 242.932 207.152C243.295 207.835 243.476 208.629 243.476 209.536C243.476 210.443 243.295 211.248 242.932 211.952C242.58 212.645 242.095 213.184 241.476 213.568C240.868 213.952 240.186 214.144 239.428 214.144C238.778 214.144 238.202 214.011 237.7 213.744C237.21 213.477 236.81 213.141 236.5 212.736V218.224H234.26V205.136H236.5V206.416ZM241.188 209.536C241.188 209.003 241.076 208.544 240.852 208.16C240.639 207.765 240.351 207.467 239.988 207.264C239.636 207.061 239.252 206.96 238.836 206.96C238.431 206.96 238.047 207.067 237.684 207.28C237.332 207.483 237.044 207.781 236.82 208.176C236.607 208.571 236.5 209.035 236.5 209.568C236.5 210.101 236.607 210.565 236.82 210.96C237.044 211.355 237.332 211.659 237.684 211.872C238.047 212.075 238.431 212.176 238.836 212.176C239.252 212.176 239.636 212.069 239.988 211.856C240.351 211.643 240.639 211.339 240.852 210.944C241.076 210.549 241.188 210.08 241.188 209.536ZM253.344 209.376C253.344 209.696 253.323 209.984 253.28 210.24H246.8C246.853 210.88 247.077 211.381 247.472 211.744C247.867 212.107 248.352 212.288 248.928 212.288C249.76 212.288 250.352 211.931 250.704 211.216H253.12C252.864 212.069 252.373 212.773 251.648 213.328C250.923 213.872 250.032 214.144 248.976 214.144C248.123 214.144 247.355 213.957 246.672 213.584C246 213.2 245.472 212.661 245.088 211.968C244.715 211.275 244.528 210.475 244.528 209.568C244.528 208.651 244.715 207.845 245.088 207.152C245.461 206.459 245.984 205.925 246.656 205.552C247.328 205.179 248.101 204.992 248.976 204.992C249.819 204.992 250.571 205.173 251.232 205.536C251.904 205.899 252.421 206.416 252.784 207.088C253.157 207.749 253.344 208.512 253.344 209.376ZM251.024 208.736C251.013 208.16 250.805 207.701 250.4 207.36C249.995 207.008 249.499 206.832 248.912 206.832C248.357 206.832 247.888 207.003 247.504 207.344C247.131 207.675 246.901 208.139 246.816 208.736H251.024ZM257.219 206.512C257.507 206.043 257.88 205.675 258.339 205.408C258.808 205.141 259.342 205.008 259.939 205.008V207.36H259.347C258.643 207.36 258.11 207.525 257.747 207.856C257.395 208.187 257.219 208.763 257.219 209.584V214H254.979V205.136H257.219V206.512ZM262.584 204.08C262.189 204.08 261.858 203.957 261.592 203.712C261.336 203.456 261.208 203.141 261.208 202.768C261.208 202.395 261.336 202.085 261.592 201.84C261.858 201.584 262.189 201.456 262.584 201.456C262.978 201.456 263.304 201.584 263.56 201.84C263.826 202.085 263.96 202.395 263.96 202.768C263.96 203.141 263.826 203.456 263.56 203.712C263.304 203.957 262.978 204.08 262.584 204.08ZM263.688 205.136V214H261.448V205.136H263.688ZM274.141 209.376C274.141 209.696 274.12 209.984 274.077 210.24H267.597C267.65 210.88 267.874 211.381 268.269 211.744C268.664 212.107 269.149 212.288 269.725 212.288C270.557 212.288 271.149 211.931 271.501 211.216H273.917C273.661 212.069 273.17 212.773 272.445 213.328C271.72 213.872 270.829 214.144 269.773 214.144C268.92 214.144 268.152 213.957 267.469 213.584C266.797 213.2 266.269 212.661 265.885 211.968C265.512 211.275 265.325 210.475 265.325 209.568C265.325 208.651 265.512 207.845 265.885 207.152C266.258 206.459 266.781 205.925 267.453 205.552C268.125 205.179 268.898 204.992 269.773 204.992C270.616 204.992 271.368 205.173 272.029 205.536C272.701 205.899 273.218 206.416 273.581 207.088C273.954 207.749 274.141 208.512 274.141 209.376ZM271.821 208.736C271.81 208.16 271.602 207.701 271.197 207.36C270.792 207.008 270.296 206.832 269.709 206.832C269.154 206.832 268.685 207.003 268.301 207.344C267.928 207.675 267.698 208.139 267.613 208.736H271.821ZM280.688 205.008C281.744 205.008 282.597 205.344 283.248 206.016C283.899 206.677 284.224 207.605 284.224 208.8V214H281.984V209.104C281.984 208.4 281.808 207.861 281.456 207.488C281.104 207.104 280.624 206.912 280.016 206.912C279.397 206.912 278.907 207.104 278.544 207.488C278.192 207.861 278.016 208.4 278.016 209.104V214H275.776V205.136H278.016V206.24C278.315 205.856 278.693 205.557 279.152 205.344C279.621 205.12 280.133 205.008 280.688 205.008ZM285.778 209.568C285.778 208.651 285.965 207.851 286.338 207.168C286.711 206.475 287.229 205.941 287.89 205.568C288.551 205.184 289.309 204.992 290.162 204.992C291.261 204.992 292.167 205.269 292.882 205.824C293.607 206.368 294.093 207.136 294.338 208.128H291.922C291.794 207.744 291.575 207.445 291.266 207.232C290.967 207.008 290.594 206.896 290.146 206.896C289.506 206.896 288.999 207.131 288.626 207.6C288.253 208.059 288.066 208.715 288.066 209.568C288.066 210.411 288.253 211.067 288.626 211.536C288.999 211.995 289.506 212.224 290.146 212.224C291.053 212.224 291.645 211.819 291.922 211.008H294.338C294.093 211.968 293.607 212.731 292.882 213.296C292.157 213.861 291.25 214.144 290.162 214.144C289.309 214.144 288.551 213.957 287.89 213.584C287.229 213.2 286.711 212.667 286.338 211.984C285.965 211.291 285.778 210.485 285.778 209.568ZM304.219 209.376C304.219 209.696 304.198 209.984 304.155 210.24H297.675C297.728 210.88 297.952 211.381 298.347 211.744C298.742 212.107 299.227 212.288 299.803 212.288C300.635 212.288 301.227 211.931 301.579 211.216H303.995C303.739 212.069 303.248 212.773 302.523 213.328C301.798 213.872 300.907 214.144 299.851 214.144C298.998 214.144 298.23 213.957 297.547 213.584C296.875 213.2 296.347 212.661 295.963 211.968C295.59 211.275 295.403 210.475 295.403 209.568C295.403 208.651 295.59 207.845 295.963 207.152C296.336 206.459 296.859 205.925 297.531 205.552C298.203 205.179 298.976 204.992 299.851 204.992C300.694 204.992 301.446 205.173 302.107 205.536C302.779 205.899 303.296 206.416 303.659 207.088C304.032 207.749 304.219 208.512 304.219 209.376ZM301.899 208.736C301.888 208.16 301.68 207.701 301.275 207.36C300.87 207.008 300.374 206.832 299.787 206.832C299.232 206.832 298.763 207.003 298.379 207.344C298.006 207.675 297.776 208.139 297.691 208.736H301.899Z" fill="#232536"/>
<rect x="216" y="186" width="71.9999" height="6.00003" fill="#444CFC"/>
<rect x="226.402" y="186" width="61.5953" height="6.00003" fill="#FFA155"/>
<rect x="226.05" y="186" width="44.6449" height="5.99069" fill="#FFD3AF"/>
<path d="M217.296 142.4V137.756H225.972V164H220.788V142.4H217.296ZM230.951 150.536C230.951 146.384 231.695 143.132 233.183 140.78C234.695 138.428 237.191 137.252 240.671 137.252C244.151 137.252 246.635 138.428 248.123 140.78C249.635 143.132 250.391 146.384 250.391 150.536C250.391 154.712 249.635 157.988 248.123 160.364C246.635 162.74 244.151 163.928 240.671 163.928C237.191 163.928 234.695 162.74 233.183 160.364C231.695 157.988 230.951 154.712 230.951 150.536ZM245.423 150.536C245.423 148.76 245.303 147.272 245.063 146.072C244.847 144.848 244.391 143.852 243.695 143.084C243.023 142.316 242.015 141.932 240.671 141.932C239.327 141.932 238.307 142.316 237.611 143.084C236.939 143.852 236.483 144.848 236.243 146.072C236.027 147.272 235.919 148.76 235.919 150.536C235.919 152.36 236.027 153.896 236.243 155.144C236.459 156.368 236.915 157.364 237.611 158.132C238.307 158.876 239.327 159.248 240.671 159.248C242.015 159.248 243.035 158.876 243.731 158.132C244.427 157.364 244.883 156.368 245.099 155.144C245.315 153.896 245.423 152.36 245.423 150.536ZM282.459 144.056L270.111 173.432H264.747L269.067 163.496L261.075 144.056H266.727L271.875 157.988L277.095 144.056H282.459ZM290.215 147.152C290.863 146.096 291.703 145.268 292.735 144.668C293.791 144.068 294.991 143.768 296.335 143.768V149.06H295.003C293.419 149.06 292.219 149.432 291.403 150.176C290.611 150.92 290.215 152.216 290.215 154.064V164H285.175V144.056H290.215V147.152ZM307.362 164.324C305.73 164.324 304.266 164.036 302.97 163.46C301.674 162.86 300.642 162.056 299.874 161.048C299.13 160.04 298.722 158.924 298.65 157.7H303.726C303.822 158.468 304.194 159.104 304.842 159.608C305.514 160.112 306.342 160.364 307.326 160.364C308.286 160.364 309.03 160.172 309.558 159.788C310.11 159.404 310.386 158.912 310.386 158.312C310.386 157.664 310.05 157.184 309.378 156.872C308.73 156.536 307.686 156.176 306.246 155.792C304.758 155.432 303.534 155.06 302.574 154.676C301.638 154.292 300.822 153.704 300.126 152.912C299.454 152.12 299.118 151.052 299.118 149.708C299.118 148.604 299.43 147.596 300.054 146.684C300.702 145.772 301.614 145.052 302.79 144.524C303.99 143.996 305.394 143.732 307.002 143.732C309.378 143.732 311.274 144.332 312.69 145.532C314.106 146.708 314.886 148.304 315.03 150.32H310.206C310.134 149.528 309.798 148.904 309.198 148.448C308.622 147.968 307.842 147.728 306.858 147.728C305.946 147.728 305.238 147.896 304.734 148.232C304.254 148.568 304.014 149.036 304.014 149.636C304.014 150.308 304.35 150.824 305.022 151.184C305.694 151.52 306.738 151.868 308.154 152.228C309.594 152.588 310.782 152.96 311.718 153.344C312.654 153.728 313.458 154.328 314.13 155.144C314.826 155.936 315.186 156.992 315.21 158.312C315.21 159.464 314.886 160.496 314.238 161.408C313.614 162.32 312.702 163.04 311.502 163.568C310.326 164.072 308.946 164.324 307.362 164.324Z" fill="#232536"/>
<path opacity="0.87" d="M25.248 79.288C25.248 79.8853 25.104 80.4453 24.816 80.968C24.5387 81.4907 24.096 81.912 23.488 82.232C22.8907 82.552 22.1333 82.712 21.216 82.712H19.344V87H17.104V75.832H21.216C22.08 75.832 22.816 75.9813 23.424 76.28C24.032 76.5787 24.4853 76.9893 24.784 77.512C25.0933 78.0347 25.248 78.6267 25.248 79.288ZM21.12 80.904C21.7387 80.904 22.1973 80.7653 22.496 80.488C22.7947 80.2 22.944 79.8 22.944 79.288C22.944 78.2 22.336 77.656 21.12 77.656H19.344V80.904H21.12ZM29.0784 79.512C29.3664 79.0427 29.7397 78.6747 30.1984 78.408C30.6677 78.1413 31.201 78.008 31.7984 78.008V80.36H31.2064C30.5024 80.36 29.969 80.5253 29.6064 80.856C29.2544 81.1867 29.0784 81.7627 29.0784 82.584V87H26.8384V78.136H29.0784V79.512ZM37.2431 87.144C36.3898 87.144 35.6218 86.9573 34.9391 86.584C34.2565 86.2 33.7178 85.6613 33.3231 84.968C32.9391 84.2747 32.7471 83.4747 32.7471 82.568C32.7471 81.6613 32.9445 80.8613 33.3391 80.168C33.7445 79.4747 34.2938 78.9413 34.9871 78.568C35.6805 78.184 36.4538 77.992 37.3071 77.992C38.1605 77.992 38.9338 78.184 39.6271 78.568C40.3205 78.9413 40.8645 79.4747 41.2591 80.168C41.6645 80.8613 41.8671 81.6613 41.8671 82.568C41.8671 83.4747 41.6591 84.2747 41.2431 84.968C40.8378 85.6613 40.2831 86.2 39.5791 86.584C38.8858 86.9573 38.1071 87.144 37.2431 87.144ZM37.2431 85.192C37.6485 85.192 38.0271 85.096 38.3791 84.904C38.7418 84.7013 39.0298 84.4027 39.2431 84.008C39.4565 83.6133 39.5631 83.1333 39.5631 82.568C39.5631 81.7253 39.3391 81.08 38.8911 80.632C38.4538 80.1733 37.9151 79.944 37.2751 79.944C36.6351 79.944 36.0965 80.1733 35.6591 80.632C35.2325 81.08 35.0191 81.7253 35.0191 82.568C35.0191 83.4107 35.2271 84.0613 35.6431 84.52C36.0698 84.968 36.6031 85.192 37.2431 85.192ZM44.6463 77.08C44.2409 77.08 43.9049 76.9573 43.6383 76.712C43.3823 76.456 43.2543 76.1413 43.2543 75.768C43.2543 75.3947 43.3823 75.0853 43.6383 74.84C43.9049 74.584 44.2409 74.456 44.6463 74.456C45.0409 74.456 45.3663 74.584 45.6223 74.84C45.8783 75.0853 46.0063 75.3947 46.0063 75.768C46.0063 76.1413 45.8783 76.456 45.6223 76.712C45.3663 76.9573 45.0409 77.08 44.6463 77.08ZM45.7503 88.456C45.7503 89.4373 45.5049 90.1413 45.0143 90.568C44.5343 91.0053 43.8409 91.224 42.9342 91.224H41.9422V89.32H42.5823C42.9236 89.32 43.1636 89.2507 43.3023 89.112C43.4409 88.984 43.5103 88.7707 43.5103 88.472V78.136H45.7503V88.456ZM56.2034 82.376C56.2034 82.696 56.182 82.984 56.1394 83.24H49.6594C49.7127 83.88 49.9367 84.3813 50.3314 84.744C50.726 85.1067 51.2114 85.288 51.7874 85.288C52.6194 85.288 53.2114 84.9307 53.5634 84.216H55.9794C55.7234 85.0693 55.2327 85.7733 54.5074 86.328C53.782 86.872 52.8914 87.144 51.8354 87.144C50.982 87.144 50.214 86.9573 49.5314 86.584C48.8594 86.2 48.3314 85.6613 47.9474 84.968C47.574 84.2747 47.3874 83.4747 47.3874 82.568C47.3874 81.6507 47.574 80.8453 47.9474 80.152C48.3207 79.4587 48.8434 78.9253 49.5154 78.552C50.1874 78.1787 50.9607 77.992 51.8354 77.992C52.678 77.992 53.43 78.1733 54.0914 78.536C54.7634 78.8987 55.2807 79.416 55.6434 80.088C56.0167 80.7493 56.2034 81.512 56.2034 82.376ZM53.8834 81.736C53.8727 81.16 53.6647 80.7013 53.2594 80.36C52.854 80.008 52.358 79.832 51.7714 79.832C51.2167 79.832 50.7474 80.0027 50.3634 80.344C49.99 80.6747 49.7607 81.1387 49.6754 81.736H53.8834ZM57.2624 82.568C57.2624 81.6507 57.449 80.8507 57.8224 80.168C58.1957 79.4747 58.713 78.9413 59.3744 78.568C60.0357 78.184 60.793 77.992 61.6464 77.992C62.745 77.992 63.6517 78.2693 64.3664 78.824C65.0917 79.368 65.577 80.136 65.8224 81.128H63.4064C63.2784 80.744 63.0597 80.4453 62.7504 80.232C62.4517 80.008 62.0784 79.896 61.6304 79.896C60.9904 79.896 60.4837 80.1307 60.1104 80.6C59.737 81.0587 59.5504 81.7147 59.5504 82.568C59.5504 83.4107 59.737 84.0667 60.1104 84.536C60.4837 84.9947 60.9904 85.224 61.6304 85.224C62.537 85.224 63.129 84.8187 63.4064 84.008H65.8224C65.577 84.968 65.0917 85.7307 64.3664 86.296C63.641 86.8613 62.7344 87.144 61.6464 87.144C60.793 87.144 60.0357 86.9573 59.3744 86.584C58.713 86.2 58.1957 85.6667 57.8224 84.984C57.449 84.2907 57.2624 83.4853 57.2624 82.568ZM70.0714 79.976V84.264C70.0714 84.5627 70.1407 84.7813 70.2794 84.92C70.4287 85.048 70.674 85.112 71.0154 85.112H72.0554V87H70.6474C68.7594 87 67.8154 86.0827 67.8154 84.248V79.976H66.7594V78.136H67.8154V75.944H70.0714V78.136H72.0554V79.976H70.0714ZM81.383 75.832C82.5563 75.832 83.5857 76.0613 84.471 76.52C85.367 76.9787 86.055 77.6347 86.535 78.488C87.0257 79.3307 87.271 80.312 87.271 81.432C87.271 82.552 87.0257 83.5333 86.535 84.376C86.055 85.208 85.367 85.8533 84.471 86.312C83.5857 86.7707 82.5563 87 81.383 87H77.479V75.832H81.383ZM81.303 85.096C82.4763 85.096 83.383 84.776 84.023 84.136C84.663 83.496 84.983 82.5947 84.983 81.432C84.983 80.2693 84.663 79.3627 84.023 78.712C83.383 78.0507 82.4763 77.72 81.303 77.72H79.719V85.096H81.303ZM97.1878 82.376C97.1878 82.696 97.1664 82.984 97.1238 83.24H90.6438C90.6971 83.88 90.9211 84.3813 91.3158 84.744C91.7104 85.1067 92.1958 85.288 92.7718 85.288C93.6038 85.288 94.1958 84.9307 94.5478 84.216H96.9638C96.7078 85.0693 96.2171 85.7733 95.4918 86.328C94.7664 86.872 93.8758 87.144 92.8198 87.144C91.9664 87.144 91.1984 86.9573 90.5158 86.584C89.8438 86.2 89.3158 85.6613 88.9318 84.968C88.5584 84.2747 88.3717 83.4747 88.3717 82.568C88.3717 81.6507 88.5584 80.8453 88.9318 80.152C89.3051 79.4587 89.8278 78.9253 90.4998 78.552C91.1718 78.1787 91.9451 77.992 92.8198 77.992C93.6624 77.992 94.4144 78.1733 95.0758 78.536C95.7478 78.8987 96.2651 79.416 96.6278 80.088C97.0011 80.7493 97.1878 81.512 97.1878 82.376ZM94.8678 81.736C94.8571 81.16 94.6491 80.7013 94.2438 80.36C93.8384 80.008 93.3424 79.832 92.7558 79.832C92.2011 79.832 91.7318 80.0027 91.3478 80.344C90.9744 80.6747 90.7451 81.1387 90.6598 81.736H94.8678ZM101.063 75.16V87H98.8228V75.16H101.063ZM104.412 77.08C104.017 77.08 103.687 76.9573 103.42 76.712C103.164 76.456 103.036 76.1413 103.036 75.768C103.036 75.3947 103.164 75.0853 103.42 74.84C103.687 74.584 104.017 74.456 104.412 74.456C104.807 74.456 105.132 74.584 105.388 74.84C105.655 75.0853 105.788 75.3947 105.788 75.768C105.788 76.1413 105.655 76.456 105.388 76.712C105.132 76.9573 104.807 77.08 104.412 77.08ZM105.516 78.136V87H103.276V78.136H105.516ZM111.425 84.936L113.665 78.136H116.049L112.769 87H110.049L106.785 78.136H109.185L111.425 84.936ZM125.547 82.376C125.547 82.696 125.526 82.984 125.483 83.24H119.003C119.056 83.88 119.28 84.3813 119.675 84.744C120.07 85.1067 120.555 85.288 121.131 85.288C121.963 85.288 122.555 84.9307 122.907 84.216H125.323C125.067 85.0693 124.576 85.7733 123.851 86.328C123.126 86.872 122.235 87.144 121.179 87.144C120.326 87.144 119.558 86.9573 118.875 86.584C118.203 86.2 117.675 85.6613 117.291 84.968C116.918 84.2747 116.731 83.4747 116.731 82.568C116.731 81.6507 116.918 80.8453 117.291 80.152C117.664 79.4587 118.187 78.9253 118.859 78.552C119.531 78.1787 120.304 77.992 121.179 77.992C122.022 77.992 122.774 78.1733 123.435 78.536C124.107 78.8987 124.624 79.416 124.987 80.088C125.36 80.7493 125.547 81.512 125.547 82.376ZM123.227 81.736C123.216 81.16 123.008 80.7013 122.603 80.36C122.198 80.008 121.702 79.832 121.115 79.832C120.56 79.832 120.091 80.0027 119.707 80.344C119.334 80.6747 119.104 81.1387 119.019 81.736H123.227ZM129.422 79.512C129.71 79.0427 130.083 78.6747 130.542 78.408C131.011 78.1413 131.545 78.008 132.142 78.008V80.36H131.55C130.846 80.36 130.313 80.5253 129.95 80.856C129.598 81.1867 129.422 81.7627 129.422 82.584V87H127.182V78.136H129.422V79.512ZM141.891 82.376C141.891 82.696 141.87 82.984 141.827 83.24H135.347C135.4 83.88 135.624 84.3813 136.019 84.744C136.414 85.1067 136.899 85.288 137.475 85.288C138.307 85.288 138.899 84.9307 139.251 84.216H141.667C141.411 85.0693 140.92 85.7733 140.195 86.328C139.47 86.872 138.579 87.144 137.523 87.144C136.67 87.144 135.902 86.9573 135.219 86.584C134.547 86.2 134.019 85.6613 133.635 84.968C133.262 84.2747 133.075 83.4747 133.075 82.568C133.075 81.6507 133.262 80.8453 133.635 80.152C134.008 79.4587 134.531 78.9253 135.203 78.552C135.875 78.1787 136.648 77.992 137.523 77.992C138.366 77.992 139.118 78.1733 139.779 78.536C140.451 78.8987 140.968 79.416 141.331 80.088C141.704 80.7493 141.891 81.512 141.891 82.376ZM139.571 81.736C139.56 81.16 139.352 80.7013 138.947 80.36C138.542 80.008 138.046 79.832 137.459 79.832C136.904 79.832 136.435 80.0027 136.051 80.344C135.678 80.6747 135.448 81.1387 135.363 81.736H139.571ZM142.95 82.536C142.95 81.64 143.126 80.8453 143.478 80.152C143.841 79.4587 144.331 78.9253 144.95 78.552C145.569 78.1787 146.257 77.992 147.014 77.992C147.59 77.992 148.139 78.12 148.662 78.376C149.185 78.6213 149.601 78.952 149.91 79.368V75.16H152.182V87H149.91V85.688C149.633 86.1253 149.243 86.4773 148.742 86.744C148.241 87.0107 147.659 87.144 146.998 87.144C146.251 87.144 145.569 86.952 144.95 86.568C144.331 86.184 143.841 85.6453 143.478 84.952C143.126 84.248 142.95 83.4427 142.95 82.536ZM149.926 82.568C149.926 82.024 149.819 81.56 149.606 81.176C149.393 80.7813 149.105 80.4827 148.742 80.28C148.379 80.0667 147.99 79.96 147.574 79.96C147.158 79.96 146.774 80.0613 146.422 80.264C146.07 80.4667 145.782 80.7653 145.558 81.16C145.345 81.544 145.238 82.0027 145.238 82.536C145.238 83.0693 145.345 83.5387 145.558 83.944C145.782 84.3387 146.07 84.6427 146.422 84.856C146.785 85.0693 147.169 85.176 147.574 85.176C147.99 85.176 148.379 85.0747 148.742 84.872C149.105 84.6587 149.393 84.36 149.606 83.976C149.819 83.5813 149.926 83.112 149.926 82.568Z" fill="#232536"/>
<rect x="16" y="59" width="71.9999" height="6.00003" fill="#444CFC"/>
<rect x="26.4023" y="59" width="61.5953" height="6.00003" fill="#FFA155"/>
<rect x="26.0503" y="59" width="44.6449" height="5.99069" fill="#FFD3AF"/>
<path d="M17.296 15.4V10.756H25.972V37H20.788V15.4H17.296ZM48.591 15.112H36.927V21.268C37.431 20.644 38.151 20.14 39.087 19.756C40.023 19.348 41.019 19.144 42.075 19.144C43.995 19.144 45.567 19.564 46.791 20.404C48.015 21.244 48.903 22.324 49.455 23.644C50.007 24.94 50.283 26.332 50.283 27.82C50.283 30.58 49.491 32.8 47.907 34.48C46.347 36.16 44.115 37 41.211 37C38.475 37 36.291 36.316 34.659 34.948C33.027 33.58 32.103 31.792 31.887 29.584H36.783C36.999 30.544 37.479 31.312 38.223 31.888C38.991 32.464 39.963 32.752 41.139 32.752C42.555 32.752 43.623 32.308 44.343 31.42C45.063 30.532 45.423 29.356 45.423 27.892C45.423 26.404 45.051 25.276 44.307 24.508C43.587 23.716 42.519 23.32 41.103 23.32C40.095 23.32 39.255 23.572 38.583 24.076C37.911 24.58 37.431 25.252 37.143 26.092H32.319V10.684H48.591V15.112ZM67.7269 17.308C67.4869 16.3 67.0669 15.544 66.4669 15.04C65.8909 14.536 65.0509 14.284 63.9469 14.284C62.2909 14.284 61.0669 14.956 60.2749 16.3C59.5069 17.62 59.1109 19.78 59.0869 22.78C59.6629 21.82 60.5029 21.076 61.6069 20.548C62.7109 19.996 63.9109 19.72 65.2069 19.72C66.7669 19.72 68.1469 20.056 69.3469 20.728C70.5469 21.4 71.4829 22.384 72.1549 23.68C72.8269 24.952 73.1629 26.488 73.1629 28.288C73.1629 29.992 72.8149 31.516 72.1189 32.86C71.4469 34.18 70.4509 35.212 69.1309 35.956C67.8109 36.7 66.2389 37.072 64.4149 37.072C61.9189 37.072 59.9509 36.52 58.5109 35.416C57.0949 34.312 56.0989 32.776 55.5229 30.808C54.9709 28.816 54.6949 26.368 54.6949 23.464C54.6949 19.072 55.4509 15.76 56.9629 13.528C58.4749 11.272 60.8629 10.144 64.1269 10.144C66.6469 10.144 68.6029 10.828 69.9949 12.196C71.3869 13.564 72.1909 15.268 72.4069 17.308H67.7269ZM64.0549 23.86C62.7829 23.86 61.7149 24.232 60.8509 24.976C59.9869 25.72 59.5549 26.8 59.5549 28.216C59.5549 29.632 59.9509 30.748 60.7429 31.564C61.5589 32.38 62.6989 32.788 64.1629 32.788C65.4589 32.788 66.4789 32.392 67.2229 31.6C67.9909 30.808 68.3749 29.74 68.3749 28.396C68.3749 27.004 68.0029 25.9 67.2589 25.084C66.5389 24.268 65.4709 23.86 64.0549 23.86ZM77.1463 23.536C77.1463 19.384 77.8903 16.132 79.3783 13.78C80.8903 11.428 83.3863 10.252 86.8663 10.252C90.3463 10.252 92.8303 11.428 94.3183 13.78C95.8303 16.132 96.5863 19.384 96.5863 23.536C96.5863 27.712 95.8303 30.988 94.3183 33.364C92.8303 35.74 90.3463 36.928 86.8663 36.928C83.3863 36.928 80.8903 35.74 79.3783 33.364C77.8903 30.988 77.1463 27.712 77.1463 23.536ZM91.6183 23.536C91.6183 21.76 91.4983 20.272 91.2583 19.072C91.0423 17.848 90.5863 16.852 89.8903 16.084C89.2183 15.316 88.2103 14.932 86.8663 14.932C85.5223 14.932 84.5023 15.316 83.8063 16.084C83.1343 16.852 82.6783 17.848 82.4383 19.072C82.2223 20.272 82.1143 21.76 82.1143 23.536C82.1143 25.36 82.2223 26.896 82.4383 28.144C82.6543 29.368 83.1103 30.364 83.8063 31.132C84.5023 31.876 85.5223 32.248 86.8663 32.248C88.2103 32.248 89.2303 31.876 89.9263 31.132C90.6223 30.364 91.0783 29.368 91.2943 28.144C91.5103 26.896 91.6183 25.36 91.6183 23.536ZM119.824 26.38H113.02V33.364H108.268V26.38H101.464V21.988H108.268V15.004H113.02V21.988H119.824V26.38Z" fill="#232536"/>
<path opacity="0.87" d="M225.248 79.288C225.248 79.8853 225.104 80.4453 224.816 80.968C224.539 81.4907 224.096 81.912 223.488 82.232C222.891 82.552 222.133 82.712 221.216 82.712H219.344V87H217.104V75.832H221.216C222.08 75.832 222.816 75.9813 223.424 76.28C224.032 76.5787 224.485 76.9893 224.784 77.512C225.093 78.0347 225.248 78.6267 225.248 79.288ZM221.12 80.904C221.739 80.904 222.197 80.7653 222.496 80.488C222.795 80.2 222.944 79.8 222.944 79.288C222.944 78.2 222.336 77.656 221.12 77.656H219.344V80.904H221.12ZM229.078 79.512C229.366 79.0427 229.74 78.6747 230.198 78.408C230.668 78.1413 231.201 78.008 231.798 78.008V80.36H231.206C230.502 80.36 229.969 80.5253 229.606 80.856C229.254 81.1867 229.078 81.7627 229.078 82.584V87H226.838V78.136H229.078V79.512ZM237.243 87.144C236.39 87.144 235.622 86.9573 234.939 86.584C234.256 86.2 233.718 85.6613 233.323 84.968C232.939 84.2747 232.747 83.4747 232.747 82.568C232.747 81.6613 232.944 80.8613 233.339 80.168C233.744 79.4747 234.294 78.9413 234.987 78.568C235.68 78.184 236.454 77.992 237.307 77.992C238.16 77.992 238.934 78.184 239.627 78.568C240.32 78.9413 240.864 79.4747 241.259 80.168C241.664 80.8613 241.867 81.6613 241.867 82.568C241.867 83.4747 241.659 84.2747 241.243 84.968C240.838 85.6613 240.283 86.2 239.579 86.584C238.886 86.9573 238.107 87.144 237.243 87.144ZM237.243 85.192C237.648 85.192 238.027 85.096 238.379 84.904C238.742 84.7013 239.03 84.4027 239.243 84.008C239.456 83.6133 239.563 83.1333 239.563 82.568C239.563 81.7253 239.339 81.08 238.891 80.632C238.454 80.1733 237.915 79.944 237.275 79.944C236.635 79.944 236.096 80.1733 235.659 80.632C235.232 81.08 235.019 81.7253 235.019 82.568C235.019 83.4107 235.227 84.0613 235.643 84.52C236.07 84.968 236.603 85.192 237.243 85.192ZM247.574 79.976H246.022V87H243.75V79.976H242.742V78.136H243.75V77.688C243.75 76.6 244.06 75.8 244.678 75.288C245.297 74.776 246.23 74.536 247.478 74.568V76.456C246.934 76.4453 246.556 76.536 246.342 76.728C246.129 76.92 246.022 77.2667 246.022 77.768V78.136H247.574V79.976ZM257.266 82.376C257.266 82.696 257.245 82.984 257.202 83.24H250.722C250.775 83.88 250.999 84.3813 251.394 84.744C251.789 85.1067 252.274 85.288 252.85 85.288C253.682 85.288 254.274 84.9307 254.626 84.216H257.042C256.786 85.0693 256.295 85.7733 255.57 86.328C254.845 86.872 253.954 87.144 252.898 87.144C252.045 87.144 251.277 86.9573 250.594 86.584C249.922 86.2 249.394 85.6613 249.01 84.968C248.637 84.2747 248.45 83.4747 248.45 82.568C248.45 81.6507 248.637 80.8453 249.01 80.152C249.383 79.4587 249.906 78.9253 250.578 78.552C251.25 78.1787 252.023 77.992 252.898 77.992C253.741 77.992 254.493 78.1733 255.154 78.536C255.826 78.8987 256.343 79.416 256.706 80.088C257.079 80.7493 257.266 81.512 257.266 82.376ZM254.946 81.736C254.935 81.16 254.727 80.7013 254.322 80.36C253.917 80.008 253.421 79.832 252.834 79.832C252.279 79.832 251.81 80.0027 251.426 80.344C251.053 80.6747 250.823 81.1387 250.738 81.736H254.946ZM262.293 87.144C261.568 87.144 260.917 87.016 260.341 86.76C259.765 86.4933 259.306 86.136 258.965 85.688C258.634 85.24 258.453 84.744 258.421 84.2H260.677C260.72 84.5413 260.885 84.824 261.173 85.048C261.472 85.272 261.84 85.384 262.277 85.384C262.704 85.384 263.034 85.2987 263.269 85.128C263.514 84.9573 263.637 84.7387 263.637 84.472C263.637 84.184 263.488 83.9707 263.189 83.832C262.901 83.6827 262.437 83.5227 261.797 83.352C261.136 83.192 260.592 83.0267 260.165 82.856C259.749 82.6853 259.386 82.424 259.077 82.072C258.778 81.72 258.629 81.2453 258.629 80.648C258.629 80.1573 258.768 79.7093 259.045 79.304C259.333 78.8987 259.738 78.5787 260.261 78.344C260.794 78.1093 261.418 77.992 262.133 77.992C263.189 77.992 264.032 78.2587 264.661 78.792C265.29 79.3147 265.637 80.024 265.701 80.92H263.557C263.525 80.568 263.376 80.2907 263.109 80.088C262.853 79.8747 262.506 79.768 262.069 79.768C261.664 79.768 261.349 79.8427 261.125 79.992C260.912 80.1413 260.805 80.3493 260.805 80.616C260.805 80.9147 260.954 81.144 261.253 81.304C261.552 81.4533 262.016 81.608 262.645 81.768C263.285 81.928 263.813 82.0933 264.229 82.264C264.645 82.4347 265.002 82.7013 265.301 83.064C265.61 83.416 265.77 83.8853 265.781 84.472C265.781 84.984 265.637 85.4427 265.349 85.848C265.072 86.2533 264.666 86.5733 264.133 86.808C263.61 87.032 262.997 87.144 262.293 87.144ZM271.012 87.144C270.286 87.144 269.636 87.016 269.06 86.76C268.484 86.4933 268.025 86.136 267.684 85.688C267.353 85.24 267.172 84.744 267.14 84.2H269.396C269.438 84.5413 269.604 84.824 269.892 85.048C270.19 85.272 270.558 85.384 270.996 85.384C271.422 85.384 271.753 85.2987 271.988 85.128C272.233 84.9573 272.356 84.7387 272.356 84.472C272.356 84.184 272.206 83.9707 271.908 83.832C271.62 83.6827 271.156 83.5227 270.516 83.352C269.854 83.192 269.31 83.0267 268.884 82.856C268.468 82.6853 268.105 82.424 267.796 82.072C267.497 81.72 267.348 81.2453 267.348 80.648C267.348 80.1573 267.486 79.7093 267.764 79.304C268.052 78.8987 268.457 78.5787 268.98 78.344C269.513 78.1093 270.137 77.992 270.852 77.992C271.908 77.992 272.75 78.2587 273.38 78.792C274.009 79.3147 274.356 80.024 274.42 80.92H272.276C272.244 80.568 272.094 80.2907 271.828 80.088C271.572 79.8747 271.225 79.768 270.788 79.768C270.382 79.768 270.068 79.8427 269.844 79.992C269.63 80.1413 269.524 80.3493 269.524 80.616C269.524 80.9147 269.673 81.144 269.972 81.304C270.27 81.4533 270.734 81.608 271.364 81.768C272.004 81.928 272.532 82.0933 272.948 82.264C273.364 82.4347 273.721 82.7013 274.02 83.064C274.329 83.416 274.489 83.8853 274.5 84.472C274.5 84.984 274.356 85.4427 274.068 85.848C273.79 86.2533 273.385 86.5733 272.852 86.808C272.329 87.032 271.716 87.144 271.012 87.144ZM277.474 77.08C277.08 77.08 276.749 76.9573 276.482 76.712C276.226 76.456 276.098 76.1413 276.098 75.768C276.098 75.3947 276.226 75.0853 276.482 74.84C276.749 74.584 277.08 74.456 277.474 74.456C277.869 74.456 278.194 74.584 278.45 74.84C278.717 75.0853 278.85 75.3947 278.85 75.768C278.85 76.1413 278.717 76.456 278.45 76.712C278.194 76.9573 277.869 77.08 277.474 77.08ZM278.578 78.136V87H276.338V78.136H278.578ZM284.728 87.144C283.874 87.144 283.106 86.9573 282.424 86.584C281.741 86.2 281.202 85.6613 280.808 84.968C280.424 84.2747 280.232 83.4747 280.232 82.568C280.232 81.6613 280.429 80.8613 280.824 80.168C281.229 79.4747 281.778 78.9413 282.472 78.568C283.165 78.184 283.938 77.992 284.792 77.992C285.645 77.992 286.418 78.184 287.112 78.568C287.805 78.9413 288.349 79.4747 288.744 80.168C289.149 80.8613 289.352 81.6613 289.352 82.568C289.352 83.4747 289.144 84.2747 288.727 84.968C288.322 85.6613 287.768 86.2 287.064 86.584C286.37 86.9573 285.592 87.144 284.728 87.144ZM284.728 85.192C285.133 85.192 285.512 85.096 285.864 84.904C286.226 84.7013 286.514 84.4027 286.728 84.008C286.941 83.6133 287.048 83.1333 287.048 82.568C287.048 81.7253 286.824 81.08 286.376 80.632C285.938 80.1733 285.4 79.944 284.76 79.944C284.12 79.944 283.581 80.1733 283.144 80.632C282.717 81.08 282.504 81.7253 282.504 82.568C282.504 83.4107 282.712 84.0613 283.128 84.52C283.554 84.968 284.088 85.192 284.728 85.192ZM295.907 78.008C296.963 78.008 297.816 78.344 298.467 79.016C299.117 79.6773 299.443 80.6053 299.443 81.8V87H297.203V82.104C297.203 81.4 297.027 80.8613 296.675 80.488C296.323 80.104 295.843 79.912 295.235 79.912C294.616 79.912 294.125 80.104 293.763 80.488C293.411 80.8613 293.235 81.4 293.235 82.104V87H290.995V78.136H293.235V79.24C293.533 78.856 293.912 78.5573 294.371 78.344C294.84 78.12 295.352 78.008 295.907 78.008ZM300.997 82.536C300.997 81.64 301.173 80.8453 301.525 80.152C301.887 79.4587 302.373 78.9253 302.981 78.552C303.599 78.1787 304.287 77.992 305.045 77.992C305.706 77.992 306.282 78.1253 306.773 78.392C307.274 78.6587 307.674 78.9947 307.973 79.4V78.136H310.229V87H307.973V85.704C307.685 86.12 307.285 86.4667 306.773 86.744C306.271 87.0107 305.69 87.144 305.029 87.144C304.282 87.144 303.599 86.952 302.981 86.568C302.373 86.184 301.887 85.6453 301.525 84.952C301.173 84.248 300.997 83.4427 300.997 82.536ZM307.973 82.568C307.973 82.024 307.866 81.56 307.653 81.176C307.439 80.7813 307.151 80.4827 306.789 80.28C306.426 80.0667 306.037 79.96 305.621 79.96C305.205 79.96 304.821 80.0613 304.469 80.264C304.117 80.4667 303.829 80.7653 303.605 81.16C303.391 81.544 303.285 82.0027 303.285 82.536C303.285 83.0693 303.391 83.5387 303.605 83.944C303.829 84.3387 304.117 84.6427 304.469 84.856C304.831 85.0693 305.215 85.176 305.621 85.176C306.037 85.176 306.426 85.0747 306.789 84.872C307.151 84.6587 307.439 84.36 307.653 83.976C307.866 83.5813 307.973 83.112 307.973 82.568ZM314.657 75.16V87H312.417V75.16H314.657Z" fill="#232536"/>
<rect x="216" y="59" width="71.9999" height="6.00003" fill="#444CFC"/>
<rect x="226.402" y="59" width="61.5953" height="6.00003" fill="#FFA155"/>
<rect x="226.05" y="59" width="44.6449" height="5.99069" fill="#FFD3AF"/>
<path d="M217.296 15.4V10.756H225.972V37H220.788V15.4H217.296ZM230.951 23.536C230.951 19.384 231.695 16.132 233.183 13.78C234.695 11.428 237.191 10.252 240.671 10.252C244.151 10.252 246.635 11.428 248.123 13.78C249.635 16.132 250.391 19.384 250.391 23.536C250.391 27.712 249.635 30.988 248.123 33.364C246.635 35.74 244.151 36.928 240.671 36.928C237.191 36.928 234.695 35.74 233.183 33.364C231.695 30.988 230.951 27.712 230.951 23.536ZM245.423 23.536C245.423 21.76 245.303 20.272 245.063 19.072C244.847 17.848 244.391 16.852 243.695 16.084C243.023 15.316 242.015 14.932 240.671 14.932C239.327 14.932 238.307 15.316 237.611 16.084C236.939 16.852 236.483 17.848 236.243 19.072C236.027 20.272 235.919 21.76 235.919 23.536C235.919 25.36 236.027 26.896 236.243 28.144C236.459 29.368 236.915 30.364 237.611 31.132C238.307 31.876 239.327 32.248 240.671 32.248C242.015 32.248 243.035 31.876 243.731 31.132C244.427 30.364 244.883 29.368 245.099 28.144C245.315 26.896 245.423 25.36 245.423 23.536ZM254.224 23.536C254.224 19.384 254.968 16.132 256.456 13.78C257.968 11.428 260.464 10.252 263.944 10.252C267.424 10.252 269.908 11.428 271.396 13.78C272.908 16.132 273.664 19.384 273.664 23.536C273.664 27.712 272.908 30.988 271.396 33.364C269.908 35.74 267.424 36.928 263.944 36.928C260.464 36.928 257.968 35.74 256.456 33.364C254.968 30.988 254.224 27.712 254.224 23.536ZM268.696 23.536C268.696 21.76 268.576 20.272 268.336 19.072C268.12 17.848 267.664 16.852 266.968 16.084C266.296 15.316 265.288 14.932 263.944 14.932C262.6 14.932 261.58 15.316 260.884 16.084C260.212 16.852 259.756 17.848 259.516 19.072C259.3 20.272 259.192 21.76 259.192 23.536C259.192 25.36 259.3 26.896 259.516 28.144C259.732 29.368 260.188 30.364 260.884 31.132C261.58 31.876 262.6 32.248 263.944 32.248C265.288 32.248 266.308 31.876 267.004 31.132C267.7 30.364 268.156 29.368 268.372 28.144C268.588 26.896 268.696 25.36 268.696 23.536ZM296.902 26.38H290.098V33.364H285.346V26.38H278.542V21.988H285.346V15.004H290.098V21.988H296.902V26.38Z" fill="#232536"/>
<path opacity="0.87" d="M26.368 203.832V215H24.128V210.248H19.344V215H17.104V203.832H19.344V208.424H24.128V203.832H26.368ZM27.9967 210.536C27.9967 209.64 28.1727 208.845 28.5247 208.152C28.8874 207.459 29.3728 206.925 29.9808 206.552C30.5994 206.179 31.2874 205.992 32.0448 205.992C32.7061 205.992 33.2821 206.125 33.7728 206.392C34.2741 206.659 34.6741 206.995 34.9728 207.4V206.136H37.2288V215H34.9728V213.704C34.6848 214.12 34.2848 214.467 33.7728 214.744C33.2714 215.011 32.6901 215.144 32.0288 215.144C31.2821 215.144 30.5994 214.952 29.9808 214.568C29.3728 214.184 28.8874 213.645 28.5247 212.952C28.1727 212.248 27.9967 211.443 27.9967 210.536ZM34.9728 210.568C34.9728 210.024 34.8661 209.56 34.6528 209.176C34.4394 208.781 34.1514 208.483 33.7888 208.28C33.4261 208.067 33.0368 207.96 32.6208 207.96C32.2048 207.96 31.8208 208.061 31.4688 208.264C31.1168 208.467 30.8288 208.765 30.6048 209.16C30.3914 209.544 30.2848 210.003 30.2848 210.536C30.2848 211.069 30.3914 211.539 30.6048 211.944C30.8288 212.339 31.1168 212.643 31.4688 212.856C31.8314 213.069 32.2154 213.176 32.6208 213.176C33.0368 213.176 33.4261 213.075 33.7888 212.872C34.1514 212.659 34.4394 212.36 34.6528 211.976C34.8661 211.581 34.9728 211.112 34.9728 210.568ZM41.6565 207.416C41.9445 207.011 42.3392 206.675 42.8405 206.408C43.3525 206.131 43.9338 205.992 44.5845 205.992C45.3418 205.992 46.0245 206.179 46.6325 206.552C47.2512 206.925 47.7365 207.459 48.0885 208.152C48.4512 208.835 48.6325 209.629 48.6325 210.536C48.6325 211.443 48.4512 212.248 48.0885 212.952C47.7365 213.645 47.2512 214.184 46.6325 214.568C46.0245 214.952 45.3418 215.144 44.5845 215.144C43.9338 215.144 43.3578 215.011 42.8565 214.744C42.3658 214.477 41.9658 214.141 41.6565 213.736V219.224H39.4165V206.136H41.6565V207.416ZM46.3445 210.536C46.3445 210.003 46.2325 209.544 46.0085 209.16C45.7952 208.765 45.5072 208.467 45.1445 208.264C44.7925 208.061 44.4085 207.96 43.9925 207.96C43.5872 207.96 43.2032 208.067 42.8405 208.28C42.4885 208.483 42.2005 208.781 41.9765 209.176C41.7632 209.571 41.6565 210.035 41.6565 210.568C41.6565 211.101 41.7632 211.565 41.9765 211.96C42.2005 212.355 42.4885 212.659 42.8405 212.872C43.2032 213.075 43.5872 213.176 43.9925 213.176C44.4085 213.176 44.7925 213.069 45.1445 212.856C45.5072 212.643 45.7952 212.339 46.0085 211.944C46.2325 211.549 46.3445 211.08 46.3445 210.536ZM52.5003 207.416C52.7883 207.011 53.1829 206.675 53.6843 206.408C54.1963 206.131 54.7776 205.992 55.4283 205.992C56.1856 205.992 56.8683 206.179 57.4763 206.552C58.0949 206.925 58.5803 207.459 58.9323 208.152C59.2949 208.835 59.4763 209.629 59.4763 210.536C59.4763 211.443 59.2949 212.248 58.9323 212.952C58.5803 213.645 58.0949 214.184 57.4763 214.568C56.8683 214.952 56.1856 215.144 55.4283 215.144C54.7776 215.144 54.2016 215.011 53.7003 214.744C53.2096 214.477 52.8096 214.141 52.5003 213.736V219.224H50.2603V206.136H52.5003V207.416ZM57.1883 210.536C57.1883 210.003 57.0763 209.544 56.8523 209.16C56.6389 208.765 56.3509 208.467 55.9883 208.264C55.6363 208.061 55.2523 207.96 54.8363 207.96C54.4309 207.96 54.0469 208.067 53.6843 208.28C53.3323 208.483 53.0443 208.781 52.8203 209.176C52.6069 209.571 52.5003 210.035 52.5003 210.568C52.5003 211.101 52.6069 211.565 52.8203 211.96C53.0443 212.355 53.3323 212.659 53.6843 212.872C54.0469 213.075 54.4309 213.176 54.8363 213.176C55.2523 213.176 55.6363 213.069 55.9883 212.856C56.3509 212.643 56.6389 212.339 56.8523 211.944C57.0763 211.549 57.1883 211.08 57.1883 210.536ZM69.584 206.136L64.096 219.192H61.712L63.632 214.776L60.08 206.136H62.592L64.88 212.328L67.2 206.136H69.584ZM74.06 209.4C74.06 208.301 74.3053 207.32 74.796 206.456C75.2973 205.581 75.9747 204.904 76.828 204.424C77.692 203.933 78.6573 203.688 79.724 203.688C80.972 203.688 82.0653 204.008 83.004 204.648C83.9427 205.288 84.5987 206.173 84.972 207.304H82.396C82.14 206.771 81.7773 206.371 81.308 206.104C80.8493 205.837 80.316 205.704 79.708 205.704C79.0573 205.704 78.476 205.859 77.964 206.168C77.4627 206.467 77.068 206.893 76.78 207.448C76.5027 208.003 76.364 208.653 76.364 209.4C76.364 210.136 76.5027 210.787 76.78 211.352C77.068 211.907 77.4627 212.339 77.964 212.648C78.476 212.947 79.0573 213.096 79.708 213.096C80.316 213.096 80.8493 212.963 81.308 212.696C81.7773 212.419 82.14 212.013 82.396 211.48H84.972C84.5987 212.621 83.9427 213.512 83.004 214.152C82.076 214.781 80.9827 215.096 79.724 215.096C78.6573 215.096 77.692 214.856 76.828 214.376C75.9747 213.885 75.2973 213.208 74.796 212.344C74.3053 211.48 74.06 210.499 74.06 209.4ZM89.1253 203.16V215H86.8853V203.16H89.1253ZM92.4744 205.08C92.0797 205.08 91.749 204.957 91.4824 204.712C91.2264 204.456 91.0984 204.141 91.0984 203.768C91.0984 203.395 91.2264 203.085 91.4824 202.84C91.749 202.584 92.0797 202.456 92.4744 202.456C92.869 202.456 93.1944 202.584 93.4504 202.84C93.717 203.085 93.8504 203.395 93.8504 203.768C93.8504 204.141 93.717 204.456 93.4504 204.712C93.1944 204.957 92.869 205.08 92.4744 205.08ZM93.5784 206.136V215H91.3384V206.136H93.5784ZM104.032 210.376C104.032 210.696 104.01 210.984 103.968 211.24H97.4875C97.5408 211.88 97.7648 212.381 98.1595 212.744C98.5542 213.107 99.0395 213.288 99.6155 213.288C100.448 213.288 101.04 212.931 101.392 212.216H103.808C103.552 213.069 103.061 213.773 102.336 214.328C101.61 214.872 100.72 215.144 99.6635 215.144C98.8102 215.144 98.0422 214.957 97.3595 214.584C96.6875 214.2 96.1595 213.661 95.7755 212.968C95.4022 212.275 95.2155 211.475 95.2155 210.568C95.2155 209.651 95.4022 208.845 95.7755 208.152C96.1488 207.459 96.6715 206.925 97.3435 206.552C98.0155 206.179 98.7888 205.992 99.6635 205.992C100.506 205.992 101.258 206.173 101.92 206.536C102.592 206.899 103.109 207.416 103.472 208.088C103.845 208.749 104.032 209.512 104.032 210.376ZM101.712 209.736C101.701 209.16 101.493 208.701 101.088 208.36C100.682 208.008 100.186 207.832 99.5995 207.832C99.0448 207.832 98.5755 208.003 98.1915 208.344C97.8182 208.675 97.5888 209.139 97.5035 209.736H101.712ZM110.579 206.008C111.635 206.008 112.488 206.344 113.139 207.016C113.789 207.677 114.115 208.605 114.115 209.8V215H111.875V210.104C111.875 209.4 111.699 208.861 111.347 208.488C110.995 208.104 110.515 207.912 109.907 207.912C109.288 207.912 108.797 208.104 108.435 208.488C108.083 208.861 107.907 209.4 107.907 210.104V215H105.667V206.136H107.907V207.24C108.205 206.856 108.584 206.557 109.043 206.344C109.512 206.12 110.024 206.008 110.579 206.008ZM118.853 207.976V212.264C118.853 212.563 118.922 212.781 119.061 212.92C119.21 213.048 119.455 213.112 119.797 213.112H120.837V215H119.429C117.541 215 116.597 214.083 116.597 212.248V207.976H115.541V206.136H116.597V203.944H118.853V206.136H120.837V207.976H118.853Z" fill="#232536"/>
<rect x="16" y="187" width="71.9999" height="6.00003" fill="#444CFC"/>
<rect x="26.4023" y="187" width="61.5953" height="6.00003" fill="#FFA155"/>
<rect x="26.0503" y="187" width="44.6449" height="5.99069" fill="#FFD3AF"/>
<path d="M23.74 157.62C23.932 158.676 24.364 159.492 25.036 160.068C25.732 160.62 26.656 160.896 27.808 160.896C29.296 160.896 30.376 160.284 31.048 159.06C31.72 157.812 32.056 155.724 32.056 152.796C31.504 153.564 30.724 154.164 29.716 154.596C28.732 155.028 27.664 155.244 26.512 155.244C24.976 155.244 23.584 154.932 22.336 154.308C21.112 153.66 20.14 152.712 19.42 151.464C18.7 150.192 18.34 148.656 18.34 146.856C18.34 144.192 19.132 142.08 20.716 140.52C22.3 138.936 24.46 138.144 27.196 138.144C30.604 138.144 33.004 139.236 34.396 141.42C35.812 143.604 36.52 146.892 36.52 151.284C36.52 154.404 36.244 156.96 35.692 158.952C35.164 160.944 34.24 162.456 32.92 163.488C31.624 164.52 29.848 165.036 27.592 165.036C25.816 165.036 24.304 164.7 23.056 164.028C21.808 163.332 20.848 162.432 20.176 161.328C19.528 160.2 19.156 158.964 19.06 157.62H23.74ZM27.556 151.14C28.804 151.14 29.788 150.756 30.508 149.988C31.228 149.22 31.588 148.188 31.588 146.892C31.588 145.476 31.204 144.384 30.436 143.616C29.692 142.824 28.672 142.428 27.376 142.428C26.08 142.428 25.048 142.836 24.28 143.652C23.536 144.444 23.164 145.5 23.164 146.82C23.164 148.092 23.524 149.136 24.244 149.952C24.988 150.744 26.092 151.14 27.556 151.14ZM58.0832 143.112H46.4192V149.268C46.9232 148.644 47.6432 148.14 48.5792 147.756C49.5152 147.348 50.5112 147.144 51.5672 147.144C53.4872 147.144 55.0592 147.564 56.2832 148.404C57.5072 149.244 58.3952 150.324 58.9472 151.644C59.4992 152.94 59.7752 154.332 59.7752 155.82C59.7752 158.58 58.9832 160.8 57.3992 162.48C55.8392 164.16 53.6072 165 50.7032 165C47.9672 165 45.7832 164.316 44.1512 162.948C42.5192 161.58 41.5952 159.792 41.3792 157.584H46.2752C46.4912 158.544 46.9712 159.312 47.7152 159.888C48.4832 160.464 49.4552 160.752 50.6312 160.752C52.0472 160.752 53.1152 160.308 53.8352 159.42C54.5552 158.532 54.9152 157.356 54.9152 155.892C54.9152 154.404 54.5432 153.276 53.7992 152.508C53.0792 151.716 52.0112 151.32 50.5952 151.32C49.5872 151.32 48.7472 151.572 48.0752 152.076C47.4032 152.58 46.9232 153.252 46.6352 154.092H41.8112V138.684H58.0832V143.112ZM63.6111 151.536C63.6111 147.384 64.3551 144.132 65.8431 141.78C67.3551 139.428 69.8511 138.252 73.3311 138.252C76.8111 138.252 79.2951 139.428 80.7831 141.78C82.2951 144.132 83.0511 147.384 83.0511 151.536C83.0511 155.712 82.2951 158.988 80.7831 161.364C79.2951 163.74 76.8111 164.928 73.3311 164.928C69.8511 164.928 67.3551 163.74 65.8431 161.364C64.3551 158.988 63.6111 155.712 63.6111 151.536ZM78.0831 151.536C78.0831 149.76 77.9631 148.272 77.7231 147.072C77.5071 145.848 77.0511 144.852 76.3551 144.084C75.6831 143.316 74.6751 142.932 73.3311 142.932C71.9871 142.932 70.9671 143.316 70.2711 144.084C69.5991 144.852 69.1431 145.848 68.9031 147.072C68.6871 148.272 68.5791 149.76 68.5791 151.536C68.5791 153.36 68.6871 154.896 68.9031 156.144C69.1191 157.368 69.5751 158.364 70.2711 159.132C70.9671 159.876 71.9871 160.248 73.3311 160.248C74.6751 160.248 75.6951 159.876 76.3911 159.132C77.0871 158.364 77.5431 157.368 77.7591 156.144C77.9751 154.896 78.0831 153.36 78.0831 151.536ZM106.289 154.38H99.4846V161.364H94.7326V154.38H87.9286V149.988H94.7326V143.004H99.4846V149.988H106.289V154.38Z" fill="#232536"/>
</g>
<defs>
<clipPath id="clip0_18002_434">
<rect width="337" height="232" fill="white"/>
</clipPath>
</defs>
</svg>
