<svg width="1280" height="106" viewBox="0 0 1280 106" fill="none" xmlns="http://www.w3.org/2000/svg">
<rect width="1280" height="106" fill="#FAFAFC"/>
<path d="M839.019 60.6856C838.396 60.7191 837.781 60.5432 837.271 60.1864C837.058 60.0295 836.887 59.8235 836.772 59.5861C836.658 59.3488 836.603 59.0872 836.612 58.824V49.1832C836.607 49.1424 836.611 49.1009 836.625 49.062C836.638 49.0231 836.661 48.9878 836.69 48.9587C836.719 48.9296 836.755 48.9076 836.794 48.8942C836.833 48.8808 836.875 48.8765 836.916 48.8816H838.673C838.872 48.8816 838.966 48.9856 838.966 49.1832V58.0752C838.966 58.4704 839.144 58.668 839.51 58.668C839.665 58.6743 839.821 58.6568 839.971 58.616C840.18 58.616 840.295 58.6784 840.305 58.8656L840.462 60.1656C840.47 60.2035 840.469 60.2425 840.46 60.2801C840.451 60.3177 840.434 60.353 840.411 60.3836C840.387 60.4141 840.357 60.4392 840.322 60.4572C840.288 60.4753 840.25 60.4857 840.211 60.488C839.826 60.6144 839.424 60.681 839.019 60.6856Z" fill="#232536"/>
<path d="M848.905 59.5728C848.022 60.2982 846.912 60.695 845.767 60.695C844.621 60.695 843.511 60.2982 842.628 59.5728C841.852 58.7938 841.416 57.7417 841.416 56.6452C841.416 55.5487 841.852 54.4966 842.628 53.7176C843.513 52.996 844.622 52.6016 845.767 52.6016C846.911 52.6016 848.021 52.996 848.905 53.7176C849.664 54.5037 850.087 55.5508 850.087 56.64C850.087 57.7292 849.664 58.7762 848.905 59.5624V59.5728ZM844.281 58.2C844.691 58.569 845.224 58.7734 845.777 58.7734C846.33 58.7734 846.863 58.569 847.273 58.2C847.644 57.776 847.849 57.2331 847.849 56.6712C847.849 56.1093 847.644 55.5664 847.273 55.1424C846.863 54.7733 846.33 54.5689 845.777 54.5689C845.224 54.5689 844.691 54.7733 844.281 55.1424C843.91 55.5664 843.706 56.1093 843.706 56.6712C843.706 57.2331 843.91 57.776 844.281 58.2Z" fill="#232536"/>
<path d="M859.766 52.8647C859.964 52.8647 860.058 52.9687 860.058 53.1663V60.6231C860.077 61.1264 859.982 61.6274 859.781 62.0897C859.58 62.5521 859.278 62.9641 858.897 63.2959C858.051 64.0129 856.963 64.3846 855.853 64.3359C854.849 64.371 853.86 64.0987 853.017 63.5559C852.658 63.3211 852.35 63.0153 852.115 62.6575C851.879 62.2997 851.72 61.8975 851.647 61.4759C851.647 61.2679 851.647 61.1743 851.929 61.1743H853.687C853.762 61.1768 853.834 61.2008 853.895 61.2432C853.956 61.2856 854.004 61.3448 854.032 61.4135C854.146 61.7294 854.373 61.9923 854.67 62.1519C855.032 62.3375 855.435 62.4305 855.842 62.4223C856.088 62.4357 856.334 62.4003 856.565 62.3181C856.797 62.236 857.01 62.1088 857.192 61.9439C857.358 61.7714 857.487 61.5673 857.571 61.3439C857.656 61.1205 857.694 60.8824 857.684 60.6439V59.9887C857.054 60.4488 856.288 60.6868 855.507 60.6647C854.961 60.6845 854.416 60.5942 853.905 60.3994C853.395 60.2046 852.929 59.9093 852.536 59.5311C851.782 58.7554 851.36 57.7188 851.36 56.6399C851.36 55.5611 851.782 54.5244 852.536 53.7487C852.931 53.3739 853.397 53.0814 853.907 52.8885C854.418 52.6956 854.962 52.6062 855.507 52.6255C856.311 52.6044 857.097 52.8577 857.736 53.3431V53.1767C857.731 53.1369 857.735 53.0964 857.748 53.0584C857.761 53.0203 857.782 52.9856 857.81 52.9567C857.838 52.9279 857.872 52.9056 857.91 52.8914C857.948 52.8773 857.989 52.8717 858.029 52.8751L859.766 52.8647ZM855.706 58.8135C855.976 58.8218 856.244 58.7711 856.491 58.6651C856.739 58.5591 856.96 58.4003 857.139 58.1999C857.487 57.7534 857.676 57.2047 857.676 56.6399C857.676 56.0752 857.487 55.5264 857.139 55.0799C856.961 54.8822 856.741 54.7258 856.495 54.6216C856.249 54.5174 855.984 54.4679 855.717 54.4767C855.444 54.4682 855.173 54.5186 854.922 54.6246C854.671 54.7305 854.446 54.8894 854.262 55.0903C853.877 55.5174 853.674 56.077 853.697 56.6503C853.678 57.2179 853.877 57.7716 854.252 58.1999C854.436 58.4002 854.661 58.5588 854.912 58.6647C855.163 58.7706 855.434 58.8213 855.706 58.8135Z" fill="#232536"/>
<path d="M869.087 59.5728C868.202 60.2944 867.093 60.6888 865.949 60.6888C864.804 60.6888 863.695 60.2944 862.81 59.5728C862.051 58.7849 861.627 57.7361 861.627 56.6452C861.627 55.5543 862.051 54.5055 862.81 53.7176C863.696 52.9978 864.805 52.6046 865.949 52.6046C867.093 52.6046 868.202 52.9978 869.087 53.7176C869.846 54.5038 870.269 55.5508 870.269 56.64C870.269 57.7292 869.846 58.7762 869.087 59.5624V59.5728ZM864.453 58.2C864.653 58.3897 864.89 58.5379 865.148 58.6361C865.407 58.7343 865.682 58.7805 865.959 58.772C866.234 58.7791 866.508 58.7322 866.764 58.6341C867.021 58.5359 867.256 58.3884 867.455 58.2C867.82 57.7732 868.02 57.2313 868.02 56.6712C868.02 56.1111 867.82 55.5692 867.455 55.1424C867.256 54.954 867.021 54.8065 866.764 54.7083C866.508 54.6102 866.234 54.5633 865.959 54.5704C865.682 54.5619 865.407 54.6081 865.148 54.7063C864.89 54.8045 864.653 54.9527 864.453 55.1424C864.088 55.5692 863.887 56.1111 863.887 56.6712C863.887 57.2313 864.088 57.7732 864.453 58.2Z" fill="#232536"/>
<path d="M874.047 51.0968C873.77 51.3374 873.415 51.4701 873.047 51.4701C872.68 51.4701 872.325 51.3374 872.048 51.0968C871.923 50.9792 871.823 50.8373 871.755 50.6799C871.686 50.5226 871.651 50.353 871.651 50.1816C871.651 50.0102 871.686 49.8406 871.755 49.6833C871.823 49.5259 871.923 49.384 872.048 49.2664C872.328 49.0318 872.682 48.9031 873.047 48.9031C873.413 48.9031 873.767 49.0318 874.047 49.2664C874.172 49.384 874.272 49.5259 874.34 49.6833C874.408 49.8406 874.444 50.0102 874.444 50.1816C874.444 50.353 874.408 50.5226 874.34 50.6799C874.272 50.8373 874.172 50.9792 874.047 51.0968ZM874.266 60.6856C873.644 60.7159 873.03 60.5403 872.519 60.1864C872.309 60.0272 872.141 59.8205 872.028 59.5835C871.915 59.3465 871.861 59.0861 871.87 58.824V53.1664C871.865 53.1256 871.87 53.0841 871.883 53.0453C871.896 53.0064 871.919 52.971 871.948 52.9419C871.977 52.9129 872.013 52.8908 872.052 52.8774C872.091 52.8641 872.133 52.8597 872.174 52.8648H873.931C874.13 52.8648 874.224 52.9688 874.224 53.1664V58.0752C874.224 58.4704 874.402 58.668 874.758 58.668C874.917 58.6737 875.075 58.6561 875.229 58.616C875.438 58.616 875.553 58.6784 875.564 58.8656L875.72 60.1656C875.728 60.2035 875.727 60.2426 875.718 60.2802C875.709 60.3178 875.693 60.353 875.669 60.3836C875.645 60.4141 875.615 60.4393 875.58 60.4573C875.546 60.4753 875.508 60.4858 875.469 60.488C875.081 60.6151 874.675 60.6818 874.266 60.6856Z" fill="#232536"/>
<path d="M882.186 52.6152C882.735 52.5936 883.283 52.6819 883.797 52.8749C884.311 53.0678 884.781 53.3614 885.179 53.7384C885.919 54.5276 886.33 55.5664 886.33 56.6452C886.33 57.724 885.919 58.7627 885.179 59.552C884.783 59.9322 884.314 60.2287 883.799 60.4236C883.285 60.6184 882.736 60.7076 882.186 60.6856C881.403 60.7029 880.635 60.4655 880 60.0096V63.764C880 63.9616 879.895 64.0552 879.696 64.0552H877.939C877.899 64.0626 877.857 64.0602 877.818 64.0482C877.779 64.0362 877.744 64.015 877.715 63.9863C877.686 63.9576 877.665 63.9224 877.653 63.8836C877.641 63.8449 877.638 63.8038 877.646 63.764V55.236C877.658 55.1525 877.651 55.0674 877.624 54.9874C877.597 54.9074 877.552 54.8346 877.492 54.775C877.432 54.7154 877.359 54.6706 877.279 54.6441C877.198 54.6175 877.112 54.6101 877.029 54.6224H876.683C876.453 54.6224 876.338 54.5392 876.338 54.3728V53.1456C876.333 53.0696 876.353 52.9941 876.397 52.9317C876.441 52.8692 876.505 52.8236 876.579 52.8024C876.941 52.6716 877.324 52.6081 877.709 52.6152C878.093 52.5814 878.478 52.6623 878.815 52.8476C879.153 53.0329 879.427 53.3141 879.602 53.6552C879.939 53.3163 880.342 53.0493 880.787 52.8705C881.231 52.6917 881.707 52.6048 882.186 52.6152ZM880.554 58.2C880.741 58.3938 880.965 58.548 881.213 58.6534C881.461 58.7587 881.728 58.813 881.998 58.813C882.268 58.813 882.535 58.7587 882.783 58.6534C883.031 58.548 883.255 58.3938 883.442 58.2C883.835 57.7643 884.041 57.1934 884.017 56.6088C884.045 56.0236 883.838 55.4515 883.442 55.0176C883.255 54.8238 883.031 54.6695 882.783 54.5642C882.535 54.4588 882.268 54.4045 881.998 54.4045C881.728 54.4045 881.461 54.4588 881.213 54.5642C880.965 54.6695 880.741 54.8238 880.554 55.0176C880.174 55.4591 879.976 56.0277 880 56.6088C879.979 57.1893 880.176 57.7568 880.554 58.2Z" fill="#232536"/>
<path d="M891.268 60.6855C890.328 60.7239 889.397 60.5005 888.579 60.0407C888.251 59.8441 887.971 59.5766 887.761 59.2579C887.551 58.9392 887.416 58.5776 887.365 58.1999C887.365 57.9919 887.438 57.8879 887.669 57.8879H889.207C889.28 57.8907 889.351 57.9136 889.412 57.954C889.473 57.9943 889.521 58.0507 889.552 58.1167C889.772 58.6783 890.347 58.9591 891.268 58.9591C891.589 58.9737 891.909 58.9094 892.199 58.7719C892.299 58.7269 892.385 58.6558 892.448 58.566C892.51 58.4763 892.547 58.3713 892.555 58.2623C892.555 57.9919 892.387 57.8047 892.052 57.6799C891.655 57.5485 891.245 57.4613 890.828 57.4199C890.335 57.3644 889.846 57.2775 889.364 57.1599C888.895 57.0544 888.468 56.8117 888.139 56.4631C887.946 56.2262 887.803 55.9521 887.721 55.6581C887.638 55.3641 887.617 55.0563 887.659 54.7539C887.702 54.4515 887.806 54.161 887.966 53.9004C888.126 53.6398 888.338 53.4147 888.589 53.2391C889.343 52.7616 890.228 52.529 891.121 52.5735C891.986 52.5444 892.841 52.757 893.59 53.1871C893.892 53.3571 894.152 53.5918 894.351 53.8743C894.55 54.1568 894.684 54.4798 894.741 54.8199C894.741 55.0279 894.647 55.1319 894.459 55.1319H892.91C892.845 55.1357 892.78 55.1199 892.724 55.0865C892.668 55.0531 892.624 55.0037 892.596 54.9447C892.493 54.6984 892.298 54.501 892.052 54.3935C891.775 54.2493 891.465 54.1777 891.153 54.1855C890.846 54.1689 890.54 54.2297 890.263 54.3623C890.166 54.3997 890.082 54.4652 890.022 54.5505C889.962 54.6358 889.93 54.7368 889.929 54.8407C889.935 54.9829 889.988 55.1193 890.078 55.2297C890.168 55.3401 890.292 55.4189 890.431 55.4543C890.832 55.6048 891.25 55.7095 891.676 55.7663C892.165 55.8303 892.651 55.9206 893.13 56.0367C893.599 56.1422 894.025 56.3849 894.354 56.7335C894.53 56.9255 894.666 57.1503 894.754 57.3949C894.842 57.6394 894.88 57.8989 894.867 58.1583C894.876 58.5178 894.791 58.8735 894.62 59.1907C894.45 59.5078 894.199 59.7756 893.894 59.9679C893.112 60.4667 892.196 60.717 891.268 60.6855Z" fill="#232536"/>
<path d="M905.926 60.1655C905.931 60.2025 905.93 60.2402 905.921 60.2765C905.912 60.3129 905.896 60.347 905.873 60.3771C905.851 60.4071 905.823 60.4324 905.79 60.4514C905.758 60.4705 905.722 60.4829 905.685 60.488C905.303 60.6119 904.904 60.6785 904.503 60.6855C904.105 60.7265 903.704 60.6647 903.337 60.5062C902.97 60.3477 902.651 60.0978 902.41 59.7808C901.671 60.4123 900.716 60.7364 899.742 60.6855C899.29 60.7062 898.839 60.6327 898.417 60.4697C897.996 60.3068 897.613 60.0579 897.294 59.7391C896.977 59.4052 896.731 59.011 896.571 58.5803C896.411 58.1497 896.34 57.6913 896.363 57.2327V53.1663C896.363 52.9687 896.457 52.8647 896.656 52.8647H898.414C898.612 52.8647 898.707 52.9687 898.707 53.1663V56.9207C898.687 57.3885 898.848 57.8459 899.156 58.1999C899.31 58.3621 899.497 58.4897 899.705 58.574C899.912 58.6583 900.136 58.6974 900.36 58.6888C900.589 58.6987 900.818 58.6634 901.033 58.5849C901.249 58.5063 901.447 58.3861 901.615 58.2311C901.774 58.0678 901.899 57.8737 901.98 57.6609C902.06 57.448 902.097 57.2209 902.086 56.9935V53.1663C902.086 52.9687 902.18 52.8647 902.379 52.8647H904.157C904.356 52.8647 904.45 52.9687 904.45 53.1663V58.0647C904.45 58.4703 904.628 58.668 904.973 58.668C905.136 58.6742 905.298 58.6567 905.455 58.616C905.494 58.6049 905.536 58.6029 905.576 58.6102C905.617 58.6174 905.655 58.6336 905.688 58.6576C905.721 58.6816 905.749 58.7128 905.768 58.7488C905.787 58.7848 905.798 58.8247 905.8 58.8655L905.926 60.1655Z" fill="#232536"/>
<path d="M922.55 60.1657C922.56 60.2029 922.56 60.2417 922.553 60.2794C922.545 60.317 922.529 60.3525 922.506 60.3833C922.483 60.4141 922.454 60.4395 922.42 60.4576C922.386 60.4757 922.348 60.4861 922.31 60.4881C921.921 60.6138 921.515 60.6804 921.106 60.6857C920.484 60.7176 919.869 60.5419 919.359 60.1865C919.139 60.0342 918.959 59.8302 918.837 59.5926C918.715 59.3549 918.653 59.0909 918.658 58.8241V56.3801C918.68 55.9137 918.523 55.4564 918.219 55.1009C918.072 54.9383 917.891 54.8102 917.688 54.7256C917.485 54.6411 917.267 54.6023 917.047 54.6121C916.849 54.6046 916.652 54.642 916.471 54.7212C916.29 54.8005 916.129 54.9196 916.001 55.0697C915.725 55.4182 915.583 55.8537 915.603 56.2969V60.1345C915.603 60.3321 915.509 60.4361 915.31 60.4361H913.542C913.501 60.4411 913.459 60.4368 913.42 60.4234C913.381 60.4101 913.346 60.388 913.316 60.3589C913.287 60.3298 913.265 60.2945 913.251 60.2556C913.238 60.2167 913.234 60.1753 913.239 60.1345V56.3801C913.262 55.9188 913.117 55.4648 912.831 55.1009C912.703 54.948 912.543 54.825 912.362 54.7405C912.182 54.656 911.984 54.6121 911.784 54.6121C911.571 54.6035 911.358 54.6398 911.16 54.7187C910.961 54.7975 910.782 54.9171 910.634 55.0697C910.334 55.407 910.18 55.8477 910.205 56.2969V60.1345C910.21 60.1753 910.205 60.2167 910.192 60.2556C910.178 60.2945 910.156 60.3298 910.127 60.3589C910.098 60.388 910.062 60.4101 910.023 60.4234C909.984 60.4368 909.942 60.4411 909.901 60.4361H908.196C907.997 60.4361 907.903 60.3321 907.903 60.1345V55.2361C907.915 55.1526 907.908 55.0675 907.881 54.9875C907.854 54.9075 907.809 54.8347 907.749 54.7751C907.689 54.7155 907.616 54.6707 907.536 54.6442C907.455 54.6176 907.37 54.6102 907.286 54.6225H906.94C906.71 54.6225 906.595 54.5393 906.595 54.3729V53.1457C906.59 53.0697 906.611 52.9942 906.654 52.9318C906.698 52.8693 906.762 52.8237 906.836 52.8025C907.198 52.6717 907.581 52.6082 907.966 52.6153C908.335 52.584 908.706 52.6572 909.036 52.8265C909.365 52.9958 909.64 53.2543 909.828 53.5721C910.181 53.2395 910.599 52.9829 911.056 52.8183C911.514 52.6536 912 52.5845 912.485 52.6153C912.957 52.5924 913.427 52.6803 913.858 52.8718C914.289 53.0634 914.668 53.3531 914.965 53.7177C915.311 53.3436 915.737 53.0506 916.211 52.86C916.685 52.6693 917.196 52.5858 917.706 52.6153C918.163 52.594 918.619 52.6672 919.046 52.8301C919.473 52.993 919.861 53.2421 920.186 53.5617C920.504 53.895 920.75 54.289 920.91 54.7198C921.07 55.1507 921.141 55.6094 921.117 56.0681V58.0753C921.117 58.4705 921.295 58.6681 921.63 58.6681C921.792 58.6756 921.954 58.658 922.111 58.6161C922.327 58.6161 922.442 58.6993 922.456 58.8657L922.55 60.1657Z" fill="#232536"/>
<path d="M799.868 51.5129C800.64 48.4289 802.428 45.6903 804.947 43.7332C807.466 41.776 810.571 40.7128 813.768 40.7128C816.965 40.7128 820.07 41.776 822.589 43.7332C825.107 45.6903 826.895 48.4289 827.667 51.5129H826.411C824.294 51.4819 822.219 52.1111 820.479 53.3121C820.379 53.3843 820.274 53.4503 820.165 53.5097H820.019C819.91 53.4503 819.805 53.3843 819.705 53.3121C817.95 52.1389 815.883 51.5122 813.768 51.5122C811.653 51.5122 809.585 52.1389 807.83 53.3121C807.73 53.3843 807.625 53.4503 807.516 53.5097H807.37C807.261 53.4503 807.156 53.3843 807.056 53.3121C805.316 52.1111 803.242 51.4819 801.124 51.5129H799.868ZM824.152 58.0337C824.796 57.5348 825.595 57.2738 826.411 57.2953H828.096V53.9569H826.411C824.973 53.9396 823.568 54.3846 822.404 55.2257C821.75 55.7054 820.958 55.9642 820.144 55.9642C819.331 55.9642 818.539 55.7054 817.885 55.2257C816.692 54.4003 815.273 53.9578 813.82 53.9578C812.367 53.9578 810.948 54.4003 809.755 55.2257C809.101 55.7054 808.309 55.9642 807.495 55.9642C806.682 55.9642 805.89 55.7054 805.236 55.2257C804.058 54.3738 802.632 53.9283 801.176 53.9569H799.439V57.2953H801.124C801.94 57.2738 802.739 57.5348 803.384 58.0337C804.574 58.8596 805.991 59.3024 807.443 59.3024C808.895 59.3024 810.312 58.8596 811.503 58.0337C812.148 57.5363 812.946 57.2755 813.762 57.2953C814.579 57.272 815.379 57.5332 816.022 58.0337C817.215 58.8591 818.634 59.3015 820.087 59.3015C821.54 59.3015 822.959 58.8591 824.152 58.0337ZM824.152 64.0033C824.796 63.5044 825.595 63.2434 826.411 63.2649H828.096V59.9265H826.411C824.973 59.9092 823.568 60.3542 822.404 61.1953C821.75 61.675 820.958 61.9338 820.144 61.9338C819.331 61.9338 818.539 61.675 817.885 61.1953C816.692 60.3699 815.273 59.9275 813.82 59.9275C812.367 59.9275 810.948 60.3699 809.755 61.1953C809.101 61.675 808.309 61.9338 807.495 61.9338C806.682 61.9338 805.89 61.675 805.236 61.1953C804.058 60.3435 802.632 59.8979 801.176 59.9265H799.439V63.2649H801.124C801.94 63.2434 802.739 63.5044 803.384 64.0033C804.574 64.8292 805.991 65.2721 807.443 65.2721C808.895 65.2721 810.312 64.8292 811.503 64.0033C812.148 63.5059 812.946 63.2451 813.762 63.2649C814.579 63.2416 815.379 63.5028 816.022 64.0033C817.215 64.8287 818.634 65.2711 820.087 65.2711C821.54 65.2711 822.959 64.8287 824.152 64.0033Z" fill="#232536"/>
<path d="M388.189 44.785H391.345V60.102H388.189V44.785Z" fill="#232536"/>
<path d="M393.112 54.855C393.112 53.753 393.437 52.6758 394.045 51.7599C394.653 50.8441 395.517 50.1308 396.528 49.7106C397.539 49.2903 398.651 49.182 399.723 49.3993C400.795 49.6166 401.779 50.1498 402.55 50.9313C403.321 51.7127 403.845 52.7073 404.054 53.7889C404.264 54.8705 404.15 55.9904 403.727 57.0067C403.304 58.023 402.591 58.8899 401.679 59.4976C400.767 60.1052 399.696 60.4263 398.603 60.42C397.877 60.4257 397.158 60.2854 396.487 60.0073C395.817 59.7293 395.208 59.3191 394.696 58.8008C394.185 58.2824 393.781 57.6664 393.509 56.9889C393.237 56.3113 393.102 55.5858 393.112 54.855ZM401.022 54.855C401.009 54.3799 400.858 53.919 400.587 53.53C400.316 53.141 399.938 52.8412 399.498 52.668C399.059 52.4948 398.579 52.4559 398.118 52.5562C397.657 52.6565 397.236 52.8916 396.907 53.232C396.578 53.5723 396.355 54.003 396.268 54.47C396.18 54.937 396.231 55.4196 396.415 55.8575C396.598 56.2954 396.905 56.6692 397.298 56.9321C397.691 57.1949 398.152 57.3352 398.624 57.3354C398.945 57.3417 399.264 57.2812 399.56 57.1576C399.857 57.0341 400.126 56.8502 400.349 56.6174C400.572 56.3846 400.745 56.1079 400.857 55.8047C400.969 55.5014 401.018 55.1781 401.001 54.855H401.022Z" fill="#232536"/>
<path d="M416.579 49.608V59.5826C416.579 63.1018 413.844 64.5964 411.078 64.5964C410.102 64.6771 409.123 64.4817 408.251 64.0323C407.38 63.5828 406.65 62.8971 406.144 62.0524L408.806 60.5048C409.021 60.9429 409.364 61.3045 409.789 61.5412C410.214 61.7779 410.7 61.8786 411.183 61.8298C411.49 61.868 411.803 61.8372 412.097 61.7396C412.392 61.6421 412.661 61.4801 412.886 61.2654C413.111 61.0507 413.286 60.7885 413.399 60.4976C413.512 60.2067 413.56 59.8942 413.539 59.5826V58.618C413.172 59.0666 412.706 59.4229 412.178 59.6584C411.65 59.8939 411.076 60.0023 410.499 59.9748C409.104 59.9748 407.766 59.4164 406.78 58.4224C405.794 57.4285 405.24 56.0804 405.24 54.6748C405.24 53.2691 405.794 51.9211 406.78 50.9271C407.766 49.9332 409.104 49.3748 410.499 49.3748C411.076 49.3473 411.65 49.4556 412.178 49.6912C412.706 49.9267 413.172 50.2829 413.539 50.7316V49.6716L416.579 49.608ZM413.539 54.643C413.56 54.1358 413.43 53.634 413.166 53.2019C412.901 52.7698 412.515 52.4273 412.056 52.2184C411.597 52.0095 411.086 51.9438 410.59 52.0296C410.093 52.1155 409.634 52.349 409.27 52.7002C408.906 53.0514 408.655 53.5042 408.549 54.0004C408.443 54.4965 408.486 55.0134 408.674 55.4844C408.861 55.9555 409.185 56.3593 409.602 56.6438C410.019 56.9283 410.511 57.0805 411.014 57.081C411.343 57.1048 411.673 57.059 411.983 56.9463C412.293 56.8337 412.576 56.6568 412.814 56.427C413.052 56.1973 413.239 55.9198 413.364 55.6125C413.489 55.3052 413.549 54.9749 413.539 54.643Z" fill="#232536"/>
<path d="M418.356 54.855C418.356 53.7539 418.68 52.6776 419.288 51.7622C419.895 50.8468 420.758 50.1335 421.768 49.7126C422.777 49.2917 423.888 49.1822 424.96 49.3977C426.031 49.6133 427.015 50.1444 427.787 50.9237C428.559 51.7031 429.084 52.6957 429.296 53.7759C429.508 54.8561 429.397 55.9753 428.977 56.992C428.558 58.0087 427.848 58.8771 426.939 59.4873C426.029 60.0975 424.961 60.4221 423.868 60.42C423.141 60.4271 422.421 60.288 421.748 60.0107C421.075 59.7334 420.465 59.3236 419.951 58.8053C419.438 58.2869 419.032 57.6705 418.758 56.9922C418.485 56.3139 418.348 55.5873 418.356 54.855ZM426.266 54.855C426.254 54.3795 426.102 53.9182 425.831 53.529C425.56 53.1398 425.18 52.84 424.74 52.6671C424.301 52.4942 423.82 52.456 423.359 52.5571C422.898 52.6583 422.476 52.8944 422.148 53.2359C421.819 53.5773 421.597 54.0089 421.511 54.4766C421.425 54.9443 421.477 55.4272 421.662 55.8649C421.847 56.3027 422.156 56.6757 422.55 56.9373C422.944 57.1988 423.407 57.3374 423.879 57.3354C424.2 57.3417 424.519 57.2812 424.815 57.1577C425.112 57.0342 425.381 56.8503 425.604 56.6175C425.827 56.3847 426 56.108 426.112 55.8048C426.224 55.5015 426.273 55.1782 426.256 54.855H426.266Z" fill="#232536"/>
<path d="M430.842 46.7989C430.842 46.4257 430.952 46.0609 431.158 45.7507C431.364 45.4404 431.656 45.1985 431.998 45.0557C432.34 44.9129 432.717 44.8756 433.08 44.9484C433.443 45.0212 433.777 45.2009 434.039 45.4647C434.3 45.7286 434.479 46.0648 434.551 46.4308C434.623 46.7968 434.586 47.1762 434.444 47.521C434.303 47.8657 434.063 48.1604 433.755 48.3677C433.447 48.5751 433.085 48.6857 432.715 48.6857C432.22 48.6802 431.747 48.4796 431.397 48.127C431.047 47.7743 430.848 47.2976 430.842 46.7989ZM431.147 49.6079H434.303V60.1019H431.147V49.6079Z" fill="#232536"/>
<path d="M447.809 54.855C447.844 55.5529 447.742 56.251 447.509 56.909C447.275 57.5671 446.915 58.1721 446.449 58.6893C445.982 59.2065 445.419 59.6257 444.791 59.9227C444.164 60.2198 443.484 60.3887 442.791 60.42C442.203 60.4594 441.614 60.3645 441.068 60.1424C440.521 59.9203 440.032 59.5768 439.636 59.1374V64.3208H436.48V49.608H439.636V50.5938C440.032 50.1557 440.522 49.8137 441.069 49.5934C441.615 49.3731 442.204 49.2803 442.791 49.3218C443.481 49.3531 444.158 49.521 444.784 49.8161C445.409 50.1111 445.971 50.5274 446.437 51.0412C446.903 51.555 447.264 52.1562 447.499 52.8106C447.735 53.465 447.84 54.1597 447.809 54.855ZM444.653 54.855C444.641 54.3627 444.484 53.885 444.203 53.4818C443.923 53.0787 443.53 52.768 443.075 52.5887C442.62 52.4094 442.122 52.3695 441.645 52.4739C441.167 52.5784 440.731 52.8225 440.39 53.1758C440.05 53.5292 439.821 53.9759 439.731 54.46C439.641 54.9441 439.696 55.4441 439.887 55.8974C440.078 56.3506 440.398 56.7368 440.806 57.0077C441.214 57.2786 441.692 57.4221 442.181 57.4202C442.516 57.4345 442.85 57.3773 443.161 57.2525C443.472 57.1276 443.754 56.9379 443.987 56.6956C444.221 56.4534 444.401 56.1642 444.515 55.847C444.63 55.5298 444.677 55.1917 444.653 54.855Z" fill="#232536"/>
<path d="M457.412 56.9537C457.412 59.3705 455.309 60.3987 453.079 60.3987C452.169 60.4812 451.256 60.287 450.457 59.841C449.658 59.3951 449.011 58.7179 448.598 57.8971L451.311 56.3495C451.419 56.7278 451.652 57.0573 451.972 57.2831C452.292 57.5088 452.679 57.6171 453.068 57.5897C453.815 57.5897 454.194 57.3565 454.194 56.9325C454.194 55.7771 449.071 56.3919 449.071 52.7561C449.071 50.4665 450.985 49.3217 453.152 49.3217C453.976 49.2846 454.794 49.4729 455.52 49.8667C456.246 50.2605 456.853 50.8451 457.276 51.5583L454.562 52.9999C454.442 52.7265 454.246 52.4939 453.998 52.3302C453.749 52.1666 453.459 52.0789 453.163 52.0777C452.616 52.0777 452.29 52.2897 452.29 52.6607C452.29 53.8691 457.412 53.0741 457.412 56.9537Z" fill="#232536"/>
<path d="M468.846 49.608V60.102H465.69V59.1162C465.331 59.5526 464.876 59.8979 464.361 60.1244C463.846 60.3509 463.285 60.4521 462.724 60.42C460.62 60.42 458.821 58.9042 458.821 56.074V49.608H461.977V55.597C461.952 55.8474 461.981 56.1002 462.063 56.338C462.145 56.5758 462.277 56.793 462.45 56.9744C462.623 57.1558 462.833 57.2972 463.065 57.3888C463.298 57.4804 463.547 57.5201 463.797 57.505C464.933 57.505 465.732 56.8266 465.732 55.385V49.608H468.846Z" fill="#232536"/>
<path d="M486.728 53.6572V60.102H483.572V53.9328C483.572 52.8728 483.078 52.2156 482.078 52.2156C481.079 52.2156 480.448 52.947 480.448 54.1872V60.102H477.292V53.9328C477.292 52.8728 476.798 52.2156 475.799 52.2156C474.799 52.2156 474.168 52.947 474.168 54.1872V60.102H471.013V49.608H474.168V50.5726C474.495 50.1465 474.922 49.809 475.41 49.5906C475.899 49.3722 476.433 49.2799 476.966 49.3218C477.5 49.2938 478.032 49.4061 478.509 49.6476C478.987 49.8892 479.394 50.2518 479.691 50.6998C480.037 50.2318 480.496 49.8599 481.024 49.6189C481.552 49.3779 482.132 49.2757 482.709 49.3218C485.171 49.3218 486.728 51.039 486.728 53.6572Z" fill="#232536"/>
<path d="M369.392 42.029V37.524H355.297V68.476H369.392V63.971C366.505 63.971 363.736 62.8152 361.694 60.7577C359.653 58.7002 358.506 55.9097 358.506 53C358.506 50.0904 359.653 47.2998 361.694 45.2424C363.736 43.1849 366.505 42.029 369.392 42.029Z" fill="#232536"/>
<path d="M369.392 42.0291V63.9711C372.279 63.9711 375.049 62.8152 377.09 60.7577C379.132 58.7003 380.279 55.9097 380.279 53.0001C380.279 50.0904 379.132 47.2998 377.09 45.2424C375.049 43.1849 372.279 42.0291 369.392 42.0291Z" fill="#232536"/>
<path d="M489.378 49.5444C490.656 49.5444 491.692 48.5003 491.692 47.2124C491.692 45.9244 490.656 44.8804 489.378 44.8804C488.1 44.8804 487.064 45.9244 487.064 47.2124C487.064 48.5003 488.1 49.5444 489.378 49.5444Z" fill="#232536"/>
<path d="M155.335 51.7895C154.938 52.1899 154.635 52.6731 154.445 53.2046C154.256 53.7362 154.186 54.3031 154.24 54.865L154.222 54.8461C154.277 55.5074 154.188 56.173 153.961 56.7963C153.734 57.4196 153.374 57.9857 152.906 58.455C152.439 58.9243 151.875 59.2855 151.254 59.5135C150.633 59.7414 149.969 59.8306 149.31 59.7748L149.329 59.7937C148.541 59.72 147.749 59.8922 147.062 60.2867C146.375 60.6811 145.826 61.2787 145.489 61.9979C145.153 62.7172 145.046 63.523 145.182 64.3056C145.319 65.0882 145.693 65.8094 146.253 66.371C146.813 66.9325 147.532 67.3071 148.312 67.4435C149.092 67.5799 149.895 67.4716 150.611 67.1334C151.327 66.7951 151.922 66.2434 152.315 65.5533C152.707 64.8633 152.878 64.0686 152.804 63.2776L152.824 63.2965C152.768 62.6351 152.857 61.9696 153.084 61.3463C153.311 60.7229 153.671 60.1569 154.139 59.6876C154.606 59.2183 155.17 58.857 155.792 58.6291C156.413 58.4011 157.076 58.312 157.735 58.3678L157.715 58.3489C158.359 58.407 159.007 58.301 159.599 58.0408C160.191 57.7806 160.709 57.3746 161.103 56.8604C161.497 56.3462 161.756 55.7404 161.855 55.0992C161.953 54.458 161.889 53.8021 161.668 53.1924C161.447 52.5826 161.077 52.0387 160.59 51.6111C160.104 51.1834 159.518 50.8858 158.887 50.7459C158.256 50.606 157.599 50.6283 156.979 50.8108C156.359 50.9932 155.794 51.3298 155.338 51.7895H155.335Z" fill="#232536"/>
<path d="M147.616 57.3178L147.596 57.2989C148.156 57.3555 148.722 57.2865 149.252 57.0969C149.783 56.9073 150.264 56.6018 150.662 56.2024C151.061 55.8031 151.365 55.32 151.555 54.788C151.744 54.2559 151.813 53.6883 151.757 53.1262L151.777 53.1451C151.721 52.4837 151.81 51.8182 152.037 51.1949C152.265 50.5715 152.625 50.0055 153.092 49.5362C153.56 49.0669 154.124 48.7056 154.745 48.4777C155.366 48.2497 156.029 48.1606 156.688 48.2164L156.668 48.1975C157.457 48.2718 158.249 48.1002 158.936 47.7062C159.624 47.3122 160.174 46.7149 160.51 45.9957C160.847 45.2766 160.955 44.4707 160.819 43.6879C160.683 42.9052 160.309 42.1836 159.749 41.6217C159.189 41.0598 158.47 40.685 157.69 40.5482C156.91 40.4115 156.107 40.5195 155.391 40.8576C154.674 41.1958 154.079 41.7475 153.686 42.4376C153.294 43.1276 153.123 43.9224 153.197 44.7136L153.178 44.6936C153.234 45.355 153.145 46.0207 152.918 46.6441C152.691 47.2675 152.331 47.8336 151.863 48.303C151.396 48.7723 150.832 49.1335 150.21 49.3614C149.589 49.5893 148.926 49.6783 148.267 49.6223L148.286 49.6423C147.726 49.5857 147.16 49.6546 146.63 49.8443C146.1 50.0339 145.618 50.3394 145.22 50.7387C144.821 51.1381 144.517 51.6212 144.327 52.1532C144.138 52.6852 144.069 53.2529 144.125 53.815L144.106 53.7961C144.161 54.4574 144.072 55.1229 143.845 55.7461C143.618 56.3693 143.258 56.9353 142.791 57.4046C142.323 57.8739 141.759 58.2351 141.138 58.4631C140.517 58.6911 139.854 58.7804 139.195 58.7248L139.214 58.7437C138.425 58.6694 137.633 58.841 136.946 59.235C136.258 59.629 135.709 60.2263 135.372 60.9454C135.035 61.6645 134.927 62.4704 135.063 63.2532C135.2 64.036 135.573 64.7576 136.133 65.3195C136.693 65.8813 137.412 66.2562 138.192 66.393C138.972 66.5297 139.775 66.4216 140.491 66.0835C141.208 65.7454 141.803 65.1937 142.196 64.5036C142.588 63.8136 142.759 63.0187 142.685 62.2276L142.705 62.2465C142.649 61.5851 142.738 60.9196 142.965 60.2963C143.193 59.6729 143.553 59.1069 144.02 58.6376C144.488 58.1683 145.052 57.807 145.673 57.5791C146.294 57.3511 146.957 57.262 147.616 57.3178Z" fill="#232536"/>
<path d="M140.604 55.2105C141.001 54.8102 141.304 54.327 141.493 53.7954C141.682 53.2638 141.752 52.6968 141.698 52.135L141.718 52.1539C141.662 51.4924 141.751 50.8266 141.978 50.2032C142.205 49.5797 142.565 49.0135 143.033 48.5441C143.501 48.0748 144.065 47.7136 144.687 47.4858C145.308 47.258 145.972 47.1691 146.631 47.2252L146.611 47.2063C147.399 47.2804 148.191 47.1088 148.878 46.7148C149.565 46.3208 150.115 45.7236 150.451 45.0047C150.788 44.2858 150.896 43.4802 150.759 42.6977C150.623 41.9152 150.25 41.194 149.69 40.6323C149.13 40.0706 148.412 39.6958 147.632 39.5591C146.852 39.4224 146.049 39.5303 145.333 39.8682C144.617 40.2061 144.022 40.7576 143.629 41.4473C143.237 42.1371 143.066 42.9316 143.139 43.7224L143.121 43.7035C143.176 44.3649 143.087 45.0304 142.86 45.6538C142.633 46.2771 142.273 46.8432 141.805 47.3125C141.338 47.7818 140.774 48.143 140.153 48.3709C139.532 48.5989 138.868 48.6881 138.209 48.6322L138.228 48.6511C137.584 48.5932 136.936 48.6993 136.344 48.9596C135.752 49.2199 135.235 49.626 134.841 50.1403C134.447 50.6546 134.188 51.2604 134.089 51.9015C133.991 52.5427 134.055 53.1985 134.276 53.8082C134.497 54.4179 134.868 54.9618 135.354 55.3893C135.84 55.8169 136.426 56.1144 137.057 56.2542C137.689 56.3941 138.345 56.3717 138.965 56.1893C139.586 56.0068 140.15 55.6702 140.606 55.2105H140.604Z" fill="#232536"/>
<path d="M173.014 44.7377H176.122V59.9133H173.014V44.7377Z" fill="#232536"/>
<path d="M177.881 54.7169C177.877 53.6264 178.195 52.559 178.795 51.6501C179.396 50.7412 180.252 50.0317 181.255 49.6113C182.257 49.1909 183.362 49.0787 184.428 49.2887C185.494 49.4988 186.475 50.0218 187.245 50.7914C188.015 51.561 188.54 52.5426 188.753 53.6119C188.967 54.6812 188.859 55.7901 188.445 56.7981C188.03 57.8061 187.326 58.6678 186.423 59.2742C185.52 59.8806 184.457 60.2042 183.371 60.2042C182.649 60.2125 181.934 60.0764 181.265 59.8038C180.597 59.5312 179.989 59.1277 179.478 58.6168C178.967 58.1059 178.563 57.4979 178.288 56.8283C178.014 56.1587 177.876 55.4409 177.881 54.7169ZM185.753 54.7169C185.74 54.2469 185.589 53.791 185.32 53.4065C185.05 53.0219 184.673 52.7257 184.237 52.5547C183.8 52.3838 183.323 52.3459 182.865 52.4456C182.407 52.5453 181.989 52.7783 181.662 53.1154C181.335 53.4525 181.115 53.8787 181.028 54.3409C180.942 54.8031 180.993 55.2806 181.175 55.7138C181.357 56.147 181.663 56.5166 182.053 56.7765C182.444 57.0364 182.902 57.175 183.371 57.175C183.692 57.1836 184.011 57.1254 184.308 57.004C184.606 56.8826 184.875 56.7007 185.098 56.4698C185.322 56.2388 185.496 55.9639 185.609 55.6622C185.721 55.3605 185.77 55.0386 185.753 54.7169Z" fill="#232536"/>
<path d="M201.245 49.5195V59.3895C201.245 62.8818 198.531 64.3581 195.776 64.3581C194.806 64.4309 193.835 64.2343 192.969 63.7898C192.103 63.3453 191.376 62.67 190.867 61.8381L193.518 60.2998C193.732 60.7335 194.073 61.0913 194.495 61.3253C194.917 61.5593 195.4 61.6583 195.88 61.6092C196.186 61.6518 196.498 61.6247 196.793 61.5299C197.088 61.4351 197.357 61.275 197.582 61.0615C197.807 60.8479 197.981 60.5864 198.091 60.2963C198.202 60.0061 198.246 59.6948 198.22 59.3853V58.435C197.856 58.8818 197.393 59.2368 196.868 59.4715C196.343 59.7062 195.77 59.814 195.195 59.7864C193.829 59.7431 192.533 59.1679 191.581 58.1824C190.63 57.197 190.098 55.8786 190.098 54.5065C190.098 53.1343 190.63 51.8159 191.581 50.8305C192.533 49.845 193.829 49.2698 195.195 49.2265C195.77 49.1989 196.343 49.3067 196.868 49.5414C197.393 49.7761 197.856 50.1311 198.22 50.5779V49.5174L201.245 49.5195ZM198.221 54.508C198.242 54.0055 198.113 53.5081 197.849 53.08C197.586 52.6519 197.202 52.3126 196.745 52.1058C196.288 51.899 195.78 51.8342 195.286 51.9197C194.792 52.0052 194.335 52.237 193.973 52.5854C193.612 52.9339 193.362 53.3829 193.257 53.8747C193.152 54.3665 193.196 54.8787 193.383 55.3452C193.571 55.8117 193.893 56.2113 194.309 56.4925C194.724 56.7737 195.214 56.9236 195.715 56.923C196.042 56.9459 196.37 56.8999 196.677 56.788C196.985 56.676 197.266 56.5007 197.502 56.2732C197.738 56.0457 197.924 55.7711 198.048 55.467C198.172 55.163 198.231 54.8363 198.221 54.508Z" fill="#232536"/>
<path d="M203.005 54.7169C203 53.6264 203.318 52.559 203.919 51.6501C204.52 50.7412 205.375 50.0317 206.378 49.6113C207.381 49.1909 208.485 49.0787 209.552 49.2887C210.618 49.4988 211.598 50.0218 212.368 50.7914C213.138 51.561 213.663 52.5426 213.877 53.6119C214.09 54.6812 213.983 55.7901 213.568 56.7981C213.153 57.8061 212.45 58.6678 211.546 59.2742C210.643 59.8806 209.581 60.2042 208.494 60.2042C207.773 60.2125 207.057 60.0764 206.389 59.8038C205.72 59.5312 205.113 59.1277 204.602 58.6168C204.091 58.1059 203.686 57.4979 203.412 56.8283C203.138 56.1587 202.999 55.4409 203.005 54.7169ZM210.877 54.7169C210.864 54.2469 210.713 53.791 210.443 53.4065C210.173 53.0219 209.797 52.7257 209.36 52.5547C208.924 52.3838 208.447 52.3459 207.989 52.4456C207.531 52.5453 207.112 52.7783 206.786 53.1154C206.459 53.4525 206.238 53.8787 206.152 54.3409C206.065 54.8031 206.116 55.2806 206.299 55.7138C206.481 56.147 206.786 56.5166 207.177 56.7765C207.567 57.0364 208.026 57.175 208.494 57.175C208.815 57.1836 209.134 57.1254 209.432 57.004C209.729 56.8826 209.998 56.7007 210.222 56.4698C210.446 56.2388 210.62 55.9639 210.732 55.6622C210.845 55.3605 210.894 55.0386 210.877 54.7169Z" fill="#232536"/>
<path d="M215.433 46.7338C215.433 46.3637 215.542 46.0019 215.747 45.6942C215.952 45.3865 216.243 45.1467 216.584 45.0051C216.925 44.8635 217.3 44.8264 217.661 44.8986C218.023 44.9708 218.355 45.149 218.616 45.4107C218.877 45.6724 219.054 46.0058 219.126 46.3687C219.198 46.7317 219.161 47.1079 219.02 47.4498C218.879 47.7917 218.64 48.0839 218.333 48.2895C218.027 48.4951 217.666 48.6049 217.298 48.6049C216.805 48.6 216.333 48.4012 215.985 48.0514C215.636 47.7016 215.438 47.2285 215.433 46.7338ZM215.747 49.5194H218.855V59.9144H215.743L215.747 49.5194Z" fill="#232536"/>
<path d="M232.272 54.7169C232.308 55.4039 232.209 56.0913 231.979 56.7394C231.749 57.3876 231.394 57.9838 230.934 58.4937C230.474 59.0037 229.918 59.4173 229.298 59.7109C228.678 60.0044 228.006 60.1721 227.322 60.2042C226.746 60.2358 226.17 60.1383 225.637 59.9189C225.103 59.6995 224.625 59.3637 224.236 58.9358V64.0714H221.129V49.5194H224.236V50.4959C224.625 50.0683 225.103 49.7328 225.637 49.5136C226.17 49.2944 226.746 49.1971 227.322 49.2286C228.007 49.2606 228.678 49.4282 229.298 49.7217C229.918 50.0153 230.475 50.429 230.935 50.9391C231.395 51.4492 231.75 52.0456 231.98 52.6939C232.209 53.3423 232.309 54.0298 232.272 54.7169ZM229.165 54.7169C229.153 54.2304 228.998 53.7583 228.72 53.3597C228.442 52.9611 228.053 52.6537 227.601 52.476C227.15 52.2982 226.656 52.2581 226.182 52.3605C225.708 52.4629 225.275 52.7034 224.936 53.0518C224.598 53.4002 224.369 53.8411 224.279 54.3192C224.189 54.7974 224.241 55.2916 224.43 55.74C224.618 56.1884 224.934 56.5711 225.338 56.8402C225.742 57.1092 226.216 57.2527 226.701 57.2527C227.034 57.2675 227.366 57.2116 227.676 57.0886C227.986 56.9655 228.267 56.7782 228.499 56.5387C228.732 56.2993 228.911 56.0132 229.026 55.6993C229.141 55.3853 229.188 55.0505 229.165 54.7169Z" fill="#232536"/>
<path d="M241.861 56.7949C241.861 59.1857 239.791 60.2042 237.554 60.2042C236.65 60.2864 235.743 60.0946 234.949 59.6536C234.155 59.2126 233.511 58.5426 233.1 57.7304L235.792 56.1922C235.901 56.5676 236.135 56.8942 236.455 57.1174C236.775 57.3406 237.161 57.4469 237.55 57.4186C238.295 57.4186 238.668 57.1897 238.668 56.7749C238.668 55.6304 233.572 56.2342 233.572 52.6379C233.572 50.371 235.478 49.2286 237.632 49.2286C238.442 49.2029 239.244 49.3956 239.954 49.7868C240.665 50.178 241.258 50.7532 241.671 51.4525L239.02 52.8868C238.904 52.6145 238.71 52.3826 238.463 52.22C238.217 52.0573 237.928 51.9712 237.632 51.9722C237.094 51.9722 236.762 52.1822 236.762 52.5539C236.766 53.7394 241.861 52.9487 241.861 56.7949Z" fill="#232536"/>
<path d="M253.212 49.5194V59.9144H250.105V58.9369C249.747 59.3682 249.291 59.7081 248.777 59.9286C248.262 60.1491 247.702 60.2439 247.144 60.2053C245.052 60.2053 243.273 58.709 243.273 55.9003V49.5194H246.38V55.4435C246.354 55.6911 246.382 55.9414 246.463 56.177C246.543 56.4125 246.673 56.6278 246.845 56.8076C247.016 56.9875 247.225 57.1278 247.455 57.2186C247.686 57.3094 247.934 57.3486 248.182 57.3335C249.321 57.3335 250.108 56.6689 250.108 55.1926V49.5226L253.212 49.5194Z" fill="#232536"/>
<path d="M271.03 53.5316V59.9135H267.923V53.8014C267.923 52.7619 267.426 52.0973 266.432 52.0973C265.396 52.0973 264.815 52.8249 264.815 54.0513V59.9135H261.709V53.8014C261.709 52.7619 261.212 52.0973 260.217 52.0973C259.181 52.0973 258.601 52.8249 258.601 54.0513V59.9135H255.494V49.5185H258.601V50.474C258.924 50.0501 259.346 49.7139 259.831 49.4962C260.316 49.2785 260.848 49.1861 261.377 49.2276C261.909 49.2015 262.438 49.3141 262.914 49.5544C263.389 49.7948 263.794 50.1546 264.09 50.5989C264.434 50.1341 264.891 49.7645 265.416 49.5247C265.941 49.2849 266.519 49.1827 267.094 49.2276C269.472 49.2287 271.03 50.9328 271.03 53.5316Z" fill="#232536"/>
<path d="M273.658 49.4554C274.932 49.4554 275.964 48.4193 275.964 47.1412C275.964 45.8631 274.932 44.827 273.658 44.827C272.384 44.827 271.352 45.8631 271.352 47.1412C271.352 48.4193 272.384 49.4554 273.658 49.4554Z" fill="#232536"/>
<path d="M616.183 47.2735H619.338V60.01H616.183V47.2735ZM620.59 55.201C620.59 52.051 622.525 50.1715 625.513 50.1715C628.5 50.1715 630.435 52.051 630.435 55.201C630.435 58.351 628.542 60.241 625.513 60.241C622.483 60.241 620.59 58.4035 620.59 55.201ZM627.269 55.201C627.269 53.4685 626.586 52.45 625.513 52.45C624.44 52.45 623.767 53.5 623.767 55.201C623.767 56.902 624.429 57.931 625.513 57.931C626.596 57.931 627.269 56.965 627.269 55.2115V55.201ZM631.624 60.6295H634.653C634.797 60.9492 635.041 61.2139 635.348 61.3842C635.655 61.5545 636.009 61.6212 636.357 61.5745C637.556 61.5745 638.188 60.9235 638.188 59.9785V58.2145H638.124C637.873 58.7552 637.465 59.2082 636.953 59.5151C636.441 59.8221 635.849 59.9688 635.253 59.9365C632.949 59.9365 631.424 58.183 631.424 55.1695C631.424 52.156 632.876 50.2555 635.295 50.2555C635.91 50.2315 636.517 50.3956 637.036 50.7259C637.555 51.0561 637.961 51.5368 638.198 52.1035V50.35H641.354V59.905C641.354 62.2045 639.324 63.6325 636.326 63.6325C633.538 63.6325 631.803 62.383 631.624 60.64V60.6295ZM638.198 55.1905C638.198 53.6575 637.493 52.6915 636.378 52.6915C635.263 52.6915 634.58 53.647 634.58 55.1905C634.58 56.734 635.253 57.6055 636.378 57.6055C637.504 57.6055 638.198 56.755 638.198 55.201V55.1905ZM642.542 55.1905C642.542 52.0405 644.478 50.161 647.465 50.161C650.452 50.161 652.398 52.0405 652.398 55.1905C652.398 58.3405 650.505 60.2305 647.465 60.2305C644.425 60.2305 642.542 58.4035 642.542 55.201V55.1905ZM649.222 55.1905C649.222 53.458 648.538 52.4395 647.465 52.4395C646.392 52.4395 645.771 53.5 645.771 55.2115C645.771 56.923 646.434 57.9415 647.507 57.9415C648.58 57.9415 649.222 56.965 649.222 55.2115V55.1905ZM653.597 48.061C653.589 47.743 653.676 47.4297 653.846 47.1608C654.016 46.8919 654.263 46.6795 654.554 46.5506C654.845 46.4217 655.169 46.3821 655.483 46.4367C655.797 46.4914 656.087 46.6379 656.318 46.8576C656.548 47.0774 656.708 47.3605 656.777 47.671C656.846 47.9816 656.821 48.3057 656.706 48.6022C656.59 48.8986 656.389 49.1541 656.128 49.3363C655.866 49.5185 655.557 49.6192 655.238 49.6255C655.027 49.64 654.815 49.6107 654.616 49.5395C654.416 49.4683 654.234 49.3568 654.08 49.2118C653.926 49.0669 653.803 48.8917 653.72 48.6973C653.637 48.5028 653.595 48.2934 653.597 48.082V48.061ZM653.597 50.371H656.753V60.01H653.597V50.371ZM668.208 55.1905C668.208 58.3405 666.809 60.136 664.41 60.136C663.796 60.1754 663.183 60.0254 662.657 59.7061C662.13 59.3869 661.714 58.9138 661.465 58.351H661.402V63.097H658.247V50.35H661.402V52.072H661.465C661.702 51.4999 662.11 51.0146 662.633 50.682C663.157 50.3495 663.77 50.1859 664.389 50.2135C666.809 50.2555 668.25 52.0615 668.25 55.2115L668.208 55.1905ZM665.052 55.1905C665.052 53.6575 664.347 52.681 663.243 52.681C662.138 52.681 661.434 53.668 661.423 55.1905C661.413 56.713 662.138 57.6895 663.243 57.6895C664.347 57.6895 665.052 56.734 665.052 55.2115V55.1905ZM673.625 50.1505C676.244 50.1505 677.832 51.3895 677.906 53.374H675.034C675.034 52.6915 674.466 52.261 673.593 52.261C672.72 52.261 672.331 52.597 672.331 53.0905C672.331 53.584 672.678 53.7415 673.383 53.8885L675.402 54.298C677.327 54.7075 678.148 55.4845 678.148 56.944C678.148 58.939 676.328 60.22 673.646 60.22C670.964 60.22 669.207 58.939 669.07 56.9755H672.11C672.205 57.6895 672.773 58.1095 673.698 58.1095C674.624 58.1095 675.045 57.805 675.045 57.301C675.045 56.797 674.75 56.692 673.993 56.5345L672.173 56.146C670.29 55.7575 669.302 54.76 669.302 53.29C669.323 51.4 671.016 50.1715 673.625 50.1715V50.1505ZM688.677 59.989H685.637V58.1935H685.574C685.407 58.7963 685.038 59.324 684.529 59.6888C684.02 60.0536 683.402 60.2336 682.776 60.199C682.297 60.2262 681.817 60.1504 681.369 59.9766C680.922 59.8029 680.517 59.5353 680.182 59.1919C679.847 58.8485 679.589 58.4373 679.427 57.9861C679.265 57.5349 679.202 57.0542 679.242 56.5765V50.35H682.397V55.852C682.397 56.9965 682.986 57.6055 683.965 57.6055C684.194 57.606 684.421 57.5575 684.63 57.4633C684.839 57.3691 685.025 57.2314 685.177 57.0594C685.328 56.8874 685.441 56.685 685.508 56.4659C685.574 56.2468 685.593 56.016 685.563 55.789V50.35H688.719L688.677 59.989ZM690.202 50.35H693.253V52.2085H693.316C693.483 51.6137 693.843 51.091 694.34 50.7224C694.837 50.3539 695.442 50.1601 696.061 50.1715C696.691 50.1212 697.316 50.3093 697.813 50.6984C698.31 51.0875 698.642 51.6491 698.743 52.2715H698.806C698.997 51.6425 699.392 51.0948 699.929 50.7146C700.466 50.3343 701.115 50.1433 701.773 50.1715C702.202 50.1571 702.629 50.233 703.027 50.3943C703.425 50.5555 703.784 50.7985 704.082 51.1075C704.379 51.4165 704.609 51.7845 704.754 52.1876C704.9 52.5908 704.959 53.02 704.928 53.4475V60.01H701.773V54.2875C701.773 53.2375 701.299 52.7545 700.416 52.7545C700.219 52.7529 700.024 52.7934 699.844 52.8734C699.664 52.9534 699.503 53.071 699.372 53.2183C699.242 53.3656 699.144 53.5391 699.087 53.7272C699.029 53.9153 699.012 54.1135 699.038 54.3085V60.01H696.04V54.2455C696.04 53.2795 695.567 52.7545 694.704 52.7545C694.505 52.7546 694.308 52.7968 694.126 52.8784C693.944 52.9601 693.782 53.0792 693.65 53.2281C693.518 53.3769 693.419 53.552 693.359 53.7419C693.3 53.9317 693.281 54.132 693.305 54.3295V60.01H690.15L690.202 50.35Z" fill="#232536"/>
<path d="M607.357 47.851C606.822 46.6292 606.114 45.4905 605.254 44.47C603.982 42.9163 602.396 41.649 600.599 40.7515C598.802 39.854 596.834 39.3466 594.826 39.2627C592.819 39.1788 590.816 39.5203 588.95 40.2647C587.084 41.0092 585.397 42.1397 584 43.5818C582.603 45.024 581.528 46.7451 580.845 48.6318C580.163 50.5186 579.888 52.5283 580.04 54.5286C580.192 56.5289 580.766 58.4744 581.725 60.2372C582.684 62 584.006 63.5401 585.605 64.756C586.63 65.5518 587.764 66.1987 588.971 66.6775C590.663 67.3698 592.475 67.7265 594.304 67.7275C598.079 67.7191 601.697 66.2168 604.365 63.5499C607.033 60.8829 608.533 57.2689 608.535 53.5C608.538 51.5559 608.137 49.6324 607.357 47.851ZM594.293 42.1495C595.936 42.1493 597.558 42.5077 599.048 43.1995C598.684 43.3561 598.303 43.4655 597.912 43.525C596.625 43.7109 595.433 44.3073 594.513 45.2251C593.594 46.1429 592.996 47.3329 592.81 48.6175C592.728 49.3379 592.4 50.0081 591.881 50.515C591.361 51.0219 590.683 51.3345 589.959 51.4C588.673 51.5859 587.481 52.1823 586.561 53.1001C585.642 54.0179 585.044 55.2079 584.858 56.4925C584.795 57.1775 584.502 57.8212 584.027 58.3195C583.207 56.5904 582.839 54.6824 582.956 52.7731C583.074 50.8637 583.673 49.0151 584.699 47.3992C585.725 45.7833 587.143 44.4527 588.823 43.5311C590.502 42.6096 592.387 42.1271 594.304 42.1285L594.293 42.1495ZM585.594 60.85C585.72 60.7345 585.847 60.6295 585.973 60.5035C586.909 59.5978 587.509 58.4023 587.677 57.112C587.745 56.3867 588.069 55.7092 588.592 55.201C589.095 54.6783 589.772 54.3571 590.496 54.298C591.783 54.112 592.975 53.5156 593.894 52.5978C594.814 51.6801 595.411 50.4901 595.597 49.2055C595.643 48.4469 595.969 47.7322 596.513 47.2C597.028 46.6874 597.712 46.3779 598.438 46.3285C599.62 46.1661 600.722 45.6415 601.593 44.827C602.585 45.6482 603.425 46.636 604.075 47.746C604.036 47.7999 603.99 47.8492 603.939 47.893C603.437 48.4203 602.76 48.7485 602.035 48.817C600.747 48.9997 599.553 49.595 598.633 50.5134C597.713 51.4318 597.116 52.6236 596.933 53.9095C596.859 54.6323 596.537 55.3074 596.021 55.8202C595.506 56.3331 594.828 56.6522 594.104 56.7235C592.813 56.908 591.617 57.5032 590.692 58.4206C589.767 59.3381 589.164 60.5288 588.971 61.816C588.914 62.3291 588.738 62.8219 588.455 63.2545C587.376 62.6149 586.41 61.8025 585.594 60.85ZM594.293 64.903C593.226 64.9041 592.164 64.7557 591.138 64.462C591.489 63.8089 591.717 63.0971 591.811 62.362C591.884 61.6407 592.205 60.967 592.719 60.4543C593.232 59.9417 593.907 59.6216 594.63 59.548C595.919 59.3641 597.113 58.7687 598.035 57.8507C598.956 56.9327 599.555 55.7416 599.742 54.4555C599.816 53.7342 600.136 53.0605 600.65 52.5478C601.163 52.0352 601.838 51.7151 602.561 51.6415C603.531 51.5156 604.455 51.1551 605.254 50.5915C605.697 52.2693 605.75 54.0262 605.407 55.7274C605.065 57.4286 604.336 59.0289 603.278 60.4056C602.22 61.7822 600.86 62.8986 599.303 63.6691C597.745 64.4396 596.031 64.8437 594.293 64.8505V64.903Z" fill="#232536"/>
<path d="M1050.7 47.4729H1054.08V61.1229H1050.7V47.4729ZM1055.42 55.9884C1055.42 52.6074 1057.53 50.581 1060.68 50.581C1063.84 50.581 1065.94 52.6074 1065.94 55.9884C1065.94 59.3694 1063.91 61.4169 1060.68 61.4169C1057.45 61.4169 1055.42 59.4429 1055.42 55.9884ZM1062.6 55.9884C1062.6 54.1299 1061.87 53.038 1060.71 53.038C1059.56 53.038 1058.84 54.0879 1058.84 55.9884C1058.84 57.8889 1059.56 58.9284 1060.71 58.9284C1061.87 58.9284 1062.62 57.8889 1062.62 55.999L1062.6 55.9884ZM1067.29 61.8264H1070.55C1070.7 62.1769 1070.96 62.4692 1071.29 62.6588C1071.62 62.8484 1072 62.9248 1072.38 62.8764C1073.67 62.8764 1074.35 62.1834 1074.35 61.1544V59.2644H1074.36C1074.08 59.853 1073.63 60.3435 1073.06 60.6715C1072.5 60.9994 1071.85 61.1495 1071.2 61.1019C1068.73 61.1019 1067.09 59.2224 1067.09 55.9884C1067.09 52.7544 1068.66 50.7384 1071.3 50.7384C1071.96 50.7028 1072.62 50.8746 1073.19 51.23C1073.75 51.5854 1074.2 52.107 1074.45 52.7229H1074.36V50.8225H1077.7V61.0494C1077.7 63.5169 1075.51 65.0604 1072.29 65.0604C1069.37 65.0499 1067.5 63.7164 1067.31 61.8369L1067.29 61.8264ZM1074.36 55.9884C1074.36 54.3399 1073.6 53.3005 1072.4 53.3005C1071.2 53.3005 1070.46 54.3504 1070.46 55.9884C1070.46 57.6264 1071.19 58.5924 1072.4 58.5924C1073.61 58.5924 1074.36 57.6999 1074.36 55.9884ZM1079.04 55.9884C1079.04 52.6074 1081.14 50.581 1084.3 50.581C1087.45 50.581 1089.56 52.6074 1089.56 55.9884C1089.56 59.3694 1087.52 61.4169 1084.3 61.4169C1081.08 61.4169 1079.06 59.4429 1079.06 55.9884H1079.04ZM1086.21 55.9884C1086.21 54.1299 1085.47 53.038 1084.33 53.038C1083.18 53.038 1082.46 54.0879 1082.46 55.9884C1082.46 57.8889 1083.17 58.9284 1084.33 58.9284C1085.49 58.9284 1086.23 57.8889 1086.23 55.999L1086.21 55.9884ZM1090.92 48.334C1090.91 47.9906 1091 47.6508 1091.18 47.3581C1091.36 47.0654 1091.62 46.8333 1091.94 46.6916C1092.25 46.5499 1092.6 46.5052 1092.94 46.5631C1093.28 46.621 1093.59 46.7789 1093.84 47.0166C1094.09 47.2542 1094.26 47.5607 1094.33 47.8966C1094.41 48.2324 1094.38 48.5824 1094.25 48.9013C1094.12 49.2203 1093.9 49.4937 1093.61 49.6863C1093.33 49.879 1092.99 49.9821 1092.65 49.9825C1092.43 49.988 1092.21 49.9499 1092 49.8704C1091.8 49.7908 1091.61 49.6714 1091.45 49.519C1091.29 49.3666 1091.17 49.1843 1091.08 48.9827C1090.99 48.7811 1090.95 48.5641 1090.94 48.3445L1090.92 48.334ZM1090.92 50.8119H1094.34V61.1649H1090.98L1090.92 50.8119ZM1106.64 55.9884C1106.64 59.3589 1105.12 61.3119 1102.55 61.3119C1101.89 61.3526 1101.23 61.1901 1100.67 60.8465C1100.1 60.5029 1099.66 59.9946 1099.39 59.3904H1099.33V64.4934H1095.95V50.8435H1099.31V52.6914H1099.37C1099.63 52.0754 1100.07 51.5533 1100.63 51.1963C1101.2 50.8393 1101.86 50.6647 1102.53 50.6965C1105.18 50.6755 1106.7 52.618 1106.7 55.999L1106.64 55.9884ZM1103.2 55.9884C1103.2 54.3504 1102.43 53.2899 1101.24 53.2899C1100.05 53.2899 1099.31 54.3399 1099.3 55.9884C1099.29 57.6369 1100.05 58.6764 1101.24 58.6764C1102.43 58.6764 1103.26 57.6999 1103.26 55.999L1103.2 55.9884ZM1112.4 50.5704C1115.23 50.5704 1116.99 51.904 1117.01 54.046H1113.93C1113.93 53.3005 1113.31 52.8384 1112.38 52.8384C1111.46 52.8384 1111.01 53.1955 1111.01 53.731C1111.01 54.2665 1111.4 54.4345 1112.18 54.592L1114.35 55.0329C1116.45 55.4739 1117.29 56.3139 1117.29 57.8784C1117.29 59.9784 1115.35 61.4064 1112.46 61.4064C1109.56 61.4064 1107.68 60.0204 1107.54 57.9099H1110.81C1110.91 58.6764 1111.52 59.1279 1112.51 59.1279C1113.5 59.1279 1113.96 58.8129 1113.96 58.2564C1113.96 57.6999 1113.64 57.6054 1112.83 57.4374L1110.88 57.0279C1108.85 56.5974 1107.78 55.5369 1107.78 53.9514C1107.85 51.8935 1109.61 50.581 1112.47 50.581L1112.4 50.5704ZM1128.6 61.1544H1125.33V59.2119H1125.27C1125.08 59.8599 1124.68 60.4262 1124.14 60.8174C1123.59 61.2087 1122.92 61.4017 1122.25 61.3644C1121.74 61.381 1121.23 61.29 1120.76 61.0975C1120.29 60.905 1119.87 60.6153 1119.52 60.2474C1119.17 59.8796 1118.9 59.4418 1118.73 58.963C1118.56 58.4842 1118.49 57.975 1118.53 57.4689V50.8225H1121.91V56.7444C1121.91 57.9624 1122.55 58.6239 1123.6 58.6239C1123.85 58.6221 1124.1 58.5674 1124.32 58.4636C1124.54 58.3598 1124.74 58.2092 1124.9 58.0221C1125.06 57.835 1125.18 57.6157 1125.25 57.3789C1125.32 57.1422 1125.33 56.8936 1125.3 56.6499V50.8225H1128.66L1128.6 61.1544ZM1130.23 50.8119H1133.51V52.807H1133.59C1133.77 52.1679 1134.16 51.6068 1134.69 51.2116C1135.23 50.8164 1135.88 50.6094 1136.54 50.6229C1137.21 50.565 1137.88 50.7578 1138.41 51.1636C1138.94 51.5695 1139.3 52.1592 1139.42 52.8174H1139.57C1139.78 52.1557 1140.21 51.5817 1140.78 51.1849C1141.35 50.788 1142.03 50.5905 1142.73 50.6229C1143.19 50.6054 1143.65 50.6854 1144.08 50.8577C1144.51 51.03 1144.89 51.2907 1145.21 51.6227C1145.54 51.9548 1145.78 52.3507 1145.94 52.7846C1146.1 53.2184 1146.16 53.6805 1146.13 54.1405V61.1649H1142.73V55.0014C1142.73 53.9514 1142.23 53.3634 1141.28 53.3634C1141.06 53.36 1140.85 53.4024 1140.66 53.4877C1140.46 53.5731 1140.29 53.6994 1140.15 53.8579C1140.01 54.0165 1139.9 54.2036 1139.84 54.4064C1139.78 54.6092 1139.76 54.823 1139.79 55.0329V61.1649H1136.57V54.97C1136.57 53.92 1136.06 53.3634 1135.13 53.3634C1134.92 53.3617 1134.71 53.4059 1134.51 53.4929C1134.31 53.5798 1134.14 53.7077 1134 53.8678C1133.85 54.0279 1133.75 54.2166 1133.68 54.4212C1133.62 54.6258 1133.6 54.8415 1133.63 55.0539V61.1649H1130.25L1130.23 50.8119Z" fill="#232536"/>
<path d="M1044.02 48.3656C1044.02 46.2758 1043.39 44.2346 1042.21 42.5095C1041.03 40.7845 1039.35 39.4558 1037.4 38.6977C1035.45 37.9396 1033.31 37.7874 1031.27 38.2609C1029.23 38.7345 1027.39 39.8117 1025.97 41.3516H1012.84V69.0086H1040.56V56.0831C1041.65 55.1118 1042.52 53.9225 1043.11 52.5927C1043.71 51.2629 1044.02 49.8225 1044.02 48.3656ZM1038.69 48.3656C1038.69 49.367 1038.39 50.3465 1037.84 51.1802C1037.28 52.0138 1036.49 52.6642 1035.57 53.0488C1034.64 53.4335 1033.62 53.5352 1032.64 53.3411C1031.65 53.147 1030.75 52.6658 1030.04 51.9585C1029.33 51.2511 1028.84 50.3493 1028.65 49.3673C1028.45 48.3853 1028.55 47.3672 1028.93 46.4418C1029.32 45.5164 1029.97 44.7253 1030.8 44.1688C1031.63 43.6122 1032.61 43.3151 1033.62 43.3151C1034.96 43.3151 1036.25 43.8469 1037.2 44.7937C1038.15 45.7406 1038.68 47.0252 1038.69 48.3656ZM1035.23 63.6851H1018.18V46.6751H1023.37C1023.27 47.2331 1023.22 47.7987 1023.21 48.3656C1023.22 51.1189 1024.31 53.7586 1026.26 55.7055C1028.22 57.6523 1030.86 58.7473 1033.62 58.7501C1034.16 58.7472 1034.7 58.7016 1035.23 58.6136V63.6851Z" fill="#232536"/>
</svg>
