<svg width="123" height="24" viewBox="0 0 123 24" fill="none" xmlns="http://www.w3.org/2000/svg">
<path opacity="0.87" d="M7.04 18L4.224 13.488H2.928V18H1.104V6.704H5.088C6.37867 6.704 7.35467 7.01867 8.016 7.648C8.688 8.27733 9.024 9.10933 9.024 10.144C9.024 11.0293 8.77333 11.7547 8.272 12.32C7.78133 12.8853 7.06667 13.248 6.128 13.408L9.088 18H7.04ZM2.928 12.192H4.944C6.416 12.192 7.152 11.5413 7.152 10.24C7.152 9.62133 6.97067 9.14133 6.608 8.8C6.256 8.448 5.70133 8.272 4.944 8.272H2.928V12.192ZM18.8585 13.168C18.8585 13.4667 18.8372 13.728 18.7945 13.952H12.0105C12.0425 14.8587 12.2932 15.5307 12.7625 15.968C13.2318 16.4053 13.8132 16.624 14.5065 16.624C15.1145 16.624 15.6265 16.4693 16.0425 16.16C16.4692 15.8507 16.7305 15.44 16.8265 14.928H18.7785C18.6612 15.5467 18.4158 16.096 18.0425 16.576C17.6692 17.056 17.1838 17.4347 16.5865 17.712C15.9892 17.9787 15.3225 18.112 14.5865 18.112C13.7332 18.112 12.9758 17.9307 12.3145 17.568C11.6638 17.2053 11.1518 16.6827 10.7785 16C10.4052 15.3173 10.2185 14.512 10.2185 13.584C10.2185 12.6667 10.4052 11.8667 10.7785 11.184C11.1518 10.5013 11.6638 9.97867 12.3145 9.616C12.9758 9.25333 13.7332 9.072 14.5865 9.072C15.4505 9.072 16.2025 9.25333 16.8425 9.616C17.4932 9.968 17.9892 10.4587 18.3305 11.088C18.6825 11.7067 18.8585 12.4 18.8585 13.168ZM17.0185 13.12C17.0398 12.544 16.9385 12.064 16.7145 11.68C16.5012 11.2853 16.2025 10.9973 15.8185 10.816C15.4452 10.624 15.0345 10.528 14.5865 10.528C13.8718 10.528 13.2745 10.7467 12.7945 11.184C12.3145 11.6213 12.0532 12.2667 12.0105 13.12H17.0185ZM24.1556 9.072C24.9556 9.072 25.6383 9.26933 26.2036 9.664C26.769 10.0587 27.169 10.5813 27.4036 11.232V9.184H29.2276V18H27.4036V15.952C27.169 16.6027 26.769 17.1253 26.2036 17.52C25.6383 17.9147 24.9556 18.112 24.1556 18.112C23.3876 18.112 22.6996 17.9307 22.0916 17.568C21.4943 17.2053 21.025 16.6827 20.6836 16C20.3423 15.3173 20.1716 14.512 20.1716 13.584C20.1716 12.6667 20.3423 11.8667 20.6836 11.184C21.025 10.5013 21.4943 9.97867 22.0916 9.616C22.6996 9.25333 23.3876 9.072 24.1556 9.072ZM24.7156 10.672C23.905 10.672 23.2543 10.9333 22.7636 11.456C22.2836 11.968 22.0436 12.6773 22.0436 13.584C22.0436 14.4907 22.2836 15.2053 22.7636 15.728C23.2543 16.24 23.905 16.496 24.7156 16.496C25.2276 16.496 25.6863 16.3787 26.0916 16.144C26.497 15.8987 26.817 15.5573 27.0516 15.12C27.2863 14.6827 27.4036 14.1707 27.4036 13.584C27.4036 13.008 27.2863 12.5013 27.0516 12.064C26.817 11.616 26.497 11.2747 26.0916 11.04C25.6863 10.7947 25.2276 10.672 24.7156 10.672ZM34.9525 9.072C35.7525 9.072 36.4352 9.26933 37.0005 9.664C37.5658 10.0587 37.9605 10.5813 38.1845 11.232V6.16H40.0245V18H38.1845V15.952C37.9605 16.6027 37.5658 17.1253 37.0005 17.52C36.4352 17.9147 35.7525 18.112 34.9525 18.112C34.1845 18.112 33.4965 17.9307 32.8885 17.568C32.2912 17.2053 31.8218 16.6827 31.4805 16C31.1392 15.3173 30.9685 14.512 30.9685 13.584C30.9685 12.6667 31.1392 11.8667 31.4805 11.184C31.8218 10.5013 32.2912 9.97867 32.8885 9.616C33.4965 9.25333 34.1845 9.072 34.9525 9.072ZM35.5125 10.672C34.7018 10.672 34.0512 10.9333 33.5605 11.456C33.0805 11.968 32.8405 12.6773 32.8405 13.584C32.8405 14.4907 33.0805 15.2053 33.5605 15.728C34.0512 16.24 34.7018 16.496 35.5125 16.496C36.0245 16.496 36.4832 16.3787 36.8885 16.144C37.2938 15.8987 37.6138 15.5573 37.8485 15.12C38.0832 14.6827 38.2005 14.1707 38.2005 13.584C38.2005 13.008 38.0832 12.5013 37.8485 12.064C37.6138 11.616 37.2938 11.2747 36.8885 11.04C36.4832 10.7947 36.0245 10.672 35.5125 10.672ZM57.6754 6.88V18H55.8354V9.664L52.6194 18H51.0194L47.7874 9.664V18H45.9634V6.88H48.1714L51.8514 15.76L55.4674 6.88H57.6754ZM63.9016 9.072C64.755 9.072 65.523 9.25333 66.2056 9.616C66.8883 9.97867 67.4216 10.5013 67.8056 11.184C68.1896 11.8667 68.3816 12.6667 68.3816 13.584C68.3816 14.512 68.1896 15.3173 67.8056 16C67.4216 16.6827 66.8883 17.2053 66.2056 17.568C65.523 17.9307 64.755 18.112 63.9016 18.112C63.0483 18.112 62.2803 17.9307 61.5976 17.568C60.9256 17.2053 60.3923 16.6827 59.9976 16C59.6136 15.3067 59.4216 14.5013 59.4216 13.584C59.4216 12.6667 59.6136 11.8667 59.9976 11.184C60.3923 10.5013 60.9256 9.97867 61.5976 9.616C62.2803 9.25333 63.0483 9.072 63.9016 9.072ZM63.9016 10.656C63.4323 10.656 63.0003 10.7627 62.6056 10.976C62.211 11.1893 61.891 11.52 61.6456 11.968C61.411 12.4053 61.2936 12.944 61.2936 13.584C61.2936 14.2347 61.411 14.7787 61.6456 15.216C61.891 15.6533 62.211 15.9787 62.6056 16.192C63.0003 16.4053 63.4323 16.512 63.9016 16.512C64.371 16.512 64.803 16.4053 65.1976 16.192C65.5923 15.9787 65.907 15.6533 66.1416 15.216C66.387 14.7787 66.5096 14.2347 66.5096 13.584C66.5096 12.944 66.387 12.4053 66.1416 11.968C65.907 11.52 65.5923 11.1893 65.1976 10.976C64.803 10.7627 64.371 10.656 63.9016 10.656ZM71.9593 10.912C72.2579 10.336 72.6846 9.88267 73.2393 9.552C73.7939 9.21067 74.4339 9.04 75.1593 9.04V11.024H74.6153C73.8153 11.024 73.1699 11.2213 72.6793 11.616C72.1993 12 71.9593 12.64 71.9593 13.536V18H70.1353V9.184H71.9593V10.912ZM84.7179 13.168C84.7179 13.4667 84.6965 13.728 84.6539 13.952H77.8699C77.9019 14.8587 78.1525 15.5307 78.6219 15.968C79.0912 16.4053 79.6725 16.624 80.3659 16.624C80.9739 16.624 81.4859 16.4693 81.9019 16.16C82.3285 15.8507 82.5899 15.44 82.6859 14.928H84.6379C84.5205 15.5467 84.2752 16.096 83.9019 16.576C83.5285 17.056 83.0432 17.4347 82.4459 17.712C81.8485 17.9787 81.1819 18.112 80.4459 18.112C79.5925 18.112 78.8352 17.9307 78.1739 17.568C77.5232 17.2053 77.0112 16.6827 76.6379 16C76.2645 15.3173 76.0779 14.512 76.0779 13.584C76.0779 12.6667 76.2645 11.8667 76.6379 11.184C77.0112 10.5013 77.5232 9.97867 78.1739 9.616C78.8352 9.25333 79.5925 9.072 80.4459 9.072C81.3099 9.072 82.0619 9.25333 82.7019 9.616C83.3525 9.968 83.8485 10.4587 84.1899 11.088C84.5419 11.7067 84.7179 12.4 84.7179 13.168ZM82.8779 13.12C82.8992 12.544 82.7979 12.064 82.5739 11.68C82.3605 11.2853 82.0619 10.9973 81.6779 10.816C81.3045 10.624 80.8939 10.528 80.4459 10.528C79.7312 10.528 79.1339 10.7467 78.6539 11.184C78.1739 11.6213 77.9125 12.2667 77.8699 13.12H82.8779Z" fill="#444CFC"/>
<path d="M122.354 13.3536C122.549 13.1583 122.549 12.8417 122.354 12.6464L119.172 9.46447C118.976 9.26921 118.66 9.26921 118.464 9.46447C118.269 9.65973 118.269 9.97631 118.464 10.1716L121.293 13L118.464 15.8284C118.269 16.0237 118.269 16.3403 118.464 16.5355C118.66 16.7308 118.976 16.7308 119.172 16.5355L122.354 13.3536ZM98 13.5L122 13.5L122 12.5L98 12.5L98 13.5Z" fill="black"/>
</svg>
